<svg width="244" height="78" viewBox="0 0 244 78" fill="none" xmlns="http://www.w3.org/2000/svg">
<rect x="1.5" y="10.5" width="241" height="58" stroke="#2AD1FF" stroke-width="3"/>
<g style="mix-blend-mode:screen" filter="url(#filter0_f_154_4769)">
<path d="M40.7053 48V30.72H54.4093C55.0653 30.72 55.6573 30.88 56.1853 31.2C56.7293 31.52 57.1613 31.952 57.4813 32.496C57.8173 33.024 57.9853 33.616 57.9853 34.272V44.448C57.9853 45.088 57.8173 45.68 57.4813 46.224C57.1613 46.768 56.7293 47.2 56.1853 47.52C55.6573 47.84 55.0653 48 54.4093 48H40.7053ZM44.4013 44.256H54.2173V34.464H44.4013V44.256ZM64.177 48C63.537 48 62.945 47.84 62.401 47.52C61.857 47.2 61.425 46.768 61.105 46.224C60.785 45.68 60.625 45.088 60.625 44.448V34.272C60.625 33.616 60.785 33.024 61.105 32.496C61.425 31.952 61.857 31.52 62.401 31.2C62.945 30.88 63.537 30.72 64.177 30.72H74.353C74.993 30.72 75.577 30.88 76.105 31.2C76.649 31.52 77.081 31.952 77.401 32.496C77.737 33.024 77.905 33.616 77.905 34.272V44.448C77.905 45.088 77.737 45.68 77.401 46.224C77.081 46.768 76.649 47.2 76.105 47.52C75.577 47.84 74.993 48 74.353 48H64.177ZM64.345 44.256H74.137V34.464H64.345V44.256ZM85.4882 48L79.2002 30.72H83.1602L86.9282 41.016L90.6962 30.72H94.1282L97.9202 41.016L101.688 30.72H105.624L99.3362 48H96.4802L92.4002 36.888L88.3442 48H85.4882ZM107.993 48V30.72H111.833L121.505 42.24V30.72H125.273V48H121.433L111.713 36.432V48H107.993ZM127.986 48V30.696H131.706V44.256H145.266V48H127.986ZM150.169 48C149.529 48 148.937 47.84 148.393 47.52C147.849 47.2 147.417 46.768 147.097 46.224C146.777 45.68 146.617 45.088 146.617 44.448V34.272C146.617 33.616 146.777 33.024 147.097 32.496C147.417 31.952 147.849 31.52 148.393 31.2C148.937 30.88 149.529 30.72 150.169 30.72H160.345C160.985 30.72 161.569 30.88 162.097 31.2C162.641 31.52 163.073 31.952 163.393 32.496C163.729 33.024 163.897 33.616 163.897 34.272V44.448C163.897 45.088 163.729 45.68 163.393 46.224C163.073 46.768 162.641 47.2 162.097 47.52C161.569 47.84 160.985 48 160.345 48H150.169ZM150.337 44.256H160.129V34.464H150.337V44.256ZM166.588 48V34.272C166.588 33.616 166.748 33.024 167.068 32.496C167.388 31.952 167.82 31.52 168.364 31.2C168.908 30.88 169.5 30.72 170.14 30.72H180.292C180.948 30.72 181.54 30.88 182.068 31.2C182.612 31.52 183.044 31.952 183.364 32.496C183.7 33.024 183.868 33.616 183.868 34.272V48H180.1V42.432H170.308V48H166.588ZM170.308 38.688H180.1V34.464H170.308V38.688ZM186.651 48V30.72H200.355C201.011 30.72 201.603 30.88 202.131 31.2C202.675 31.52 203.107 31.952 203.427 32.496C203.763 33.024 203.931 33.616 203.931 34.272V44.448C203.931 45.088 203.763 45.68 203.427 46.224C203.107 46.768 202.675 47.2 202.131 47.52C201.603 47.84 201.011 48 200.355 48H186.651ZM190.347 44.256H200.163V34.464H190.347V44.256Z" fill="#2AD1FF"/>
</g>
<path d="M40.6116 48V30.72H55.0116C55.5396 30.72 56.0196 30.848 56.4516 31.104C56.8996 31.36 57.2516 31.712 57.5076 32.16C57.7636 32.592 57.8916 33.072 57.8916 33.6V45.12C57.8916 45.648 57.7636 46.136 57.5076 46.584C57.2516 47.016 56.8996 47.36 56.4516 47.616C56.0196 47.872 55.5396 48 55.0116 48H40.6116ZM43.4916 46.056H55.0116C55.2676 46.056 55.4836 45.968 55.6596 45.792C55.8516 45.6 55.9476 45.376 55.9476 45.12V33.6C55.9476 33.344 55.8516 33.128 55.6596 32.952C55.4836 32.76 55.2676 32.664 55.0116 32.664H43.4916C43.2356 32.664 43.0116 32.76 42.8196 32.952C42.6436 33.128 42.5556 33.344 42.5556 33.6V45.12C42.5556 45.376 42.6436 45.6 42.8196 45.792C43.0116 45.968 43.2356 46.056 43.4916 46.056ZM63.4112 48C62.8832 48 62.3952 47.872 61.9472 47.616C61.5152 47.36 61.1712 47.016 60.9152 46.584C60.6592 46.136 60.5312 45.648 60.5312 45.12V33.6C60.5312 33.072 60.6592 32.592 60.9152 32.16C61.1712 31.712 61.5152 31.36 61.9472 31.104C62.3952 30.848 62.8832 30.72 63.4112 30.72H74.9312C75.4592 30.72 75.9392 30.848 76.3712 31.104C76.8192 31.36 77.1712 31.712 77.4272 32.16C77.6832 32.592 77.8112 33.072 77.8112 33.6V45.12C77.8112 45.648 77.6832 46.136 77.4272 46.584C77.1712 47.016 76.8192 47.36 76.3712 47.616C75.9392 47.872 75.4592 48 74.9312 48H63.4112ZM63.4112 46.056H74.9312C75.1872 46.056 75.4032 45.968 75.5792 45.792C75.7712 45.6 75.8672 45.376 75.8672 45.12V33.6C75.8672 33.344 75.7712 33.128 75.5792 32.952C75.4032 32.76 75.1872 32.664 74.9312 32.664H63.4112C63.1552 32.664 62.9312 32.76 62.7392 32.952C62.5632 33.128 62.4752 33.344 62.4752 33.6V45.12C62.4752 45.376 62.5632 45.6 62.7392 45.792C62.9312 45.968 63.1552 46.056 63.4112 46.056ZM85.582 48L79.294 30.72H81.358L86.422 44.592L91.462 30.72H93.814L98.878 44.592L103.894 30.72H106.006L99.718 48H98.014L92.638 33.24L87.262 48H85.582ZM108.087 48V30.72H110.751L123.423 45.792V30.72H125.367V48H122.703L110.031 32.928V48H108.087ZM128.08 48V30.696H130.024V46.056H145.36V48H128.08ZM149.591 48C149.063 48 148.575 47.872 148.127 47.616C147.695 47.36 147.351 47.016 147.095 46.584C146.839 46.136 146.711 45.648 146.711 45.12V33.6C146.711 33.072 146.839 32.592 147.095 32.16C147.351 31.712 147.695 31.36 148.127 31.104C148.575 30.848 149.063 30.72 149.591 30.72H161.111C161.639 30.72 162.119 30.848 162.551 31.104C162.999 31.36 163.351 31.712 163.607 32.16C163.863 32.592 163.991 33.072 163.991 33.6V45.12C163.991 45.648 163.863 46.136 163.607 46.584C163.351 47.016 162.999 47.36 162.551 47.616C162.119 47.872 161.639 48 161.111 48H149.591ZM149.591 46.056H161.111C161.367 46.056 161.583 45.968 161.759 45.792C161.951 45.6 162.047 45.376 162.047 45.12V33.6C162.047 33.344 161.951 33.128 161.759 32.952C161.583 32.76 161.367 32.664 161.111 32.664H149.591C149.335 32.664 149.111 32.76 148.919 32.952C148.743 33.128 148.655 33.344 148.655 33.6V45.12C148.655 45.376 148.743 45.6 148.919 45.792C149.111 45.968 149.335 46.056 149.591 46.056ZM166.682 48V33.6C166.682 33.072 166.81 32.592 167.066 32.16C167.322 31.712 167.666 31.36 168.098 31.104C168.546 30.848 169.034 30.72 169.562 30.72H181.082C181.61 30.72 182.09 30.848 182.522 31.104C182.97 31.36 183.322 31.712 183.578 32.16C183.834 32.592 183.962 33.072 183.962 33.6V48H182.018V41.688H168.626V48H166.682ZM168.626 39.744H182.018V33.6C182.018 33.344 181.922 33.128 181.73 32.952C181.554 32.76 181.338 32.664 181.082 32.664H169.562C169.306 32.664 169.082 32.76 168.89 32.952C168.714 33.128 168.626 33.344 168.626 33.6V39.744ZM186.744 48V30.72H201.144C201.672 30.72 202.152 30.848 202.584 31.104C203.032 31.36 203.384 31.712 203.64 32.16C203.896 32.592 204.024 33.072 204.024 33.6V45.12C204.024 45.648 203.896 46.136 203.64 46.584C203.384 47.016 203.032 47.36 202.584 47.616C202.152 47.872 201.672 48 201.144 48H186.744ZM189.624 46.056H201.144C201.4 46.056 201.616 45.968 201.792 45.792C201.984 45.6 202.08 45.376 202.08 45.12V33.6C202.08 33.344 201.984 33.128 201.792 32.952C201.616 32.76 201.4 32.664 201.144 32.664H189.624C189.368 32.664 189.144 32.76 188.952 32.952C188.776 33.128 188.688 33.344 188.688 33.6V45.12C188.688 45.376 188.776 45.6 188.952 45.792C189.144 45.968 189.368 46.056 189.624 46.056Z" fill="white"/>
<defs>
<filter id="filter0_f_154_4769" x="31.3056" y="21.2958" width="182.025" height="36.1042" filterUnits="userSpaceOnUse" color-interpolation-filters="sRGB">
<feFlood flood-opacity="0" result="BackgroundImageFix"/>
<feBlend mode="normal" in="SourceGraphic" in2="BackgroundImageFix" result="shape"/>
<feGaussianBlur stdDeviation="4.7" result="effect1_foregroundBlur_154_4769"/>
</filter>
</defs>
</svg>
