<?xml version="1.0" encoding="UTF-8"?>
<svg xmlns="http://www.w3.org/2000/svg" xmlns:xlink="http://www.w3.org/1999/xlink" version="1.1" viewBox="0 0 180 236">
  <defs>
    <style>
      .cls-1 {
        fill: url(#linear-gradient);
        stroke: #000;
        stroke-width: 9px;
      }

      .cls-2 {
        fill: #b20000;
      }

      .cls-3 {
        fill: #d1c888;
      }

      .cls-4 {
        fill: #fff;
      }
    </style>
    <linearGradient id="linear-gradient" x1="90.2" y1="1392.8" x2="90.2" y2="1623.8" gradientTransform="translate(0 -1390)" gradientUnits="userSpaceOnUse">
      <stop offset="0" stop-color="#343434"/>
      <stop offset="1" stop-color="#000"/>
    </linearGradient>
  </defs>
  <!-- Generator: Adobe Illustrator 28.7.1, SVG Export Plug-In . SVG Version: 1.2.0 Build 142)  -->
  <g>
    <g id="Layer_1">
      <rect class="cls-1" x="7.2" y="7.3" width="166" height="222" rx="37.5" ry="37.5"/>
      <rect class="cls-3" x="85.7" y="118.8" width="9" height="97"/>
      <rect class="cls-3" x="79.7" y="74.8" width="97" height="9" transform="translate(-18.5 113.9) rotate(-45)"/>
      <rect class="cls-3" x="48.8" y="27.8" width="9" height="97" transform="translate(-38.4 60) rotate(-45)"/>
      <rect class="cls-2" x="16.7" y="151.8" width="148" height="10"/>
      <path class="cls-4" d="M47.3,155.4s-.2,0-.3,0c0,0-.2,0-.3,0h-1.5c-.2,0-.3,0-.5,0,0,0-.2,0-.3.2v.6s.2,0,.2.2c0,0,.2,0,.4.2,0,0,.3,0,.5,0,.2,0,.3,0,.5,0,.2,0,.3,0,.5,0,.2,0,.3,0,.5.2.2,0,.3,0,.4.2,0,0,.2.2.3.3v.8c0,0,0,.2-.2.3,0,0-.2,0-.3.2,0,0-.3,0-.4,0h-1.9c-.2,0-.6,0-.8-.2v-.4c.3.2.5.3.8.3h1.5c.2,0,.4,0,.5,0,0,0,.2,0,.3-.2,0,0,0-.2,0-.4v-.3s0-.2-.2-.2-.2,0-.4-.2c0,0-.3,0-.4,0-.2,0-.3,0-.5,0-.2,0-.3,0-.5,0-.2,0-.3,0-.5-.2-.2,0-.3,0-.4-.2,0,0-.2-.2-.3-.3v-.8c0,0,0-.2.2-.3,0,0,.2,0,.3-.2,0,0,.2,0,.4,0h2.4v.6ZM52.8,158.8v-1.9h-3.6v1.9h-.4v-4h.4v1.7h3.6v-1.7h.4v4h-.4ZM54.5,158.8v-4h.4v4h-.4ZM56.2,158.8v-4h3.3v.3h-3v1.4h2.8v.3h-2.8v1.6h3v.3h-3.4,0ZM60.7,158.8v-4h.4v3.7h2.9v.3h-3.3ZM69.3,156.8v.7c0,.2,0,.4-.2.5,0,.2-.2.3-.4.4,0,0-.3.2-.5.2s-.4,0-.6,0h-2.7v-4h3c.3,0,.5.2.7.3.2.2.4.4.5.6s.2.6.2,1v.2ZM69,156.8v-.6c0-.2,0-.3-.2-.4,0,0-.2-.2-.3-.3,0,0-.2-.2-.4-.2s-.3,0-.5,0-.4,0-.5,0h-1.7v3.3h2.5c.2,0,.4-.2.6-.3.2,0,.3-.3.4-.5,0-.2,0-.5,0-.8h0ZM72.7,158.8v-4h3.4v.3h-3v1.4h2.8v.3h-2.8v1.6h3v.3h-3.4ZM79,157.1v1.7h-.4v-1.7l-1.9-2.3h.4l1.6,2,1.6-2h.4l-1.9,2.3h.2ZM81.8,158.8v-4h3.4v.3h-3v1.4h2.8v.3h-2.8v1.6h3v.3h-3.4ZM89.5,155.4s-.2,0-.3,0c0,0-.2,0-.3,0h-1.5c-.2,0-.3,0-.5,0,0,0-.2,0-.3.2v.6s.2,0,.3.2c0,0,.2,0,.4.2.2,0,.3,0,.5,0,.2,0,.3,0,.5,0,.2,0,.3,0,.5,0,.2,0,.3,0,.5.2.2,0,.3,0,.4.2,0,0,.2.2.3.3v.8c0,0,0,.2-.2.3,0,0-.2,0-.3.2,0,0-.3,0-.4,0h-2c-.3,0-.6,0-.8-.2v-.4c.3.2.5.3.8.3h1.5c.2,0,.4,0,.5,0,.2,0,.3,0,.3-.2,0,0,0-.2,0-.4v-.3s0-.2-.3-.2-.2,0-.4-.2c0,0-.3,0-.5,0-.2,0-.3,0-.5,0-.2,0-.3,0-.5,0-.2,0-.3,0-.5-.2,0,0-.3,0-.4-.2,0,0-.2-.2-.3-.3v-.8c0,0,0-.2.2-.3,0,0,.2,0,.3-.2,0,0,.2,0,.4,0h2.4v.6ZM93.6,155.1v1.4h2.7v.3h-2.7v2h-.4v-4h3.2v.3h-2.8,0ZM97.8,157.1v1.7h-.4v-4h2.8c.2,0,.4,0,.5.2,0,0,.2.2.3.4v.5c0,.3,0,.5-.2.7,0,.2-.4.3-.8.4l1.4,1.8h-.5l-1.3-1.7h-2,.2ZM100.8,155.9v-.4c0,0-.2-.2-.3-.2s-.3,0-.5,0-.5,0-.8,0h-1.2v1.6h2c.2,0,.4,0,.5,0,0,0,.2,0,.3-.2v-.6ZM107.2,156.8c0,.4,0,.7-.2.9,0,.3-.3.5-.5.6-.2.2-.5.3-.8.4-.3,0-.6,0-1,0s-.7,0-1,0c-.3,0-.6-.2-.8-.4s-.4-.4-.5-.6c0-.3-.2-.6-.2-.9v-.7c0-.2,0-.4.2-.5,0-.2.2-.3.4-.4.2,0,.3-.2.5-.3.2,0,.4,0,.6-.2h.7c.4,0,.7,0,1,0,.3,0,.6.2.8.4s.4.4.5.7c0,.3.2.6.2.9h.1ZM106.8,156.8c0-.3,0-.5,0-.8,0-.2-.2-.4-.4-.5-.2-.2-.4-.3-.7-.3s-.6,0-.9,0-.7,0-1,0c-.3,0-.5.2-.7.3-.2,0-.3.3-.4.6,0,.2,0,.5,0,.8s0,.5,0,.8c0,.2.2.4.4.6.2,0,.4.3.7.3s.6,0,1,0,.7,0,.9,0,.5-.2.7-.3c.2-.2.3-.3.4-.6,0-.2,0-.5,0-.8h0ZM113.4,158.8v-3.4l-2.2,3.4h-.3l-2.2-3.4v3.4h-.4v-4h.4l2.4,3.7,2.3-3.7h.4v4h-.4ZM117.4,158.8v-4h.4v3.7h2.9v.3h-3.3ZM121.6,158.8v-4h.4v4h-.4ZM125.6,154.7h1c0,0,.3,0,.4,0,0,0,.3,0,.4.2v.4c0,0-.2,0-.3-.2,0,0-.3,0-.4-.2-.2,0-.3,0-.5,0h-.5c-.4,0-.7,0-1,0-.3,0-.5.2-.7.4-.2.2-.3.3-.4.6,0,.2,0,.5,0,.7s0,.5,0,.7c0,.2.2.4.4.6.2.2.4.3.7.4.3,0,.6,0,1,0h1.5v-1.2h-1.6v-.3h2v1.8c0,0-.3,0-.4,0h-1.5c-.4,0-.7,0-1,0-.3,0-.6-.2-.8-.4s-.4-.4-.6-.7c0-.3-.2-.6-.2-.9v-.6c0-.2.2-.4.3-.5l.4-.4c.2,0,.3-.2.5-.3.2,0,.4,0,.6-.2h.7,0ZM132.7,158.8v-1.9h-3.6v1.9h-.4v-4h.4v1.7h3.6v-1.7h.4v4h-.4ZM136.1,155.1v3.7h-.4v-3.7h-1.8v-.3h4v.3h-1.8,0Z"/>
    </g>
  </g>
</svg>