<?xml version="1.0" encoding="UTF-8"?>
<svg xmlns="http://www.w3.org/2000/svg" xmlns:xlink="http://www.w3.org/1999/xlink" version="1.1" viewBox="0 0 1920 1200">
  <defs>
    <style>
      .cls-1, .cls-2, .cls-3, .cls-4, .cls-5, .cls-6, .cls-7, .cls-8, .cls-9, .cls-10, .cls-11, .cls-12, .cls-13, .cls-14, .cls-15, .cls-16, .cls-17, .cls-18, .cls-19, .cls-20, .cls-21, .cls-22, .cls-23, .cls-24, .cls-25 {
        fill: none;
      }

      .cls-26 {
        mask: url(#mask);
      }

      .cls-2 {
        stroke: url(#linear-gradient-98);
      }

      .cls-2, .cls-3, .cls-20, .cls-21, .cls-22, .cls-23, .cls-24, .cls-25 {
        stroke-linecap: round;
        stroke-width: 22px;
      }

      .cls-3 {
        stroke: url(#linear-gradient-99);
      }

      .cls-27 {
        fill: url(#radial-gradient-4);
      }

      .cls-28 {
        fill: url(#radial-gradient-3);
      }

      .cls-29 {
        fill: url(#radial-gradient-2);
      }

      .cls-30 {
        fill-rule: evenodd;
        stroke: #fff;
        stroke-width: 3px;
      }

      .cls-30, .cls-31 {
        fill: #d9d9d9;
      }

      .cls-32 {
        fill: url(#linear-gradient-8);
      }

      .cls-33 {
        fill: url(#linear-gradient-7);
      }

      .cls-34 {
        fill: url(#linear-gradient-5);
      }

      .cls-35 {
        fill: url(#linear-gradient-6);
      }

      .cls-36 {
        fill: url(#linear-gradient-9);
      }

      .cls-37 {
        fill: url(#linear-gradient-4);
      }

      .cls-38 {
        fill: url(#linear-gradient-3);
      }

      .cls-39 {
        fill: url(#linear-gradient-2);
      }

      .cls-40 {
        fill: #a3a2a2;
      }

      .cls-41 {
        fill: #030303;
      }

      .cls-42 {
        fill: url(#radial-gradient);
      }

      .cls-43 {
        fill: url(#linear-gradient);
      }

      .cls-44 {
        fill: #f7ff00;
      }

      .cls-45 {
        fill: lime;
      }

      .cls-46 {
        fill: url(#linear-gradient-81);
        stroke: #000;
        stroke-width: 9px;
      }

      .cls-47 {
        fill: #b20000;
      }

      .cls-48 {
        fill: #d1c888;
      }

      .cls-49 {
        fill: #fff;
      }

      .cls-4 {
        stroke: url(#linear-gradient-88);
      }

      .cls-4, .cls-5, .cls-6, .cls-7, .cls-8, .cls-9, .cls-10, .cls-11, .cls-12, .cls-13, .cls-14, .cls-15, .cls-16, .cls-17, .cls-18, .cls-19 {
        stroke-width: 8px;
      }

      .cls-5 {
        stroke: url(#linear-gradient-87);
      }

      .cls-6 {
        stroke: url(#linear-gradient-89);
      }

      .cls-7 {
        stroke: url(#linear-gradient-82);
      }

      .cls-8 {
        stroke: url(#linear-gradient-83);
      }

      .cls-9 {
        stroke: url(#linear-gradient-85);
      }

      .cls-10 {
        stroke: url(#linear-gradient-90);
      }

      .cls-11 {
        stroke: url(#linear-gradient-93);
      }

      .cls-12 {
        stroke: url(#linear-gradient-94);
      }

      .cls-13 {
        stroke: url(#linear-gradient-95);
      }

      .cls-14 {
        stroke: url(#linear-gradient-92);
      }

      .cls-15 {
        stroke: url(#linear-gradient-86);
      }

      .cls-16 {
        stroke: url(#linear-gradient-84);
      }

      .cls-17 {
        stroke: url(#linear-gradient-97);
      }

      .cls-18 {
        stroke: url(#linear-gradient-91);
      }

      .cls-19 {
        stroke: url(#linear-gradient-96);
      }

      .cls-50 {
        fill: url(#linear-gradient-43);
      }

      .cls-51 {
        fill: url(#linear-gradient-40);
      }

      .cls-52 {
        fill: url(#linear-gradient-41);
      }

      .cls-53 {
        fill: url(#linear-gradient-42);
      }

      .cls-54 {
        fill: url(#linear-gradient-49);
      }

      .cls-55 {
        fill: url(#linear-gradient-48);
      }

      .cls-56 {
        fill: url(#linear-gradient-45);
      }

      .cls-57 {
        fill: url(#linear-gradient-47);
      }

      .cls-58 {
        fill: url(#linear-gradient-44);
      }

      .cls-59 {
        fill: url(#linear-gradient-46);
      }

      .cls-60 {
        fill: url(#linear-gradient-10);
      }

      .cls-61 {
        fill: url(#linear-gradient-11);
      }

      .cls-62 {
        fill: url(#linear-gradient-12);
      }

      .cls-63 {
        fill: url(#linear-gradient-13);
      }

      .cls-64 {
        fill: url(#linear-gradient-19);
      }

      .cls-65 {
        fill: url(#linear-gradient-14);
      }

      .cls-66 {
        fill: url(#linear-gradient-21);
      }

      .cls-67 {
        fill: url(#linear-gradient-20);
      }

      .cls-68 {
        fill: url(#linear-gradient-22);
      }

      .cls-69 {
        fill: url(#linear-gradient-23);
      }

      .cls-70 {
        fill: url(#linear-gradient-28);
      }

      .cls-71 {
        fill: url(#linear-gradient-25);
      }

      .cls-72 {
        fill: url(#linear-gradient-32);
      }

      .cls-73 {
        fill: url(#linear-gradient-31);
      }

      .cls-74 {
        fill: url(#linear-gradient-33);
      }

      .cls-75 {
        fill: url(#linear-gradient-30);
      }

      .cls-76 {
        fill: url(#linear-gradient-15);
      }

      .cls-77 {
        fill: url(#linear-gradient-16);
      }

      .cls-78 {
        fill: url(#linear-gradient-17);
      }

      .cls-79 {
        fill: url(#linear-gradient-18);
      }

      .cls-80 {
        fill: url(#linear-gradient-35);
      }

      .cls-81 {
        fill: url(#linear-gradient-34);
      }

      .cls-82 {
        fill: url(#linear-gradient-36);
      }

      .cls-83 {
        fill: url(#linear-gradient-38);
      }

      .cls-84 {
        fill: url(#linear-gradient-27);
      }

      .cls-85 {
        fill: url(#linear-gradient-24);
      }

      .cls-86 {
        fill: url(#linear-gradient-26);
      }

      .cls-87 {
        fill: url(#linear-gradient-29);
      }

      .cls-88 {
        fill: url(#linear-gradient-37);
      }

      .cls-89 {
        fill: url(#linear-gradient-39);
      }

      .cls-90 {
        fill: url(#linear-gradient-57);
      }

      .cls-91 {
        fill: url(#linear-gradient-58);
      }

      .cls-92 {
        fill: url(#linear-gradient-59);
      }

      .cls-93 {
        fill: url(#linear-gradient-53);
      }

      .cls-94 {
        fill: url(#linear-gradient-54);
      }

      .cls-95 {
        fill: url(#linear-gradient-55);
      }

      .cls-96 {
        fill: url(#linear-gradient-56);
      }

      .cls-97 {
        fill: url(#linear-gradient-50);
      }

      .cls-98 {
        fill: url(#linear-gradient-51);
      }

      .cls-99 {
        fill: url(#linear-gradient-52);
      }

      .cls-100 {
        fill: url(#linear-gradient-67);
      }

      .cls-101 {
        fill: url(#linear-gradient-68);
      }

      .cls-102 {
        fill: url(#linear-gradient-69);
      }

      .cls-103 {
        fill: url(#linear-gradient-63);
      }

      .cls-104 {
        fill: url(#linear-gradient-64);
      }

      .cls-105 {
        fill: url(#linear-gradient-65);
      }

      .cls-106 {
        fill: url(#linear-gradient-66);
      }

      .cls-107 {
        fill: url(#linear-gradient-60);
      }

      .cls-108 {
        fill: url(#linear-gradient-61);
      }

      .cls-109 {
        fill: url(#linear-gradient-62);
      }

      .cls-110 {
        fill: url(#linear-gradient-79);
      }

      .cls-111 {
        fill: url(#linear-gradient-78);
      }

      .cls-112 {
        fill: url(#linear-gradient-75);
      }

      .cls-113 {
        fill: url(#linear-gradient-72);
      }

      .cls-114 {
        fill: url(#linear-gradient-77);
      }

      .cls-115 {
        fill: url(#linear-gradient-74);
      }

      .cls-116 {
        fill: url(#linear-gradient-76);
      }

      .cls-117 {
        fill: url(#linear-gradient-71);
      }

      .cls-118 {
        fill: url(#linear-gradient-73);
      }

      .cls-119 {
        fill: url(#linear-gradient-70);
      }

      .cls-120 {
        fill: url(#linear-gradient-80);
      }

      .cls-121 {
        fill: #fff700;
      }

      .cls-122 {
        fill: #4a4a4a;
      }

      .cls-123 {
        fill: red;
      }

      .cls-20 {
        stroke: url(#linear-gradient-104);
      }

      .cls-21 {
        stroke: url(#linear-gradient-103);
      }

      .cls-22 {
        stroke: url(#linear-gradient-100);
      }

      .cls-23 {
        stroke: url(#linear-gradient-101);
      }

      .cls-24 {
        stroke: url(#linear-gradient-102);
      }

      .cls-25 {
        stroke: url(#linear-gradient-105);
      }

      .cls-124, .cls-125 {
        display: none;
      }

      .cls-126 {
        clip-path: url(#clippath);
      }

      .cls-125 {
        fill: #9c9c9c;
      }
    </style>
    <clipPath id="clippath">
      <rect class="cls-1" width="1920" height="1200"/>
    </clipPath>
    <mask id="mask" x="41" y="20.6" width="391.7" height="224.6" maskUnits="userSpaceOnUse">
      <g id="mask1_18_761">
        <path class="cls-30" d="M65.8,132.7c-8.5-45.8-16.6-77.7-22.3-89l371.8,37.4,15.6,12.8-20.1,87.2-174.3,20.3-186.4,41.8c.5-5.9,2.8-15.3,5.6-26.4,6.2-24.7,14.7-58.4,10-84.1Z"/>
      </g>
    </mask>
    <linearGradient id="linear-gradient" x1="-549.1" y1="2176" x2="-549.1" y2="2161" gradientTransform="translate(918.9 -1986.8) rotate(-152.5) scale(1 -1)" gradientUnits="userSpaceOnUse">
      <stop offset="0" stop-color="#757575"/>
      <stop offset=".4" stop-color="#8f8585"/>
      <stop offset="1" stop-color="#bababa"/>
    </linearGradient>
    <linearGradient id="linear-gradient-2" x1="-544.9" y1="2163.6" x2="-533.9" y2="2163.6" gradientTransform="translate(2567.5 -348.8) rotate(-90) scale(1 -1)" gradientUnits="userSpaceOnUse">
      <stop offset="0" stop-color="#969696"/>
      <stop offset="1" stop-color="#fff"/>
    </linearGradient>
    <linearGradient id="linear-gradient-3" x1="-181.3" y1="1060.1" x2="-181.3" y2="1045.1" gradientTransform="translate(1332.6 708) rotate(-47.2) scale(1 -1)" gradientUnits="userSpaceOnUse">
      <stop offset="0" stop-color="#757575"/>
      <stop offset=".4" stop-color="#8f8585"/>
      <stop offset="1" stop-color="#bababa"/>
    </linearGradient>
    <linearGradient id="linear-gradient-4" x1="-186.2" y1="1048.6" x2="-175.2" y2="1048.6" gradientTransform="translate(616.9 1174.9) scale(1 -1)" gradientUnits="userSpaceOnUse">
      <stop offset="0" stop-color="#969696"/>
      <stop offset="1" stop-color="#fff"/>
    </linearGradient>
    <linearGradient id="linear-gradient-5" x1="174.9" y1="1063.1" x2="174.9" y2="1048.1" gradientTransform="translate(590.8 1131.3) rotate(-18.8) scale(1 -1)" gradientUnits="userSpaceOnUse">
      <stop offset="0" stop-color="#757575"/>
      <stop offset=".4" stop-color="#8f8585"/>
      <stop offset="1" stop-color="#bababa"/>
    </linearGradient>
    <linearGradient id="linear-gradient-6" x1="169.2" y1="1054.3" x2="180.2" y2="1054.3" gradientTransform="translate(241.6 1129.3) scale(1 -1)" gradientUnits="userSpaceOnUse">
      <stop offset="0" stop-color="#969696"/>
      <stop offset="1" stop-color="#fff"/>
    </linearGradient>
    <linearGradient id="linear-gradient-7" x1="1743.5" y1="372" x2="1743.5" y2="357" gradientTransform="translate(0 1202) scale(1 -1)" gradientUnits="userSpaceOnUse">
      <stop offset="0" stop-color="#757575"/>
      <stop offset=".4" stop-color="#8f8585"/>
      <stop offset="1" stop-color="#bababa"/>
    </linearGradient>
    <linearGradient id="linear-gradient-8" x1="1738" y1="365" x2="1749" y2="365" gradientTransform="translate(0 1202) scale(1 -1)" gradientUnits="userSpaceOnUse">
      <stop offset="0" stop-color="#969696"/>
      <stop offset="1" stop-color="#fff"/>
    </linearGradient>
    <linearGradient id="linear-gradient-9" x1="1817.7" y1="1970" x2="1817.7" y2="1955" gradientTransform="translate(1053.2 -1995.7) rotate(122.2) scale(1 -1)" gradientUnits="userSpaceOnUse">
      <stop offset="0" stop-color="#757575"/>
      <stop offset=".4" stop-color="#8f8585"/>
      <stop offset="1" stop-color="#bababa"/>
    </linearGradient>
    <linearGradient id="linear-gradient-10" x1="1821.9" y1="1965.3" x2="1832.9" y2="1965.3" gradientTransform="translate(3571.3 -1376.5) rotate(-180) scale(1 -1)" gradientUnits="userSpaceOnUse">
      <stop offset="0" stop-color="#969696"/>
      <stop offset="1" stop-color="#fff"/>
    </linearGradient>
    <linearGradient id="linear-gradient-11" x1="1304.8" y1="334.6" x2="1304.8" y2="319.6" gradientTransform="translate(1172.5 1980.1) rotate(-44.1) scale(1 -1)" gradientUnits="userSpaceOnUse">
      <stop offset="0" stop-color="#757575"/>
      <stop offset=".4" stop-color="#8f8585"/>
      <stop offset="1" stop-color="#bababa"/>
    </linearGradient>
    <linearGradient id="linear-gradient-12" x1="1299.8" y1="323.4" x2="1310.8" y2="323.4" gradientTransform="translate(576.8 1160.5) scale(1 -1)" gradientUnits="userSpaceOnUse">
      <stop offset="0" stop-color="#969696"/>
      <stop offset="1" stop-color="#fff"/>
    </linearGradient>
    <linearGradient id="linear-gradient-13" x1="810" y1="1542.4" x2="810" y2="1527.4" gradientTransform="translate(3559 139.8) rotate(-132.8) scale(1 -1)" gradientUnits="userSpaceOnUse">
      <stop offset="0" stop-color="#757575"/>
      <stop offset=".4" stop-color="#8f8585"/>
      <stop offset="1" stop-color="#bababa"/>
    </linearGradient>
    <linearGradient id="linear-gradient-14" x1="812.6" y1="1528.9" x2="823.6" y2="1528.9" gradientTransform="translate(3411 1407.1) rotate(-90) scale(1 -1)" gradientUnits="userSpaceOnUse">
      <stop offset="0" stop-color="#969696"/>
      <stop offset="1" stop-color="#fff"/>
    </linearGradient>
    <linearGradient id="linear-gradient-15" x1="1751" y1="378" x2="1751" y2="392" gradientTransform="translate(0 1202) scale(1 -1)" gradientUnits="userSpaceOnUse">
      <stop offset="0" stop-color="#043d00"/>
      <stop offset=".4" stop-color="#15b700"/>
      <stop offset="1" stop-color="#3cff00"/>
    </linearGradient>
    <linearGradient id="linear-gradient-16" x1="1751" y1="399" x2="1751" y2="413" gradientTransform="translate(0 1202) scale(1 -1)" gradientUnits="userSpaceOnUse">
      <stop offset="0" stop-color="#043d00"/>
      <stop offset=".4" stop-color="#15b700"/>
      <stop offset="1" stop-color="#3cff00"/>
    </linearGradient>
    <linearGradient id="linear-gradient-17" x1="1751" y1="420" x2="1751" y2="434" gradientTransform="translate(0 1202) scale(1 -1)" gradientUnits="userSpaceOnUse">
      <stop offset="0" stop-color="#043d00"/>
      <stop offset=".4" stop-color="#15b700"/>
      <stop offset="1" stop-color="#3cff00"/>
    </linearGradient>
    <linearGradient id="linear-gradient-18" x1="1751" y1="441" x2="1751" y2="455" gradientTransform="translate(0 1202) scale(1 -1)" gradientUnits="userSpaceOnUse">
      <stop offset="0" stop-color="#043d00"/>
      <stop offset=".4" stop-color="#15b700"/>
      <stop offset="1" stop-color="#3cff00"/>
    </linearGradient>
    <linearGradient id="linear-gradient-19" x1="1751" y1="462" x2="1751" y2="476" gradientTransform="translate(0 1202) scale(1 -1)" gradientUnits="userSpaceOnUse">
      <stop offset="0" stop-color="#043d00"/>
      <stop offset=".4" stop-color="#15b700"/>
      <stop offset="1" stop-color="#3cff00"/>
    </linearGradient>
    <linearGradient id="linear-gradient-20" x1="1751" y1="483" x2="1751" y2="497" gradientTransform="translate(0 1202) scale(1 -1)" gradientUnits="userSpaceOnUse">
      <stop offset="0" stop-color="#7f7f7f"/>
      <stop offset=".8" stop-color="#fafafa"/>
    </linearGradient>
    <linearGradient id="linear-gradient-21" x1="1751" y1="504" x2="1751" y2="518" gradientTransform="translate(0 1202) scale(1 -1)" gradientUnits="userSpaceOnUse">
      <stop offset="0" stop-color="#7f7f7f"/>
      <stop offset=".8" stop-color="#fafafa"/>
    </linearGradient>
    <linearGradient id="linear-gradient-22" x1="1751" y1="525" x2="1751" y2="539" gradientTransform="translate(0 1202) scale(1 -1)" gradientUnits="userSpaceOnUse">
      <stop offset="0" stop-color="#7f7f7f"/>
      <stop offset=".8" stop-color="#fafafa"/>
    </linearGradient>
    <linearGradient id="linear-gradient-23" x1="1751" y1="546" x2="1751" y2="560" gradientTransform="translate(0 1202) scale(1 -1)" gradientUnits="userSpaceOnUse">
      <stop offset="0" stop-color="#7f7f7f"/>
      <stop offset=".8" stop-color="#fafafa"/>
    </linearGradient>
    <linearGradient id="linear-gradient-24" x1="1751" y1="567" x2="1751" y2="581" gradientTransform="translate(0 1202) scale(1 -1)" gradientUnits="userSpaceOnUse">
      <stop offset="0" stop-color="#7f7f7f"/>
      <stop offset=".8" stop-color="#fafafa"/>
    </linearGradient>
    <linearGradient id="linear-gradient-25" x1="1751" y1="588" x2="1751" y2="602" gradientTransform="translate(0 1202) scale(1 -1)" gradientUnits="userSpaceOnUse">
      <stop offset="0" stop-color="#7f7f7f"/>
      <stop offset=".8" stop-color="#fafafa"/>
    </linearGradient>
    <linearGradient id="linear-gradient-26" x1="1826" y1="378" x2="1826" y2="392" gradientTransform="translate(0 1202) scale(1 -1)" gradientUnits="userSpaceOnUse">
      <stop offset="0" stop-color="#043d00"/>
      <stop offset=".4" stop-color="#15b700"/>
      <stop offset="1" stop-color="#3cff00"/>
    </linearGradient>
    <linearGradient id="linear-gradient-27" x1="1826" y1="399" x2="1826" y2="413" gradientTransform="translate(0 1202) scale(1 -1)" gradientUnits="userSpaceOnUse">
      <stop offset="0" stop-color="#043d00"/>
      <stop offset=".4" stop-color="#15b700"/>
      <stop offset="1" stop-color="#3cff00"/>
    </linearGradient>
    <linearGradient id="linear-gradient-28" x1="1826" y1="420" x2="1826" y2="434" gradientTransform="translate(0 1202) scale(1 -1)" gradientUnits="userSpaceOnUse">
      <stop offset="0" stop-color="#043d00"/>
      <stop offset=".4" stop-color="#15b700"/>
      <stop offset="1" stop-color="#3cff00"/>
    </linearGradient>
    <linearGradient id="linear-gradient-29" x1="1826" y1="441" x2="1826" y2="455" gradientTransform="translate(0 1202) scale(1 -1)" gradientUnits="userSpaceOnUse">
      <stop offset="0" stop-color="#043d00"/>
      <stop offset=".4" stop-color="#15b700"/>
      <stop offset="1" stop-color="#3cff00"/>
    </linearGradient>
    <linearGradient id="linear-gradient-30" x1="1826" y1="462" x2="1826" y2="476" gradientTransform="translate(0 1202) scale(1 -1)" gradientUnits="userSpaceOnUse">
      <stop offset="0" stop-color="#043d00"/>
      <stop offset=".4" stop-color="#15b700"/>
      <stop offset="1" stop-color="#3cff00"/>
    </linearGradient>
    <linearGradient id="linear-gradient-31" x1="1826" y1="483" x2="1826" y2="497" gradientTransform="translate(0 1202) scale(1 -1)" gradientUnits="userSpaceOnUse">
      <stop offset="0" stop-color="#7f7f7f"/>
      <stop offset=".8" stop-color="#fafafa"/>
    </linearGradient>
    <linearGradient id="linear-gradient-32" x1="1826" y1="504" x2="1826" y2="518" gradientTransform="translate(0 1202) scale(1 -1)" gradientUnits="userSpaceOnUse">
      <stop offset="0" stop-color="#7f7f7f"/>
      <stop offset=".8" stop-color="#fafafa"/>
    </linearGradient>
    <linearGradient id="linear-gradient-33" x1="1826" y1="525" x2="1826" y2="539" gradientTransform="translate(0 1202) scale(1 -1)" gradientUnits="userSpaceOnUse">
      <stop offset="0" stop-color="#7f7f7f"/>
      <stop offset=".8" stop-color="#fafafa"/>
    </linearGradient>
    <linearGradient id="linear-gradient-34" x1="1826" y1="546" x2="1826" y2="560" gradientTransform="translate(0 1202) scale(1 -1)" gradientUnits="userSpaceOnUse">
      <stop offset="0" stop-color="#7f7f7f"/>
      <stop offset=".8" stop-color="#fafafa"/>
    </linearGradient>
    <linearGradient id="linear-gradient-35" x1="1826" y1="567" x2="1826" y2="581" gradientTransform="translate(0 1202) scale(1 -1)" gradientUnits="userSpaceOnUse">
      <stop offset="0" stop-color="#7f7f7f"/>
      <stop offset=".8" stop-color="#fafafa"/>
    </linearGradient>
    <linearGradient id="linear-gradient-36" x1="1826" y1="588" x2="1826" y2="602" gradientTransform="translate(0 1202) scale(1 -1)" gradientUnits="userSpaceOnUse">
      <stop offset="0" stop-color="#7f7f7f"/>
      <stop offset=".8" stop-color="#fafafa"/>
    </linearGradient>
    <linearGradient id="linear-gradient-37" x1="1801" y1="378" x2="1801" y2="392" gradientTransform="translate(0 1202) scale(1 -1)" gradientUnits="userSpaceOnUse">
      <stop offset="0" stop-color="#043d00"/>
      <stop offset=".4" stop-color="#15b700"/>
      <stop offset="1" stop-color="#3cff00"/>
    </linearGradient>
    <linearGradient id="linear-gradient-38" x1="1801" y1="399" x2="1801" y2="413" gradientTransform="translate(0 1202) scale(1 -1)" gradientUnits="userSpaceOnUse">
      <stop offset="0" stop-color="#043d00"/>
      <stop offset=".4" stop-color="#15b700"/>
      <stop offset="1" stop-color="#3cff00"/>
    </linearGradient>
    <linearGradient id="linear-gradient-39" x1="1801" y1="420" x2="1801" y2="434" gradientTransform="translate(0 1202) scale(1 -1)" gradientUnits="userSpaceOnUse">
      <stop offset="0" stop-color="#043d00"/>
      <stop offset=".4" stop-color="#15b700"/>
      <stop offset="1" stop-color="#3cff00"/>
    </linearGradient>
    <linearGradient id="linear-gradient-40" x1="1801" y1="441" x2="1801" y2="455" gradientTransform="translate(0 1202) scale(1 -1)" gradientUnits="userSpaceOnUse">
      <stop offset="0" stop-color="#043d00"/>
      <stop offset=".4" stop-color="#15b700"/>
      <stop offset="1" stop-color="#3cff00"/>
    </linearGradient>
    <linearGradient id="linear-gradient-41" x1="1801" y1="462" x2="1801" y2="476" gradientTransform="translate(0 1202) scale(1 -1)" gradientUnits="userSpaceOnUse">
      <stop offset="0" stop-color="#043d00"/>
      <stop offset=".4" stop-color="#15b700"/>
      <stop offset="1" stop-color="#3cff00"/>
    </linearGradient>
    <linearGradient id="linear-gradient-42" x1="1801" y1="483" x2="1801" y2="497" gradientTransform="translate(0 1202) scale(1 -1)" gradientUnits="userSpaceOnUse">
      <stop offset="0" stop-color="#043d00"/>
      <stop offset=".4" stop-color="#15b700"/>
      <stop offset="1" stop-color="#3cff00"/>
    </linearGradient>
    <linearGradient id="linear-gradient-43" x1="1801" y1="504" x2="1801" y2="518" gradientTransform="translate(0 1202) scale(1 -1)" gradientUnits="userSpaceOnUse">
      <stop offset="0" stop-color="#7f7f7f"/>
      <stop offset=".8" stop-color="#fafafa"/>
    </linearGradient>
    <linearGradient id="linear-gradient-44" x1="1801" y1="525" x2="1801" y2="539" gradientTransform="translate(0 1202) scale(1 -1)" gradientUnits="userSpaceOnUse">
      <stop offset="0" stop-color="#7f7f7f"/>
      <stop offset=".8" stop-color="#fafafa"/>
    </linearGradient>
    <linearGradient id="linear-gradient-45" x1="1801" y1="546" x2="1801" y2="560" gradientTransform="translate(0 1202) scale(1 -1)" gradientUnits="userSpaceOnUse">
      <stop offset="0" stop-color="#7f7f7f"/>
      <stop offset=".8" stop-color="#fafafa"/>
    </linearGradient>
    <linearGradient id="linear-gradient-46" x1="1801" y1="567" x2="1801" y2="581" gradientTransform="translate(0 1202) scale(1 -1)" gradientUnits="userSpaceOnUse">
      <stop offset="0" stop-color="#7f7f7f"/>
      <stop offset=".8" stop-color="#fafafa"/>
    </linearGradient>
    <linearGradient id="linear-gradient-47" x1="1801" y1="588" x2="1801" y2="602" gradientTransform="translate(0 1202) scale(1 -1)" gradientUnits="userSpaceOnUse">
      <stop offset="0" stop-color="#7f7f7f"/>
      <stop offset=".8" stop-color="#fafafa"/>
    </linearGradient>
    <linearGradient id="linear-gradient-48" x1="1876" y1="378" x2="1876" y2="392" gradientTransform="translate(0 1202) scale(1 -1)" gradientUnits="userSpaceOnUse">
      <stop offset="0" stop-color="#043d00"/>
      <stop offset=".4" stop-color="#15b700"/>
      <stop offset="1" stop-color="#3cff00"/>
    </linearGradient>
    <linearGradient id="linear-gradient-49" x1="1876" y1="399" x2="1876" y2="413" gradientTransform="translate(0 1202) scale(1 -1)" gradientUnits="userSpaceOnUse">
      <stop offset="0" stop-color="#043d00"/>
      <stop offset=".4" stop-color="#15b700"/>
      <stop offset="1" stop-color="#3cff00"/>
    </linearGradient>
    <linearGradient id="linear-gradient-50" x1="1876" y1="420" x2="1876" y2="434" gradientTransform="translate(0 1202) scale(1 -1)" gradientUnits="userSpaceOnUse">
      <stop offset="0" stop-color="#043d00"/>
      <stop offset=".4" stop-color="#15b700"/>
      <stop offset="1" stop-color="#3cff00"/>
    </linearGradient>
    <linearGradient id="linear-gradient-51" x1="1876" y1="441" x2="1876" y2="455" gradientTransform="translate(0 1202) scale(1 -1)" gradientUnits="userSpaceOnUse">
      <stop offset="0" stop-color="#043d00"/>
      <stop offset=".4" stop-color="#15b700"/>
      <stop offset="1" stop-color="#3cff00"/>
    </linearGradient>
    <linearGradient id="linear-gradient-52" x1="1876" y1="462" x2="1876" y2="476" gradientTransform="translate(0 1202) scale(1 -1)" gradientUnits="userSpaceOnUse">
      <stop offset="0" stop-color="#043d00"/>
      <stop offset=".4" stop-color="#15b700"/>
      <stop offset="1" stop-color="#3cff00"/>
    </linearGradient>
    <linearGradient id="linear-gradient-53" x1="1876" y1="483" x2="1876" y2="497" gradientTransform="translate(0 1202) scale(1 -1)" gradientUnits="userSpaceOnUse">
      <stop offset="0" stop-color="#043d00"/>
      <stop offset=".4" stop-color="#15b700"/>
      <stop offset="1" stop-color="#3cff00"/>
    </linearGradient>
    <linearGradient id="linear-gradient-54" x1="1876" y1="504" x2="1876" y2="518" gradientTransform="translate(0 1202) scale(1 -1)" gradientUnits="userSpaceOnUse">
      <stop offset="0" stop-color="#7f7f7f"/>
      <stop offset=".8" stop-color="#fafafa"/>
    </linearGradient>
    <linearGradient id="linear-gradient-55" x1="1876" y1="525" x2="1876" y2="539" gradientTransform="translate(0 1202) scale(1 -1)" gradientUnits="userSpaceOnUse">
      <stop offset="0" stop-color="#7f7f7f"/>
      <stop offset=".8" stop-color="#fafafa"/>
    </linearGradient>
    <linearGradient id="linear-gradient-56" x1="1876" y1="546" x2="1876" y2="560" gradientTransform="translate(0 1202) scale(1 -1)" gradientUnits="userSpaceOnUse">
      <stop offset="0" stop-color="#7f7f7f"/>
      <stop offset=".8" stop-color="#fafafa"/>
    </linearGradient>
    <linearGradient id="linear-gradient-57" x1="1876" y1="567" x2="1876" y2="581" gradientTransform="translate(0 1202) scale(1 -1)" gradientUnits="userSpaceOnUse">
      <stop offset="0" stop-color="#7f7f7f"/>
      <stop offset=".8" stop-color="#fafafa"/>
    </linearGradient>
    <linearGradient id="linear-gradient-58" x1="1876" y1="588" x2="1876" y2="602" gradientTransform="translate(0 1202) scale(1 -1)" gradientUnits="userSpaceOnUse">
      <stop offset="0" stop-color="#7f7f7f"/>
      <stop offset=".8" stop-color="#fafafa"/>
    </linearGradient>
    <linearGradient id="linear-gradient-59" x1="1776" y1="378" x2="1776" y2="392" gradientTransform="translate(0 1202) scale(1 -1)" gradientUnits="userSpaceOnUse">
      <stop offset="0" stop-color="#043d00"/>
      <stop offset=".4" stop-color="#15b700"/>
      <stop offset="1" stop-color="#3cff00"/>
    </linearGradient>
    <linearGradient id="linear-gradient-60" x1="1776" y1="399" x2="1776" y2="413" gradientTransform="translate(0 1202) scale(1 -1)" gradientUnits="userSpaceOnUse">
      <stop offset="0" stop-color="#043d00"/>
      <stop offset=".4" stop-color="#15b700"/>
      <stop offset="1" stop-color="#3cff00"/>
    </linearGradient>
    <linearGradient id="linear-gradient-61" x1="1776" y1="420" x2="1776" y2="434" gradientTransform="translate(0 1202) scale(1 -1)" gradientUnits="userSpaceOnUse">
      <stop offset="0" stop-color="#043d00"/>
      <stop offset=".4" stop-color="#15b700"/>
      <stop offset="1" stop-color="#3cff00"/>
    </linearGradient>
    <linearGradient id="linear-gradient-62" x1="1776" y1="441" x2="1776" y2="455" gradientTransform="translate(0 1202) scale(1 -1)" gradientUnits="userSpaceOnUse">
      <stop offset="0" stop-color="#043d00"/>
      <stop offset=".4" stop-color="#15b700"/>
      <stop offset="1" stop-color="#3cff00"/>
    </linearGradient>
    <linearGradient id="linear-gradient-63" x1="1776" y1="462" x2="1776" y2="476" gradientTransform="translate(0 1202) scale(1 -1)" gradientUnits="userSpaceOnUse">
      <stop offset="0" stop-color="#043d00"/>
      <stop offset=".4" stop-color="#15b700"/>
      <stop offset="1" stop-color="#3cff00"/>
    </linearGradient>
    <linearGradient id="linear-gradient-64" x1="1776" y1="483" x2="1776" y2="497" gradientTransform="translate(0 1202) scale(1 -1)" gradientUnits="userSpaceOnUse">
      <stop offset="0" stop-color="#043d00"/>
      <stop offset=".4" stop-color="#15b700"/>
      <stop offset="1" stop-color="#3cff00"/>
    </linearGradient>
    <linearGradient id="linear-gradient-65" x1="1776" y1="504" x2="1776" y2="518" gradientTransform="translate(0 1202) scale(1 -1)" gradientUnits="userSpaceOnUse">
      <stop offset="0" stop-color="#043d00"/>
      <stop offset=".4" stop-color="#15b700"/>
      <stop offset="1" stop-color="#3cff00"/>
    </linearGradient>
    <linearGradient id="linear-gradient-66" x1="1776" y1="525" x2="1776" y2="539" gradientTransform="translate(0 1202) scale(1 -1)" gradientUnits="userSpaceOnUse">
      <stop offset="0" stop-color="#043d00"/>
      <stop offset=".4" stop-color="#15b700"/>
      <stop offset="1" stop-color="#3cff00"/>
    </linearGradient>
    <linearGradient id="linear-gradient-67" x1="1776" y1="546" x2="1776" y2="560" gradientTransform="translate(0 1202) scale(1 -1)" gradientUnits="userSpaceOnUse">
      <stop offset="0" stop-color="#7f7f7f"/>
      <stop offset=".8" stop-color="#fafafa"/>
    </linearGradient>
    <linearGradient id="linear-gradient-68" x1="1776" y1="567" x2="1776" y2="581" gradientTransform="translate(0 1202) scale(1 -1)" gradientUnits="userSpaceOnUse">
      <stop offset="0" stop-color="#7f7f7f"/>
      <stop offset=".8" stop-color="#fafafa"/>
    </linearGradient>
    <linearGradient id="linear-gradient-69" x1="1776" y1="588" x2="1776" y2="602" gradientTransform="translate(0 1202) scale(1 -1)" gradientUnits="userSpaceOnUse">
      <stop offset="0" stop-color="#7f7f7f"/>
      <stop offset=".8" stop-color="#fafafa"/>
    </linearGradient>
    <linearGradient id="linear-gradient-70" x1="1851" y1="378" x2="1851" y2="392" gradientTransform="translate(0 1202) scale(1 -1)" gradientUnits="userSpaceOnUse">
      <stop offset="0" stop-color="#043d00"/>
      <stop offset=".4" stop-color="#15b700"/>
      <stop offset="1" stop-color="#3cff00"/>
    </linearGradient>
    <linearGradient id="linear-gradient-71" x1="1851" y1="399" x2="1851" y2="413" gradientTransform="translate(0 1202) scale(1 -1)" gradientUnits="userSpaceOnUse">
      <stop offset="0" stop-color="#043d00"/>
      <stop offset=".4" stop-color="#15b700"/>
      <stop offset="1" stop-color="#3cff00"/>
    </linearGradient>
    <linearGradient id="linear-gradient-72" x1="1851" y1="420" x2="1851" y2="434" gradientTransform="translate(0 1202) scale(1 -1)" gradientUnits="userSpaceOnUse">
      <stop offset="0" stop-color="#043d00"/>
      <stop offset=".4" stop-color="#15b700"/>
      <stop offset="1" stop-color="#3cff00"/>
    </linearGradient>
    <linearGradient id="linear-gradient-73" x1="1851" y1="441" x2="1851" y2="455" gradientTransform="translate(0 1202) scale(1 -1)" gradientUnits="userSpaceOnUse">
      <stop offset="0" stop-color="#043d00"/>
      <stop offset=".4" stop-color="#15b700"/>
      <stop offset="1" stop-color="#3cff00"/>
    </linearGradient>
    <linearGradient id="linear-gradient-74" x1="1851" y1="462" x2="1851" y2="476" gradientTransform="translate(0 1202) scale(1 -1)" gradientUnits="userSpaceOnUse">
      <stop offset="0" stop-color="#043d00"/>
      <stop offset=".4" stop-color="#15b700"/>
      <stop offset="1" stop-color="#3cff00"/>
    </linearGradient>
    <linearGradient id="linear-gradient-75" x1="1851" y1="483" x2="1851" y2="497" gradientTransform="translate(0 1202) scale(1 -1)" gradientUnits="userSpaceOnUse">
      <stop offset="0" stop-color="#043d00"/>
      <stop offset=".4" stop-color="#15b700"/>
      <stop offset="1" stop-color="#3cff00"/>
    </linearGradient>
    <linearGradient id="linear-gradient-76" x1="1851" y1="504" x2="1851" y2="518" gradientTransform="translate(0 1202) scale(1 -1)" gradientUnits="userSpaceOnUse">
      <stop offset="0" stop-color="#043d00"/>
      <stop offset=".4" stop-color="#15b700"/>
      <stop offset="1" stop-color="#3cff00"/>
    </linearGradient>
    <linearGradient id="linear-gradient-77" x1="1851" y1="525" x2="1851" y2="539" gradientTransform="translate(0 1202) scale(1 -1)" gradientUnits="userSpaceOnUse">
      <stop offset="0" stop-color="#043d00"/>
      <stop offset=".4" stop-color="#15b700"/>
      <stop offset="1" stop-color="#3cff00"/>
    </linearGradient>
    <linearGradient id="linear-gradient-78" x1="1851" y1="546" x2="1851" y2="560" gradientTransform="translate(0 1202) scale(1 -1)" gradientUnits="userSpaceOnUse">
      <stop offset="0" stop-color="#7f7f7f"/>
      <stop offset=".8" stop-color="#fafafa"/>
    </linearGradient>
    <linearGradient id="linear-gradient-79" x1="1851" y1="567" x2="1851" y2="581" gradientTransform="translate(0 1202) scale(1 -1)" gradientUnits="userSpaceOnUse">
      <stop offset="0" stop-color="#7f7f7f"/>
      <stop offset=".8" stop-color="#fafafa"/>
    </linearGradient>
    <linearGradient id="linear-gradient-80" x1="1851" y1="588" x2="1851" y2="602" gradientTransform="translate(0 1202) scale(1 -1)" gradientUnits="userSpaceOnUse">
      <stop offset="0" stop-color="#7f7f7f"/>
      <stop offset=".8" stop-color="#fafafa"/>
    </linearGradient>
    <linearGradient id="linear-gradient-81" x1="1816.5" y1="323" x2="1816.5" y2="92" gradientTransform="translate(0 1202) scale(1 -1)" gradientUnits="userSpaceOnUse">
      <stop offset="0" stop-color="#343434"/>
      <stop offset="1" stop-color="#000"/>
    </linearGradient>
    <clipPath id="clippath-1">
      <path class="cls-1" d="M1878.5,10.7c1.9-1.1,4.1-1.1,6,0l18.7,10.8c1.9,1.1,3,3.1,3,5.2v21.6c0,2.1-1.1,4.1-3,5.2l-18.7,10.8c-1.9,1.1-4.1,1.1-6,0l-18.7-10.8c-1.9-1.1-3-3.1-3-5.2v-21.6c0-2.1,1.1-4.1,3-5.2l18.7-10.8Z"/>
    </clipPath>
    <radialGradient id="radial-gradient" cx="-273.1" cy="1926.8" fx="-273.1" fy="1926.8" r="1" gradientTransform="translate(-19751.7 3103.6) rotate(90) scale(11.2 -11.2)" gradientUnits="userSpaceOnUse">
      <stop offset="0" stop-color="#fff"/>
      <stop offset="1" stop-color="#737373"/>
    </radialGradient>
    <clipPath id="clippath-4">
      <path class="cls-1" d="M1866.3,1133.4c1.1-1.8,3.1-2.9,5.3-2.8l21.6.6c2.1,0,4.1,1.3,5.1,3.2l10.2,19c1,1.9,1,4.2-.2,6l-11.3,18.4c-1.1,1.8-3.1,2.9-5.3,2.8l-21.6-.6c-2.1,0-4.1-1.3-5.1-3.2l-10.2-19c-1-1.9-1-4.2.2-6l11.3-18.4Z"/>
    </clipPath>
    <radialGradient id="radial-gradient-2" cx="-266.4" cy="1893.8" fx="-266.4" fy="1893.8" r="1" gradientTransform="translate(-15405.3 13891.5) rotate(61.6) scale(11.2 -11.2)" gradientUnits="userSpaceOnUse">
      <stop offset="0" stop-color="#fff"/>
      <stop offset="1" stop-color="#737373"/>
    </radialGradient>
    <clipPath id="clippath-7">
      <path class="cls-1" d="M21.5,57.4c-2-.7-3.5-2.4-4-4.5l-4.2-21.2c-.4-2.1.3-4.3,1.9-5.7l16.2-14.2c1.6-1.4,3.9-1.9,5.9-1.2l20.4,6.9c2,.7,3.5,2.4,4,4.5l4.2,21.2c.4,2.1-.3,4.3-1.9,5.7l-16.2,14.2c-1.6,1.4-3.9,1.9-5.9,1.2l-20.4-6.9Z"/>
    </clipPath>
    <radialGradient id="radial-gradient-3" cx="-353.4" cy="1830.8" fx="-353.4" fy="1830.8" r="1" gradientTransform="translate(16584.1 12864.4) rotate(-41.3) scale(11.2 -11.2)" gradientUnits="userSpaceOnUse">
      <stop offset="0" stop-color="#fff"/>
      <stop offset="1" stop-color="#737373"/>
    </radialGradient>
    <clipPath id="clippath-10">
      <path class="cls-1" d="M55.3,1134c2.1.5,3.7,2.1,4.3,4.1l6.1,20.7c.6,2.1,0,4.3-1.4,5.8l-14.9,15.6c-1.5,1.6-3.7,2.2-5.8,1.7l-21-5.1c-2.1-.5-3.7-2.1-4.3-4.1l-6.1-20.7c-.6-2.1,0-4.3,1.4-5.8l14.9-15.6c1.5-1.6,3.7-2.2,5.8-1.7l21,5.1Z"/>
    </clipPath>
    <radialGradient id="radial-gradient-4" cx="-310.7" cy="1961.3" fx="-310.7" fy="1961.3" r="1" gradientTransform="translate(-18322.5 -11489.6) rotate(133.6) scale(11.2 -11.2)" gradientUnits="userSpaceOnUse">
      <stop offset="0" stop-color="#fff"/>
      <stop offset="1" stop-color="#737373"/>
    </radialGradient>
    <linearGradient id="linear-gradient-82" x1="28" y1="930" x2="28" y2="908" gradientTransform="translate(0 1202) scale(1 -1)" gradientUnits="userSpaceOnUse">
      <stop offset="0" stop-color="#fff"/>
      <stop offset="1" stop-color="#696969"/>
    </linearGradient>
    <linearGradient id="linear-gradient-83" x1="66" y1="849" x2="66" y2="827" gradientTransform="translate(0 1202) scale(1 -1)" gradientUnits="userSpaceOnUse">
      <stop offset="0" stop-color="#fff"/>
      <stop offset="1" stop-color="#696969"/>
    </linearGradient>
    <linearGradient id="linear-gradient-84" x1="28" y1="260" x2="28" y2="238" gradientTransform="translate(0 1202) scale(1 -1)" gradientUnits="userSpaceOnUse">
      <stop offset="0" stop-color="#fff"/>
      <stop offset="1" stop-color="#696969"/>
    </linearGradient>
    <linearGradient id="linear-gradient-85" x1="488" y1="1175" x2="488" y2="1153" gradientTransform="translate(0 1202) scale(1 -1)" gradientUnits="userSpaceOnUse">
      <stop offset="0" stop-color="#fff"/>
      <stop offset="1" stop-color="#696969"/>
    </linearGradient>
    <linearGradient id="linear-gradient-86" x1="915" y1="1153" x2="915" y2="1131" gradientTransform="translate(0 1202) scale(1 -1)" gradientUnits="userSpaceOnUse">
      <stop offset="0" stop-color="#fff"/>
      <stop offset="1" stop-color="#696969"/>
    </linearGradient>
    <linearGradient id="linear-gradient-87" x1="699" y1="1180" x2="699" y2="1158" gradientTransform="translate(0 1202) scale(1 -1)" gradientUnits="userSpaceOnUse">
      <stop offset="0" stop-color="#fff"/>
      <stop offset="1" stop-color="#696969"/>
    </linearGradient>
    <linearGradient id="linear-gradient-88" x1="1347" y1="1156" x2="1347" y2="1134" gradientTransform="translate(0 1202) scale(1 -1)" gradientUnits="userSpaceOnUse">
      <stop offset="0" stop-color="#fff"/>
      <stop offset="1" stop-color="#696969"/>
    </linearGradient>
    <linearGradient id="linear-gradient-89" x1="1114" y1="1163" x2="1114" y2="1141" gradientTransform="translate(0 1202) scale(1 -1)" gradientUnits="userSpaceOnUse">
      <stop offset="0" stop-color="#fff"/>
      <stop offset="1" stop-color="#696969"/>
    </linearGradient>
    <linearGradient id="linear-gradient-90" x1="1753" y1="1185" x2="1753" y2="1163" gradientTransform="translate(0 1202) scale(1 -1)" gradientUnits="userSpaceOnUse">
      <stop offset="0" stop-color="#fff"/>
      <stop offset="1" stop-color="#696969"/>
    </linearGradient>
    <linearGradient id="linear-gradient-91" x1="1140" y1="58" x2="1140" y2="36" gradientTransform="translate(0 1202) scale(1 -1)" gradientUnits="userSpaceOnUse">
      <stop offset="0" stop-color="#fff"/>
      <stop offset="1" stop-color="#696969"/>
    </linearGradient>
    <linearGradient id="linear-gradient-92" x1="788" y1="58" x2="788" y2="36" gradientTransform="translate(0 1202) scale(1 -1)" gradientUnits="userSpaceOnUse">
      <stop offset="0" stop-color="#fff"/>
      <stop offset="1" stop-color="#696969"/>
    </linearGradient>
    <linearGradient id="linear-gradient-93" x1="134" y1="47" x2="134" y2="25" gradientTransform="translate(0 1202) scale(1 -1)" gradientUnits="userSpaceOnUse">
      <stop offset="0" stop-color="#fff"/>
      <stop offset="1" stop-color="#696969"/>
    </linearGradient>
    <linearGradient id="linear-gradient-94" x1="1810" y1="40" x2="1810" y2="18" gradientTransform="translate(0 1202) scale(1 -1)" gradientUnits="userSpaceOnUse">
      <stop offset="0" stop-color="#fff"/>
      <stop offset="1" stop-color="#696969"/>
    </linearGradient>
    <linearGradient id="linear-gradient-95" x1="61" y1="204" x2="61" y2="182" gradientTransform="translate(0 1202) scale(1 -1)" gradientUnits="userSpaceOnUse">
      <stop offset="0" stop-color="#fff"/>
      <stop offset="1" stop-color="#696969"/>
    </linearGradient>
    <linearGradient id="linear-gradient-96" x1="1310" y1="40" x2="1310" y2="18" gradientTransform="translate(0 1202) scale(1 -1)" gradientUnits="userSpaceOnUse">
      <stop offset="0" stop-color="#fff"/>
      <stop offset="1" stop-color="#696969"/>
    </linearGradient>
    <linearGradient id="linear-gradient-97" x1="1608" y1="79" x2="1608" y2="57" gradientTransform="translate(0 1202) scale(1 -1)" gradientUnits="userSpaceOnUse">
      <stop offset="0" stop-color="#fff"/>
      <stop offset="1" stop-color="#696969"/>
    </linearGradient>
    <linearGradient id="linear-gradient-98" x1="61.2" y1="557.9" x2="25.2" y2="553.9" gradientTransform="translate(0 1202) scale(1 -1)" gradientUnits="userSpaceOnUse">
      <stop offset="0" stop-color="#790000"/>
      <stop offset=".6" stop-color="red"/>
      <stop offset="1" stop-color="#900"/>
    </linearGradient>
    <linearGradient id="linear-gradient-99" x1="805.5" y1="1147.1" x2="811.5" y2="1179.6" gradientTransform="translate(0 1202) scale(1 -1)" gradientUnits="userSpaceOnUse">
      <stop offset="0" stop-color="#0d5600"/>
      <stop offset=".6" stop-color="#0f1"/>
      <stop offset="1" stop-color="#056500"/>
    </linearGradient>
    <linearGradient id="linear-gradient-100" x1="63.2" y1="542.1" x2="33.7" y2="544.6" gradientTransform="translate(0 1202) scale(1 -1)" gradientUnits="userSpaceOnUse">
      <stop offset="0" stop-color="#797000"/>
      <stop offset=".5" stop-color="#fffb00"/>
      <stop offset="1" stop-color="#998700"/>
    </linearGradient>
    <linearGradient id="linear-gradient-101" x1="1475.2" y1="38.9" x2="1481.6" y2="77.5" gradientTransform="translate(0 1202) scale(1 -1)" gradientUnits="userSpaceOnUse">
      <stop offset="0" stop-color="#9c1d07"/>
      <stop offset=".5" stop-color="#ef4123"/>
      <stop offset="1" stop-color="#9f2712"/>
    </linearGradient>
    <linearGradient id="linear-gradient-102" x1="918.5" y1="1137.8" x2="916" y2="1177.8" gradientTransform="translate(0 1202) scale(1 -1)" gradientUnits="userSpaceOnUse">
      <stop offset="0" stop-color="#010a5a"/>
      <stop offset=".5" stop-color="#005eff"/>
      <stop offset="1" stop-color="#0d0165"/>
    </linearGradient>
    <linearGradient id="linear-gradient-103" x1="1433.7" y1="1152.9" x2="1432.7" y2="1193.4" gradientTransform="translate(0 1202) scale(1 -1)" gradientUnits="userSpaceOnUse">
      <stop offset="0" stop-color="#797000"/>
      <stop offset=".5" stop-color="#fffb00"/>
      <stop offset="1" stop-color="#998700"/>
    </linearGradient>
    <linearGradient id="linear-gradient-104" x1="461.4" y1="34" x2="460.4" y2="54" gradientTransform="translate(0 1202) scale(1 -1)" gradientUnits="userSpaceOnUse">
      <stop offset="0" stop-color="#010a5a"/>
      <stop offset=".5" stop-color="#005eff"/>
      <stop offset="1" stop-color="#0d0165"/>
    </linearGradient>
    <linearGradient id="linear-gradient-105" x1="1460.6" y1="38.1" x2="1457.1" y2="61.6" gradientTransform="translate(0 1202) scale(1 -1)" gradientUnits="userSpaceOnUse">
      <stop offset="0" stop-color="#0d5600"/>
      <stop offset=".6" stop-color="#0f1"/>
      <stop offset="1" stop-color="#056500"/>
    </linearGradient>
  </defs>
  <!-- Generator: Adobe Illustrator 28.7.1, SVG Export Plug-In . SVG Version: 1.2.0 Build 142)  -->
  <g>
    <g id="Layer_1">
      <g class="cls-126">
        <g>
          <rect class="cls-125" width="1920" height="1200"/>
          <rect class="cls-124" x="89" y="92" width="1741" height="1016"/>
          <path class="cls-40" d="M1920,0v1200H0V0h1920ZM91,1109h1738V91H91v1018Z"/>
          <rect class="cls-40" x="1445" y="49" width="424" height="234" rx="15" ry="15"/>
          <rect class="cls-40" x="1715" y="833" width="195" height="351" rx="15" ry="15"/>
          <rect class="cls-40" x="1715" y="558" width="195" height="309" rx="15" ry="15"/>
          <path class="cls-40" d="M0,283V14l427.2,26.9,27.1,80.2c1.7,5.1,1.3,10.7-1.1,15.5l-31.6,61.8c-2.7,5.3-7.7,9-13.5,10L0,283Z"/>
          <g class="cls-26">
            <rect class="cls-1" x="54.2" y="20.6" width="374.1" height="213.8"/>
          </g>
          <rect class="cls-31" x="1730" y="574" width="165" height="277"/>
          <g>
            <circle class="cls-43" cx="404.1" cy="190.1" r="7.5"/>
            <rect class="cls-39" x="402.9" y="185.1" width="2" height="11" transform="translate(48.3 460.7) rotate(-62.5)"/>
          </g>
          <g>
            <circle class="cls-38" cx="436.6" cy="126.6" r="7.5"/>
            <rect class="cls-37" x="430.7" y="125.3" width="11" height="2" transform="translate(47.4 360.9) rotate(-47.2)"/>
          </g>
          <g>
            <circle class="cls-34" cx="416.5" cy="75.5" r="7.5"/>
            <rect class="cls-35" x="410.9" y="74" width="11" height="2" transform="translate(-2 138) rotate(-18.8)"/>
          </g>
          <rect class="cls-122" x="1456" y="204.1" width="397.3" height="71.2"/>
          <rect class="cls-41" x="1461.9" y="219.5" width="73.5" height="38"/>
          <rect class="cls-47" x="1483.3" y="207.6" width="30.2" height="9.5"/>
          <rect class="cls-47" x="1633.9" y="207.6" width="28.5" height="9.5"/>
          <rect class="cls-47" x="1562.2" y="207.6" width="20.2" height="9.5"/>
          <rect class="cls-47" x="1698.6" y="220.7" width="13.6" height="7.7"/>
          <rect class="cls-47" x="1698.6" y="237.9" width="13.6" height="7.7"/>
          <rect class="cls-47" x="1811.8" y="207.6" width="22.5" height="9.5"/>
          <rect class="cls-47" x="1737.1" y="206.4" width="22.5" height="10.1"/>
          <rect class="cls-41" x="1548.5" y="219.5" width="48" height="38"/>
          <rect class="cls-41" x="1724.1" y="219.5" width="48" height="38"/>
          <rect class="cls-41" x="1798.8" y="219.5" width="48" height="38"/>
          <rect class="cls-41" x="1607.2" y="219.5" width="81.8" height="38"/>
          <rect class="cls-41" x="1588.8" y="265.7" width="131.7" height="9.5"/>
          <circle class="cls-44" cx="1705.4" cy="232.8" r="2.7"/>
          <circle class="cls-44" cx="1784.2" cy="231.6" r="2.7"/>
          <circle class="cls-44" cx="1784.2" cy="243.5" r="2.7"/>
          <circle class="cls-44" cx="1705.4" cy="250.6" r="2.7"/>
          <path class="cls-49" d="M1598.2,273.1v-4.7h.4v4.3h3.4v.4h-3.9ZM1607.4,273.1l-.7-1.2h-3.2l-.6,1.2h-.5l2.5-4.7h.5l2.5,4.7h-.5ZM1605.2,268.9l-1.4,2.7h2.8l-1.4-2.7ZM1612.6,269.1c0,0-.2,0-.3-.1-.1,0-.2,0-.4-.1s-.3,0-.5,0c-.2,0-.4,0-.6,0s-.5,0-.7,0c-.2,0-.4,0-.6.2-.2,0-.3.2-.3.3,0,.1-.1.2-.1.4s0,.2.1.3c0,0,.2.2.3.2.1,0,.3.1.5.2.2,0,.3.1.5.2.2,0,.4,0,.6.1.2,0,.4.1.6.2.2,0,.4.1.5.2.2,0,.3.2.4.2.1,0,.2.2.3.3,0,.1.1.3.1.4s0,.3,0,.5c0,.1-.2.2-.3.3-.1,0-.2.2-.4.2-.2,0-.3.1-.5.1-.2,0-.3,0-.5,0-.2,0-.4,0-.5,0-.4,0-.8,0-1.1,0-.3,0-.6-.1-.9-.2v-.5c.3.2.6.3,1,.4.3,0,.7.1,1.1.1s.5,0,.8,0c.2,0,.4,0,.6-.2.2,0,.3-.2.4-.3,0-.1.1-.2.1-.4s0-.2-.1-.3c0,0-.2-.2-.3-.3-.1,0-.3-.1-.4-.2-.2,0-.3-.1-.5-.2-.2,0-.4,0-.6-.1-.2,0-.4,0-.6-.2-.2,0-.4-.1-.5-.2-.2,0-.3-.1-.4-.2-.1,0-.2-.2-.3-.3,0-.1-.1-.3-.1-.4s0-.3,0-.4c0-.1.1-.2.2-.3.1,0,.2-.2.4-.2.1,0,.3-.1.4-.1.2,0,.3,0,.5,0,.2,0,.3,0,.5,0s.4,0,.5,0c.2,0,.3,0,.5,0,.2,0,.3,0,.5,0,.1,0,.3,0,.4.1v.5ZM1616.2,268.8v4.3h-.4v-4.3h-2.1v-.4h4.7v.4h-2.1ZM1623.8,268.8v4.3h-.4v-4.3h-2.1v-.4h4.7v.4h-2.1ZM1626.9,273.1v-4.7h.4v4.7h-.4ZM1634.9,273.1v-4l-2.6,4h-.4l-2.6-4v4h-.4v-4.7h.5l2.8,4.3,2.7-4.3h.5v4.7h-.4ZM1636.9,273.1v-4.7h3.9v.4h-3.5v1.6h3.3v.4h-3.3v1.9h3.5v.4h-4ZM1649.9,270.8c0,.3,0,.6,0,.8,0,.2-.1.4-.3.6-.1.2-.2.3-.4.4-.2.1-.3.2-.6.3-.2,0-.4.1-.7.2-.2,0-.5,0-.7,0h-2.4v-4.7h2.4c.4,0,.7,0,1.1.1.3,0,.6.2.9.4.2.2.4.4.6.7.1.3.2.7.2,1.1ZM1649.5,270.8c0-.3,0-.5,0-.7,0-.2-.1-.4-.2-.5,0-.1-.2-.3-.3-.4-.1,0-.3-.2-.5-.2-.2,0-.3-.1-.6-.1-.2,0-.4,0-.6,0h-2v3.9h2c.3,0,.6,0,.9,0,.3,0,.5-.2.7-.3.2-.1.3-.4.5-.6.1-.3.2-.6.2-1ZM1651.2,273.1v-4.7h3.9v.4h-3.4v1.6h3.3v.4h-3.3v1.9h3.5v.4h-4ZM1661,269.9c0,.2,0,.4-.1.6,0,.2-.2.3-.3.5-.2.1-.4.2-.6.3-.3,0-.6,0-.9,0h-2.1v1.8h-.4v-4.7h2.5c.4,0,.7,0,.9,0,.3,0,.5.2.6.3.2.1.3.3.3.5,0,.2.1.4.1.6ZM1660.6,269.9c0-.2,0-.4-.1-.5,0-.1-.2-.2-.3-.3-.2,0-.3-.1-.6-.1-.2,0-.5,0-.8,0h-1.8v2.1h1.8c.1,0,.3,0,.4,0,.2,0,.3,0,.4,0,.1,0,.3,0,.4,0,.1,0,.2,0,.3-.2,0,0,.2-.2.2-.3,0-.1,0-.3,0-.5ZM1666,273.1l-.6-1.2h-3.2l-.7,1.2h-.5l2.5-4.7h.5l2.5,4.7h-.5ZM1663.7,268.9l-1.4,2.7h2.8l-1.4-2.7ZM1667.8,271.1v2h-.4v-4.7h2.3c.3,0,.7,0,.9,0,.3,0,.5.1.6.3.2.1.3.3.4.4,0,.2.1.4.1.6,0,.4,0,.6-.3.8-.2.2-.5.4-.9.4l1.6,2.1h-.5l-1.5-2c0,0-.1,0-.2,0,0,0-.1,0-.2,0h-1.9ZM1671.3,269.8c0-.2,0-.4-.1-.5,0-.1-.2-.2-.3-.3-.2,0-.4-.1-.6-.1-.3,0-.6,0-.9,0h-1.5v1.9h1.4c.4,0,.7,0,.9,0,.3,0,.5,0,.6-.1.2,0,.3-.2.4-.3,0-.1.1-.3.1-.5ZM1675.1,268.8v4.3h-.4v-4.3h-2.1v-.4h4.7v.4h-2.1ZM1678.2,273.1v-4.7h3.9v.4h-3.4v1.6h3.3v.4h-3.3v1.9h3.5v.4h-4ZM1688.6,270.8c0,.3,0,.6,0,.8,0,.2-.2.4-.3.6-.1.2-.2.3-.4.4-.2.1-.4.2-.6.3-.2,0-.4.1-.7.2-.2,0-.5,0-.7,0h-2.4v-4.7h2.4c.4,0,.8,0,1.1.1.3,0,.6.2.9.4.2.2.4.4.6.7.1.3.2.7.2,1.1ZM1688.1,270.8c0-.3,0-.5,0-.7,0-.2-.1-.4-.2-.5,0-.1-.2-.3-.3-.4-.1,0-.3-.2-.5-.2-.2,0-.4-.1-.6-.1-.2,0-.4,0-.6,0h-2v3.9h2c.3,0,.6,0,.9,0,.3,0,.5-.2.7-.3.2-.1.3-.4.5-.6.1-.3.2-.6.2-1ZM1694.4,268.8v4.3h-.4v-4.3h-2.1v-.4h4.7v.4h-2.1ZM1697.4,273.1v-4.7h.4v4.7h-.4ZM1705.4,273.1v-4l-2.6,4h-.4l-2.6-4v4h-.4v-4.7h.5l2.8,4.3,2.7-4.3h.4v4.7h-.4ZM1707.4,273.1v-4.7h3.9v.4h-3.4v1.6h3.3v.4h-3.3v1.9h3.5v.4h-4Z"/>
          <path class="cls-49" d="M1490,214.4v-3.4l-2.2,3.4h-.3l-2.2-3.4v3.4h-.4v-4h.4l2.4,3.6,2.3-3.6h.4v4h-.4ZM1496.6,212.4c0,.4,0,.7-.2.9-.1.3-.3.5-.5.6-.2.2-.5.3-.8.4-.3,0-.7.1-1,.1s-.7,0-1-.1c-.3,0-.6-.2-.8-.4-.2-.2-.4-.4-.5-.6-.1-.3-.2-.6-.2-.9s0-.5,0-.7c0-.2.1-.4.2-.5.1-.2.2-.3.4-.4.2-.1.3-.2.5-.3.2,0,.4-.1.6-.2.2,0,.5,0,.7,0,.4,0,.7,0,1,.1.3,0,.6.2.8.4.2.2.4.4.5.7.1.3.2.6.2.9ZM1496.2,212.4c0-.3,0-.5-.1-.8,0-.2-.2-.4-.4-.6-.2-.2-.4-.3-.7-.3-.3,0-.6-.1-.9-.1s-.7,0-.9.1c-.3,0-.5.2-.7.3-.2.1-.3.3-.4.6,0,.2-.1.5-.1.8s0,.5.1.8c0,.2.2.4.4.6.2.1.4.3.7.3.3,0,.6.1.9.1s.7,0,.9-.1c.3,0,.5-.2.7-.3.2-.1.3-.3.4-.6.1-.2.1-.5.1-.8ZM1501.5,214.4l-3.5-3.5v3.5h-.4v-4h.4l3.5,3.6v-3.6h.4v4h-.4ZM1504.9,210.7v3.7h-.4v-3.7h-1.8v-.3h4v.3h-1.8ZM1511.5,214.4v-2h-3.6v2h-.4v-4h.4v1.7h3.6v-1.7h.4v4h-.4Z"/>
          <path class="cls-121" d="M1472.2,237.8v-10.8l2.6,2.4v5.9l-2.6,2.5ZM1486.8,227v10.8l-2.6-2.4v-5.9l2.6-2.5ZM1472.2,238.6l2.6,2.5v5.9l-2.6,2.4v-10.8ZM1486.8,249.3l-2.6-2.5v-5.9l2.6-2.4v10.8ZM1476.1,234.1v-4.9l6.8,11.5v4.9l-6.8-11.5ZM1493.3,251.6l2.5-2.6h5.9l2.3,2.6h-10.7ZM1492.6,239.8l2.6,2.5v5.9l-2.6,2.4v-10.7ZM1504.8,250.5l-2.6-2.5v-5.9l2.6-2.4v10.7ZM1493.3,227.2h10.7l-2.4,2.6h-5.9l-2.5-2.6ZM1492.6,239v-10.7l2.6,2.3v6l-2.6,2.4ZM1504.8,228.2v10.7l-2.6-2.3v-5.9l2.6-2.5ZM1527.3,233.6l-8.2,16.3v-6.1l8.2-16.2v6ZM1508.5,233.6v-6l8.2,16.2v6.1l-8.2-16.3Z"/>
          <path class="cls-121" d="M1557.6,251.6l2.5-2.6h5.9l2.3,2.6h-10.7ZM1556.9,239.8l2.6,2.5v5.9l-2.6,2.4v-10.7ZM1569.1,250.5l-2.6-2.5v-5.9l2.6-2.4v10.7ZM1557.6,227.2h10.7l-2.4,2.6h-5.9l-2.5-2.6ZM1556.8,239v-10.7l2.6,2.3v6l-2.6,2.4ZM1569,228.2v10.7l-2.6-2.3v-5.9l2.6-2.5ZM1576.8,251.6l2.5-2.6h5.9l2.3,2.6h-10.7ZM1588.3,250.5l-2.6-2.5v-5.9l2.6-2.4v10.7ZM1578.8,240.7c-.6-.4-1.1-.9-1.7-1.3l1.7-1.3h6.6l1.7,1.3-1.7,1.3h-6.6ZM1576.8,227.2h10.7l-2.4,2.6h-5.9l-2.5-2.6ZM1576,239v-10.7l2.6,2.3v6l-2.6,2.4Z"/>
          <path class="cls-121" d="M1733.1,251.6l2.5-2.6h5.9l2.3,2.6h-10.7ZM1732.4,239.8l2.6,2.5v5.9l-2.6,2.4v-10.7ZM1744.6,250.5l-2.6-2.5v-5.9l2.6-2.4v10.7ZM1733.1,227.2h10.7l-2.4,2.6h-5.9l-2.5-2.6ZM1732.3,239v-10.7l2.6,2.3v6l-2.6,2.4ZM1744.5,228.2v10.7l-2.6-2.3v-5.9l2.6-2.5ZM1752.3,251.6l2.5-2.6h5.9l2.3,2.6h-10.7ZM1751.6,239.8l2.6,2.5v5.9l-2.6,2.4v-10.7ZM1763.8,250.5l-2.6-2.5v-5.9l2.6-2.4v10.7ZM1754.4,240.7c-.6-.4-1.1-.9-1.7-1.3l1.7-1.3h6.6l1.7,1.3-1.7,1.3h-6.6ZM1752.3,227.2h10.7l-2.4,2.6h-5.9l-2.5-2.6ZM1751.5,239v-10.7l2.6,2.3v6l-2.6,2.4Z"/>
          <path class="cls-121" d="M1807.8,251.6l2.5-2.6h5.9l2.3,2.6h-10.7ZM1807.1,239.8l2.6,2.5v5.9l-2.6,2.4v-10.7ZM1809.9,240.7c-.6-.4-1.1-.9-1.7-1.3l1.7-1.3h6.5l1.7,1.3-1.7,1.3h-6.5ZM1807.8,227.2h10.7l-2.4,2.6h-5.9l-2.5-2.6ZM1819.3,228.2v10.7l-2.6-2.3v-5.9l2.6-2.5ZM1827,251.6l2.5-2.6h5.9l2.3,2.6h-10.7ZM1826.3,239.8l2.6,2.5v5.9l-2.6,2.4v-10.7ZM1838.5,250.5l-2.6-2.5v-5.9l2.6-2.4v10.7ZM1829.1,240.7c-.6-.4-1.1-.9-1.7-1.3l1.7-1.3h6.6l1.7,1.3-1.7,1.3h-6.6ZM1827,227.2h10.7l-2.4,2.6h-5.9l-2.5-2.6ZM1826.2,239v-10.7l2.6,2.3v6l-2.6,2.4ZM1838.5,228.2v10.7l-2.6-2.3v-5.9l2.6-2.5Z"/>
          <path class="cls-121" d="M1625.5,250.5l-2.6-2.5v-5.9l2.6-2.4v10.7ZM1625.4,228.2v10.7l-2.6-2.3v-5.9l2.6-2.5ZM1644.7,250.5l-2.6-2.5v-5.9l2.6-2.4v10.7ZM1635.3,240.7c-.6-.4-1.1-.9-1.7-1.3l1.7-1.3h6.6l1.7,1.3-1.7,1.3h-6.6ZM1633.2,227.2h10.7l-2.4,2.6h-5.9l-2.5-2.6ZM1632.4,239v-10.7l2.6,2.3v6l-2.6,2.4ZM1644.6,228.2v10.7l-2.6-2.3v-5.9l2.6-2.5ZM1652.4,251.6l2.5-2.6h5.9l2.3,2.6h-10.7ZM1663.9,250.5l-2.6-2.5v-5.9l2.6-2.4v10.7ZM1654.4,240.7c-.6-.4-1.1-.9-1.7-1.3l1.7-1.3h6.6l1.7,1.3-1.7,1.3h-6.6ZM1652.4,227.2h10.7l-2.4,2.6h-5.9l-2.5-2.6ZM1651.6,239v-10.7l2.6,2.3v6l-2.6,2.4ZM1671.6,251.6l2.5-2.6h5.9l2.3,2.6h-10.7ZM1683.1,250.5l-2.6-2.5v-5.9l2.6-2.4v10.7ZM1673.7,240.7c-.6-.4-1.1-.9-1.7-1.3l1.7-1.3h6.5l1.7,1.3-1.7,1.3h-6.5ZM1671.6,227.2h10.7l-2.4,2.6h-5.9l-2.5-2.6ZM1670.8,239v-10.7l2.6,2.3v6l-2.6,2.4Z"/>
          <path class="cls-49" d="M1570.1,212.4c0,.3,0,.5,0,.7,0,.2-.1.4-.2.5,0,.1-.2.3-.4.4-.1.1-.3.2-.5.2-.2,0-.3.1-.6.1-.2,0-.4,0-.6,0h-2.1v-4h2.1c.3,0,.6,0,.9,0,.3,0,.5.2.7.3.2.2.4.4.5.6.1.3.2.6.2,1ZM1569.8,212.4c0-.2,0-.4,0-.6,0-.2,0-.3-.2-.4,0-.1-.2-.2-.3-.3-.1,0-.2-.2-.4-.2-.1,0-.3,0-.5-.1-.2,0-.3,0-.5,0h-1.7v3.4h1.7c.3,0,.6,0,.8,0,.2,0,.4-.1.6-.3.2-.1.3-.3.4-.5,0-.2.2-.5.2-.8ZM1574.9,214.4l-.6-1.1h-2.7l-.6,1.1h-.4l2.1-4h.4l2.1,4h-.4ZM1573,210.8l-1.2,2.3h2.4l-1.2-2.3ZM1577.3,212.7v1.7h-.4v-1.7l-1.9-2.3h.4l1.6,2,1.6-2h.4l-1.9,2.3Z"/>
          <path class="cls-49" d="M1641.1,212.7v1.7h-.4v-1.7l-1.9-2.3h.4l1.6,2,1.6-2h.4l-1.9,2.3ZM1643.9,214.4v-4h3.4v.3h-3v1.4h2.8v.3h-2.8v1.6h3v.3h-3.4ZM1652.1,214.4l-.6-1.1h-2.7l-.5,1.1h-.4l2.1-4h.4l2.1,4h-.4ZM1650.2,210.8l-1.2,2.3h2.4l-1.2-2.3ZM1653.7,212.7v1.7h-.4v-4h2c.3,0,.6,0,.8,0,.2,0,.4.1.5.2.1,0,.2.2.3.4,0,.1.1.3.1.5,0,.3,0,.5-.2.7-.2.2-.4.3-.8.4l1.4,1.8h-.5l-1.3-1.7c0,0-.1,0-.2,0,0,0-.1,0-.2,0h-1.6ZM1656.7,211.6c0-.2,0-.3,0-.4,0-.1-.2-.2-.3-.2-.1,0-.3,0-.5-.1-.2,0-.5,0-.8,0h-1.2v1.6h1.2c.3,0,.6,0,.8,0,.2,0,.4,0,.6-.1.1,0,.2-.1.3-.2,0-.1.1-.2.1-.4Z"/>
          <path class="cls-49" d="M1742,214.4v-2h-3.6v2h-.4v-4h.4v1.7h3.6v-1.7h.4v4h-.4ZM1748.6,212.4c0,.4,0,.7-.2.9-.1.3-.3.5-.5.6-.2.2-.5.3-.8.4-.3,0-.7.1-1,.1s-.7,0-1-.1c-.3,0-.6-.2-.8-.4-.2-.2-.4-.4-.5-.6-.1-.3-.2-.6-.2-.9s0-.5,0-.7c0-.2.1-.4.2-.5.1-.2.2-.3.4-.4.2-.1.3-.2.5-.3.2,0,.4-.1.6-.2.2,0,.5,0,.7,0,.4,0,.7,0,1,.1.3,0,.6.2.8.4.2.2.4.4.5.7.1.3.2.6.2.9ZM1748.2,212.4c0-.3,0-.5-.1-.8,0-.2-.2-.4-.4-.6-.2-.2-.4-.3-.7-.3-.3,0-.6-.1-.9-.1s-.7,0-1,.1c-.3,0-.5.2-.7.3-.2.1-.3.3-.4.6,0,.2-.2.5-.2.8s0,.5.2.8c0,.2.2.4.4.6.2.1.4.3.7.3.3,0,.6.1,1,.1s.7,0,.9-.1c.3,0,.5-.2.7-.3.2-.1.3-.3.4-.6,0-.2.1-.5.1-.8ZM1753.7,213.2c0,.2,0,.4-.1.6,0,.2-.2.3-.4.4-.2.1-.4.2-.6.3-.2,0-.6,0-.9,0s-.6,0-.9,0c-.2,0-.5-.2-.6-.3-.2-.1-.3-.3-.4-.4,0-.2-.1-.3-.1-.6v-2.8h.4v2.8c0,.1,0,.3,0,.4,0,.1.2.2.3.3.1,0,.3.2.5.2.2,0,.5,0,.7,0s.5,0,.7,0c.2,0,.4-.1.5-.2.1,0,.2-.2.3-.3,0-.1.1-.2.1-.4v-2.8h.4v2.8ZM1755.4,212.7v1.7h-.4v-4h2c.3,0,.6,0,.8,0,.2,0,.4.1.5.2.1,0,.2.2.3.4,0,.1,0,.3,0,.5,0,.3,0,.5-.2.7-.2.2-.4.3-.8.4l1.4,1.8h-.5l-1.3-1.7s-.1,0-.2,0c0,0-.1,0-.2,0h-1.6ZM1758.4,211.6c0-.2,0-.3,0-.4,0-.1-.2-.2-.3-.2-.1,0-.3,0-.5-.1-.2,0-.5,0-.8,0h-1.2v1.6h1.2c.3,0,.6,0,.8,0,.2,0,.4,0,.5-.1.1,0,.2-.1.3-.2,0-.1,0-.2,0-.4Z"/>
          <path class="cls-49" d="M1821.8,214.4v-3.4l-2.2,3.4h-.3l-2.2-3.4v3.4h-.4v-4h.4l2.4,3.6,2.3-3.6h.4v4h-.4ZM1823.5,214.4v-4h.4v4h-.4ZM1829.1,214.4l-3.5-3.5v3.5h-.4v-4h.4l3.5,3.6v-3.6h.4v4h-.4Z"/>
          <path class="cls-49" d="M1703.9,226.9l-.6-1.1h-2.7l-.5,1.1h-.4l2.1-4h.4l2.1,4h-.4ZM1701.9,223.2l-1.2,2.3h2.4l-1.2-2.3ZM1710.2,226.9v-3.4l-2.2,3.4h-.3l-2.2-3.4v3.4h-.4v-4h.4l2.4,3.6,2.3-3.6h.4v4h-.4Z"/>
          <path class="cls-49" d="M1704.1,241.3c0,.2,0,.4,0,.5,0,.2-.2.3-.3.4-.1.1-.3.2-.5.2-.2,0-.5,0-.8,0h-1.8v1.5h-.4v-4h2.2c.3,0,.6,0,.8,0,.2,0,.4.1.5.2.1.1.2.2.3.4,0,.2,0,.3,0,.5ZM1703.7,241.3c0-.2,0-.3,0-.5,0-.1-.2-.2-.3-.3-.1,0-.3-.1-.5-.1-.2,0-.4,0-.7,0h-1.6v1.8h1.6c0,0,.2,0,.3,0,.1,0,.2,0,.4,0,.1,0,.2,0,.3,0,.1,0,.2,0,.3-.1,0,0,.2-.2.2-.3,0-.1,0-.2,0-.4ZM1710.2,244.1v-3.4l-2.2,3.4h-.3l-2.2-3.4v3.4h-.4v-4h.4l2.4,3.6,2.3-3.6h.4v4h-.4Z"/>
          <g>
            <circle class="cls-33" cx="1743.5" cy="837.5" r="7.5"/>
            <rect class="cls-32" x="1738" y="836" width="11" height="2"/>
          </g>
          <g>
            <circle class="cls-36" cx="1743.5" cy="588.6" r="7.5"/>
            <rect class="cls-60" x="1738.4" y="587.9" width="11" height="2" transform="translate(315.6 1749.8) rotate(-57.8)"/>
          </g>
          <g>
            <circle class="cls-61" cx="1882.5" cy="837.5" r="7.5"/>
            <rect class="cls-62" x="1876.6" y="836.1" width="11" height="2" transform="translate(-52.5 1544.7) rotate(-44.1)"/>
          </g>
          <g>
            <circle class="cls-63" cx="1882.5" cy="588.6" r="7.5"/>
            <rect class="cls-65" x="1881.1" y="583.4" width="2" height="11" transform="translate(101.1 1435.9) rotate(-42.8)"/>
          </g>
          <circle class="cls-76" cx="1751" cy="817" r="7"/>
          <circle class="cls-77" cx="1751" cy="796" r="7"/>
          <circle class="cls-78" cx="1751" cy="775" r="7"/>
          <circle class="cls-79" cx="1751" cy="754" r="7"/>
          <circle class="cls-64" cx="1751" cy="733" r="7"/>
          <circle class="cls-67" cx="1751" cy="712" r="7"/>
          <circle class="cls-66" cx="1751" cy="691" r="7"/>
          <circle class="cls-68" cx="1751" cy="670" r="7"/>
          <circle class="cls-69" cx="1751" cy="649" r="7"/>
          <circle class="cls-85" cx="1751" cy="628" r="7"/>
          <circle class="cls-71" cx="1751" cy="607" r="7"/>
          <circle class="cls-86" cx="1826" cy="817" r="7"/>
          <circle class="cls-84" cx="1826" cy="796" r="7"/>
          <circle class="cls-70" cx="1826" cy="775" r="7"/>
          <circle class="cls-87" cx="1826" cy="754" r="7"/>
          <circle class="cls-75" cx="1826" cy="733" r="7"/>
          <circle class="cls-73" cx="1826" cy="712" r="7"/>
          <circle class="cls-72" cx="1826" cy="691" r="7"/>
          <circle class="cls-74" cx="1826" cy="670" r="7"/>
          <circle class="cls-81" cx="1826" cy="649" r="7"/>
          <circle class="cls-80" cx="1826" cy="628" r="7"/>
          <circle class="cls-82" cx="1826" cy="607" r="7"/>
          <circle class="cls-88" cx="1801" cy="817" r="7"/>
          <circle class="cls-83" cx="1801" cy="796" r="7"/>
          <circle class="cls-89" cx="1801" cy="775" r="7"/>
          <circle class="cls-51" cx="1801" cy="754" r="7"/>
          <circle class="cls-52" cx="1801" cy="733" r="7"/>
          <circle class="cls-53" cx="1801" cy="712" r="7"/>
          <circle class="cls-50" cx="1801" cy="691" r="7"/>
          <circle class="cls-58" cx="1801" cy="670" r="7"/>
          <circle class="cls-56" cx="1801" cy="649" r="7"/>
          <circle class="cls-59" cx="1801" cy="628" r="7"/>
          <circle class="cls-57" cx="1801" cy="607" r="7"/>
          <circle class="cls-55" cx="1876" cy="817" r="7"/>
          <circle class="cls-54" cx="1876" cy="796" r="7"/>
          <circle class="cls-97" cx="1876" cy="775" r="7"/>
          <circle class="cls-98" cx="1876" cy="754" r="7"/>
          <circle class="cls-99" cx="1876" cy="733" r="7"/>
          <circle class="cls-93" cx="1876" cy="712" r="7"/>
          <circle class="cls-94" cx="1876" cy="691" r="7"/>
          <circle class="cls-95" cx="1876" cy="670" r="7"/>
          <circle class="cls-96" cx="1876" cy="649" r="7"/>
          <circle class="cls-90" cx="1876" cy="628" r="7"/>
          <circle class="cls-91" cx="1876" cy="607" r="7"/>
          <circle class="cls-92" cx="1776" cy="817" r="7"/>
          <circle class="cls-107" cx="1776" cy="796" r="7"/>
          <circle class="cls-108" cx="1776" cy="775" r="7"/>
          <circle class="cls-109" cx="1776" cy="754" r="7"/>
          <circle class="cls-103" cx="1776" cy="733" r="7"/>
          <circle class="cls-104" cx="1776" cy="712" r="7"/>
          <circle class="cls-105" cx="1776" cy="691" r="7"/>
          <circle class="cls-106" cx="1776" cy="670" r="7"/>
          <circle class="cls-100" cx="1776" cy="649" r="7"/>
          <circle class="cls-101" cx="1776" cy="628" r="7"/>
          <circle class="cls-102" cx="1776" cy="607" r="7"/>
          <circle class="cls-119" cx="1851" cy="817" r="7"/>
          <circle class="cls-117" cx="1851" cy="796" r="7"/>
          <circle class="cls-113" cx="1851" cy="775" r="7"/>
          <circle class="cls-118" cx="1851" cy="754" r="7"/>
          <circle class="cls-115" cx="1851" cy="733" r="7"/>
          <circle class="cls-112" cx="1851" cy="712" r="7"/>
          <circle class="cls-116" cx="1851" cy="691" r="7"/>
          <circle class="cls-114" cx="1851" cy="670" r="7"/>
          <circle class="cls-111" cx="1851" cy="649" r="7"/>
          <circle class="cls-110" cx="1851" cy="628" r="7"/>
          <circle class="cls-120" cx="1851" cy="607" r="7"/>
          <rect class="cls-46" x="1733.5" y="883.5" width="166" height="222" rx="37.5" ry="37.5"/>
          <rect class="cls-122" x="1456" y="59" width="397.3" height="71.2"/>
          <rect class="cls-41" x="1461.9" y="74.4" width="73.5" height="38"/>
          <rect class="cls-47" x="1483.3" y="62.6" width="30.2" height="9.5"/>
          <rect class="cls-47" x="1633.9" y="62.6" width="28.5" height="9.5"/>
          <rect class="cls-47" x="1562.2" y="62.6" width="20.2" height="9.5"/>
          <rect class="cls-47" x="1698.6" y="75.6" width="13.6" height="7.7"/>
          <rect class="cls-47" x="1698.6" y="92.8" width="13.6" height="7.7"/>
          <rect class="cls-47" x="1811.8" y="62.6" width="22.5" height="9.5"/>
          <rect class="cls-47" x="1737.1" y="61.4" width="22.5" height="10.1"/>
          <rect class="cls-41" x="1548.5" y="74.4" width="48" height="38"/>
          <rect class="cls-41" x="1724.1" y="74.4" width="48" height="38"/>
          <rect class="cls-41" x="1798.8" y="74.4" width="48" height="38"/>
          <rect class="cls-41" x="1607.2" y="74.4" width="81.8" height="38"/>
          <rect class="cls-41" x="1603.7" y="120.7" width="102" height="9.5"/>
          <circle class="cls-47" cx="1705.4" cy="87.8" r="2.7"/>
          <circle class="cls-47" cx="1784.2" cy="86.6" r="2.7"/>
          <circle class="cls-47" cx="1784.2" cy="98.4" r="2.7"/>
          <circle class="cls-47" cx="1705.4" cy="105.6" r="2.7"/>
          <path class="cls-49" d="M1621.1,125.7c0,.3,0,.6,0,.8,0,.2-.2.4-.3.6-.1.2-.3.3-.4.4-.2.1-.3.2-.5.3-.2,0-.4.1-.7.2-.2,0-.5,0-.7,0h-2.4v-4.7h2.4c.4,0,.8,0,1.1.1.3,0,.6.2.9.4.2.2.4.4.6.7.1.3.2.7.2,1.1ZM1620.7,125.7c0-.3,0-.5,0-.7,0-.2-.1-.4-.2-.5,0-.1-.2-.3-.3-.4-.1,0-.3-.2-.5-.2-.2,0-.4-.1-.5-.1-.2,0-.4,0-.6,0h-2v3.9h2c.3,0,.7,0,.9,0,.3,0,.5-.2.7-.3.2-.2.3-.4.5-.6.1-.3.2-.6.2-1ZM1622.3,128.1v-4.7h3.9v.4h-3.4v1.6h3.3v.4h-3.3v1.9h3.5v.4h-4ZM1631.4,124.1c0,0-.2,0-.3-.1-.1,0-.2,0-.4-.1-.1,0-.3,0-.5,0-.2,0-.4,0-.6,0s-.5,0-.7,0c-.2,0-.4,0-.5.2-.2,0-.3.2-.3.3,0,.1-.1.2-.1.4s0,.2.1.3c0,0,.2.2.3.2.1,0,.3.1.4.2.2,0,.4.1.5.2.2,0,.4,0,.6.1.2,0,.4.1.6.2.2,0,.4.1.5.2.2,0,.3.2.5.2.1,0,.2.2.3.3,0,.1.1.3.1.4s0,.3-.1.5c0,.1-.2.2-.3.3-.1,0-.2.2-.4.2-.2,0-.3.1-.5.1-.2,0-.4,0-.5,0-.2,0-.4,0-.5,0-.4,0-.8,0-1.1,0-.3,0-.7-.1-.9-.2v-.5c.3.2.6.3,1,.4.3,0,.7.1,1.1.1s.5,0,.7,0c.2,0,.4,0,.6-.2.2,0,.3-.2.4-.3,0-.1.1-.2.1-.4s0-.2-.1-.3c0,0-.2-.2-.3-.3-.1,0-.3-.1-.4-.2-.2,0-.3-.1-.5-.2-.2,0-.4,0-.6-.1-.2,0-.4,0-.6-.2-.2,0-.4-.1-.5-.2-.2,0-.3-.1-.4-.2-.1,0-.2-.2-.3-.3,0-.1-.1-.3-.1-.4s0-.3,0-.4c0-.1.1-.2.2-.3.1,0,.2-.2.4-.2.1,0,.3-.1.4-.1.2,0,.3,0,.5,0,.2,0,.3,0,.5,0s.4,0,.5,0c.2,0,.3,0,.5,0,.2,0,.3,0,.4,0,.1,0,.3,0,.4.1v.5ZM1635,123.8v4.3h-.4v-4.3h-2.1v-.4h4.7v.4h-2.1ZM1638.1,128.1v-4.7h.4v4.7h-.4ZM1644.6,128.1l-4.1-4.1v4.1h-.4v-4.7h.5l4.1,4.1v-4.1h.4v4.7h-.5ZM1651,128.1l-.6-1.2h-3.2l-.7,1.2h-.5l2.5-4.7h.5l2.5,4.7h-.5ZM1648.7,123.8l-1.4,2.7h2.8l-1.4-2.7ZM1653.6,123.8v4.3h-.4v-4.3h-2.1v-.4h4.7v.4h-2.1ZM1656.6,128.1v-4.7h.4v4.7h-.4ZM1664.3,125.7c0,.4,0,.8-.2,1.1-.2.3-.4.6-.6.8-.3.2-.6.3-.9.4-.4,0-.8.1-1.2.1s-.8,0-1.2-.1c-.4,0-.7-.2-.9-.4-.3-.2-.5-.5-.6-.8-.2-.3-.2-.7-.2-1.1s0-.5,0-.8c0-.2.2-.4.3-.6.1-.2.3-.3.5-.5.2-.1.4-.2.6-.3.2,0,.5-.2.7-.2.3,0,.5,0,.8,0,.4,0,.8,0,1.2.1s.7.2.9.4c.3.2.5.5.6.8.2.3.2.7.2,1.1ZM1663.8,125.7c0-.3,0-.6-.2-.9-.1-.3-.3-.5-.5-.6-.2-.2-.5-.3-.8-.4-.3,0-.7-.1-1.1-.1s-.8,0-1.1.1c-.3,0-.6.2-.8.4-.2.2-.4.4-.5.6-.1.3-.2.5-.2.9s0,.6.2.9c.1.3.3.5.5.6.2.2.5.3.8.4.3,0,.7.1,1.1.1s.8,0,1.1-.1c.3,0,.6-.2.8-.4.2-.2.4-.4.5-.6,0-.3.2-.5.2-.9ZM1670,128.1l-4.1-4.1v4.1h-.4v-4.7h.5l4.1,4.1v-4.1h.4v4.7h-.5ZM1676.6,123.8v4.3h-.4v-4.3h-2.1v-.4h4.7v.4h-2.1ZM1679.7,128.1v-4.7h.4v4.7h-.4ZM1687.7,128.1v-4l-2.6,4h-.4l-2.6-4v4h-.4v-4.7h.5l2.8,4.3,2.7-4.3h.5v4.7h-.4ZM1689.7,128.1v-4.7h3.9v.4h-3.4v1.6h3.3v.4h-3.3v1.9h3.5v.4h-4Z"/>
          <path class="cls-49" d="M1490,69.4v-3.4l-2.2,3.4h-.3l-2.2-3.4v3.4h-.4v-4h.4l2.4,3.6,2.3-3.6h.4v4h-.4ZM1496.6,67.4c0,.4,0,.7-.2.9-.1.3-.3.5-.5.7-.2.2-.5.3-.8.4-.3,0-.7.1-1,.1s-.7,0-1-.1c-.3,0-.6-.2-.8-.4-.2-.2-.4-.4-.5-.7-.1-.3-.2-.6-.2-.9s0-.5,0-.7c0-.2.1-.4.2-.5.1-.2.2-.3.4-.4.2-.1.3-.2.5-.3.2,0,.4-.1.6-.2.2,0,.5,0,.7,0,.4,0,.7,0,1,.1.3,0,.6.2.8.4.2.2.4.4.5.7.1.3.2.6.2.9ZM1496.2,67.4c0-.3,0-.5-.1-.8,0-.2-.2-.4-.4-.6-.2-.2-.4-.3-.7-.3-.3,0-.6-.1-.9-.1s-.7,0-.9.1c-.3,0-.5.2-.7.3-.2.1-.3.3-.4.6,0,.2-.1.5-.1.8s0,.5.1.8c0,.2.2.4.4.6.2.1.4.3.7.3.3,0,.6.1.9.1s.7,0,.9-.1c.3,0,.5-.2.7-.3.2-.2.3-.3.4-.6.1-.2.1-.5.1-.8ZM1501.5,69.4l-3.5-3.5v3.5h-.4v-4h.4l3.5,3.6v-3.6h.4v4h-.4ZM1504.9,65.7v3.7h-.4v-3.7h-1.8v-.3h4v.3h-1.8ZM1511.5,69.4v-2h-3.6v2h-.4v-4h.4v1.7h3.6v-1.7h.4v4h-.4Z"/>
          <path class="cls-123" d="M1472.2,92.7v-10.8l2.6,2.4v5.9l-2.6,2.5ZM1486.8,81.9v10.8l-2.6-2.4v-5.9l2.6-2.5ZM1472.2,93.5l2.6,2.5v5.9l-2.6,2.4v-10.8ZM1486.8,104.3l-2.6-2.5v-5.9l2.6-2.4v10.8ZM1476.1,89v-4.9l6.8,11.5v4.9l-6.8-11.5ZM1493.3,106.5l2.5-2.6h5.9l2.3,2.6h-10.7ZM1492.6,94.7l2.6,2.5v5.9l-2.6,2.4v-10.7ZM1504.8,105.5l-2.6-2.5v-5.9l2.6-2.4v10.7ZM1493.3,82.1h10.7l-2.4,2.6h-5.9l-2.5-2.6ZM1492.6,93.9v-10.7l2.6,2.3v6l-2.6,2.4ZM1504.8,83.2v10.7l-2.6-2.3v-5.9l2.6-2.5ZM1527.3,88.6l-8.2,16.3v-6.1l8.2-16.2v6ZM1508.5,88.6v-6l8.2,16.2v6.1l-8.2-16.3Z"/>
          <path class="cls-123" d="M1557.6,106.5l2.5-2.6h5.9l2.3,2.6h-10.7ZM1556.9,94.7l2.6,2.5v5.9l-2.6,2.4v-10.7ZM1569.1,105.5l-2.6-2.5v-5.9l2.6-2.4v10.7ZM1557.6,82.1h10.7l-2.4,2.6h-5.9l-2.5-2.6ZM1556.8,93.9v-10.7l2.6,2.3v6l-2.6,2.4ZM1569,83.2v10.7l-2.6-2.3v-5.9l2.6-2.5ZM1576.8,106.5l2.5-2.6h5.9l2.3,2.6h-10.7ZM1588.3,105.5l-2.6-2.5v-5.9l2.6-2.4v10.7ZM1578.8,95.6c-.6-.4-1.1-.9-1.7-1.3l1.7-1.3h6.6l1.7,1.3-1.7,1.3h-6.6ZM1576.8,82.1h10.7l-2.4,2.6h-5.9l-2.5-2.6ZM1576,93.9v-10.7l2.6,2.3v6l-2.6,2.4Z"/>
          <path class="cls-123" d="M1733.1,106.5l2.5-2.6h5.9l2.3,2.6h-10.7ZM1732.4,94.7l2.6,2.5v5.9l-2.6,2.4v-10.7ZM1744.6,105.5l-2.6-2.5v-5.9l2.6-2.4v10.7ZM1733.1,82.1h10.7l-2.4,2.6h-5.9l-2.5-2.6ZM1732.3,93.9v-10.7l2.6,2.3v6l-2.6,2.4ZM1744.5,83.2v10.7l-2.6-2.3v-5.9l2.6-2.5ZM1752.3,106.5l2.5-2.6h5.9l2.3,2.6h-10.7ZM1751.6,94.7l2.6,2.5v5.9l-2.6,2.4v-10.7ZM1763.8,105.5l-2.6-2.5v-5.9l2.6-2.4v10.7ZM1754.4,95.6c-.6-.4-1.1-.9-1.7-1.3l1.7-1.3h6.6l1.7,1.3-1.7,1.3h-6.6ZM1752.3,82.1h10.7l-2.4,2.6h-5.9l-2.5-2.6ZM1751.5,93.9v-10.7l2.6,2.3v6l-2.6,2.4Z"/>
          <path class="cls-123" d="M1807.8,106.5l2.5-2.6h5.9l2.3,2.6h-10.7ZM1807.1,94.7l2.6,2.5v5.9l-2.6,2.4v-10.7ZM1809.9,95.6c-.6-.4-1.1-.9-1.7-1.3l1.7-1.3h6.5l1.7,1.3-1.7,1.3h-6.5ZM1807.8,82.1h10.7l-2.4,2.6h-5.9l-2.5-2.6ZM1819.3,83.2v10.7l-2.6-2.3v-5.9l2.6-2.5ZM1827,106.5l2.5-2.6h5.9l2.3,2.6h-10.7ZM1826.3,94.7l2.6,2.5v5.9l-2.6,2.4v-10.7ZM1838.5,105.5l-2.6-2.5v-5.9l2.6-2.4v10.7ZM1829.1,95.6c-.6-.4-1.1-.9-1.7-1.3l1.7-1.3h6.6l1.7,1.3-1.7,1.3h-6.6ZM1827,82.1h10.7l-2.4,2.6h-5.9l-2.5-2.6ZM1826.2,93.9v-10.7l2.6,2.3v6l-2.6,2.4ZM1838.5,83.2v10.7l-2.6-2.3v-5.9l2.6-2.5Z"/>
          <path class="cls-123" d="M1625.5,105.5l-2.6-2.5v-5.9l2.6-2.4v10.7ZM1625.4,83.2v10.7l-2.6-2.3v-5.9l2.6-2.5ZM1644.7,105.5l-2.6-2.5v-5.9l2.6-2.4v10.7ZM1635.3,95.6c-.6-.4-1.1-.9-1.7-1.3l1.7-1.3h6.6l1.7,1.3-1.7,1.3h-6.6ZM1633.2,82.1h10.7l-2.4,2.6h-5.9l-2.5-2.6ZM1632.4,93.9v-10.7l2.6,2.3v6l-2.6,2.4ZM1644.6,83.2v10.7l-2.6-2.3v-5.9l2.6-2.5ZM1652.4,106.5l2.5-2.6h5.9l2.3,2.6h-10.7ZM1663.9,105.5l-2.6-2.5v-5.9l2.6-2.4v10.7ZM1654.4,95.6c-.6-.4-1.1-.9-1.7-1.3l1.7-1.3h6.6l1.7,1.3-1.7,1.3h-6.6ZM1652.4,82.1h10.7l-2.4,2.6h-5.9l-2.5-2.6ZM1651.6,93.9v-10.7l2.6,2.3v6l-2.6,2.4ZM1671.6,106.5l2.5-2.6h5.9l2.3,2.6h-10.7ZM1683.1,105.5l-2.6-2.5v-5.9l2.6-2.4v10.7ZM1673.7,95.6c-.6-.4-1.1-.9-1.7-1.3l1.7-1.3h6.5l1.7,1.3-1.7,1.3h-6.5ZM1671.6,82.1h10.7l-2.4,2.6h-5.9l-2.5-2.6ZM1670.8,93.9v-10.7l2.6,2.3v6l-2.6,2.4Z"/>
          <path class="cls-49" d="M1570.1,67.4c0,.3,0,.5,0,.7,0,.2-.1.4-.2.5,0,.1-.2.3-.4.4-.1.1-.3.2-.5.2s-.3.1-.6.1c-.2,0-.4,0-.6,0h-2.1v-4h2.1c.3,0,.6,0,.9,0,.3,0,.5.2.7.3.2.2.4.4.5.6.1.3.2.6.2,1ZM1569.8,67.4c0-.2,0-.4,0-.6,0-.2,0-.3-.2-.4,0-.1-.2-.2-.3-.3-.1,0-.2-.2-.4-.2-.1,0-.3,0-.5-.1s-.3,0-.5,0h-1.7v3.4h1.7c.3,0,.6,0,.8,0,.2,0,.4-.1.6-.3.2-.1.3-.3.4-.5,0-.2.2-.5.2-.8ZM1574.9,69.4l-.6-1.1h-2.7l-.6,1.1h-.4l2.1-4h.4l2.1,4h-.4ZM1573,65.7l-1.2,2.3h2.4l-1.2-2.3ZM1577.3,67.7v1.7h-.4v-1.7l-1.9-2.3h.4l1.6,2,1.6-2h.4l-1.9,2.3Z"/>
          <path class="cls-49" d="M1641.1,67.7v1.7h-.4v-1.7l-1.9-2.3h.4l1.6,2,1.6-2h.4l-1.9,2.3ZM1643.9,69.4v-4h3.4v.3h-3v1.4h2.8v.3h-2.8v1.6h3v.3h-3.4ZM1652.1,69.4l-.6-1.1h-2.7l-.5,1.1h-.4l2.1-4h.4l2.1,4h-.4ZM1650.2,65.7l-1.2,2.3h2.4l-1.2-2.3ZM1653.7,67.6v1.7h-.4v-4h2c.3,0,.6,0,.8,0,.2,0,.4.1.5.2.1,0,.2.2.3.4,0,.1.1.3.1.5,0,.3,0,.5-.2.7-.2.2-.4.3-.8.4l1.4,1.8h-.5l-1.3-1.7c0,0-.1,0-.2,0,0,0-.1,0-.2,0h-1.6ZM1656.7,66.5c0-.2,0-.3,0-.4,0-.1-.2-.2-.3-.2s-.3,0-.5-.1c-.2,0-.5,0-.8,0h-1.2v1.6h1.2c.3,0,.6,0,.8,0,.2,0,.4,0,.6-.1.1,0,.2-.1.3-.2,0-.1.1-.2.1-.4Z"/>
          <path class="cls-49" d="M1742,68.4v-2h-3.6v2h-.4v-4h.4v1.7h3.6v-1.7h.4v4h-.4ZM1748.6,66.4c0,.4,0,.7-.2.9-.1.3-.3.5-.5.7-.2.2-.5.3-.8.4-.3,0-.7.1-1,.1s-.7,0-1-.1c-.3,0-.6-.2-.8-.4-.2-.2-.4-.4-.5-.7-.1-.3-.2-.6-.2-.9s0-.5,0-.7c0-.2.1-.4.2-.5.1-.2.2-.3.4-.4.2-.1.3-.2.5-.3.2,0,.4-.1.6-.2.2,0,.5,0,.7,0,.4,0,.7,0,1,.1.3,0,.6.2.8.4.2.2.4.4.5.7.1.3.2.6.2.9ZM1748.2,66.4c0-.3,0-.5-.1-.8,0-.2-.2-.4-.4-.6-.2-.2-.4-.3-.7-.3-.3,0-.6-.1-.9-.1s-.7,0-1,.1c-.3,0-.5.2-.7.3-.2.1-.3.3-.4.6,0,.2-.2.5-.2.8s0,.5.2.8c0,.2.2.4.4.6.2.1.4.3.7.3.3,0,.6.1,1,.1s.7,0,.9-.1c.3,0,.5-.2.7-.3.2-.2.3-.3.4-.6,0-.2.1-.5.1-.8ZM1753.7,67.1c0,.2,0,.4-.1.6,0,.2-.2.3-.4.4-.2.1-.4.2-.6.3-.2,0-.6,0-.9,0s-.6,0-.9,0c-.2,0-.5-.2-.6-.3-.2-.1-.3-.3-.4-.4,0-.2-.1-.3-.1-.6v-2.8h.4v2.8c0,.1,0,.3,0,.4,0,.1.2.2.3.3.1,0,.3.2.5.2.2,0,.5,0,.7,0s.5,0,.7,0c.2,0,.4-.1.5-.2.1,0,.2-.2.3-.3,0-.1.1-.2.1-.4v-2.8h.4v2.8ZM1755.4,66.6v1.7h-.4v-4h2c.3,0,.6,0,.8,0,.2,0,.4.1.5.2.1,0,.2.2.3.4,0,.1,0,.3,0,.5,0,.3,0,.5-.2.7-.2.2-.4.3-.8.4l1.4,1.8h-.5l-1.3-1.7s-.1,0-.2,0c0,0-.1,0-.2,0h-1.6ZM1758.4,65.5c0-.2,0-.3,0-.4,0-.1-.2-.2-.3-.2s-.3,0-.5-.1c-.2,0-.5,0-.8,0h-1.2v1.6h1.2c.3,0,.6,0,.8,0,.2,0,.4,0,.5-.1.1,0,.2-.1.3-.2,0-.1,0-.2,0-.4Z"/>
          <path class="cls-49" d="M1821.8,69.4v-3.4l-2.2,3.4h-.3l-2.2-3.4v3.4h-.4v-4h.4l2.4,3.6,2.3-3.6h.4v4h-.4ZM1823.5,69.4v-4h.4v4h-.4ZM1829.1,69.4l-3.5-3.5v3.5h-.4v-4h.4l3.5,3.6v-3.6h.4v4h-.4Z"/>
          <path class="cls-49" d="M1703.9,81.8l-.6-1.1h-2.7l-.5,1.1h-.4l2.1-4h.4l2.1,4h-.4ZM1701.9,78.2l-1.2,2.3h2.4l-1.2-2.3ZM1710.2,81.8v-3.4l-2.2,3.4h-.3l-2.2-3.4v3.4h-.4v-4h.4l2.4,3.6,2.3-3.6h.4v4h-.4Z"/>
          <path class="cls-49" d="M1704.1,96.2c0,.2,0,.4,0,.5,0,.2-.2.3-.3.4-.1.1-.3.2-.5.2-.2,0-.5,0-.8,0h-1.8v1.5h-.4v-4h2.2c.3,0,.6,0,.8,0,.2,0,.4.1.5.2.1.1.2.2.3.4,0,.2,0,.3,0,.5ZM1703.7,96.2c0-.2,0-.3,0-.5,0-.1-.2-.2-.3-.3-.1,0-.3-.1-.5-.1-.2,0-.4,0-.7,0h-1.6v1.8h1.6c0,0,.2,0,.3,0,.1,0,.2,0,.4,0,.1,0,.2,0,.3,0,.1,0,.2,0,.3-.1,0,0,.2-.2.2-.3,0-.1,0-.2,0-.4ZM1710.2,99v-3.4l-2.2,3.4h-.3l-2.2-3.4v3.4h-.4v-4h.4l2.4,3.6,2.3-3.6h.4v4h-.4Z"/>
          <rect class="cls-122" x="1456" y="131.5" width="397.3" height="71.2"/>
          <rect class="cls-41" x="1461.9" y="146.9" width="73.5" height="38"/>
          <rect class="cls-47" x="1483.3" y="135" width="30.2" height="9.5"/>
          <rect class="cls-47" x="1633.9" y="135" width="28.5" height="9.5"/>
          <rect class="cls-47" x="1562.2" y="135" width="20.2" height="9.5"/>
          <rect class="cls-47" x="1698.6" y="148.1" width="13.6" height="7.7"/>
          <rect class="cls-47" x="1698.6" y="165.3" width="13.6" height="7.7"/>
          <rect class="cls-47" x="1811.8" y="135" width="22.5" height="9.5"/>
          <rect class="cls-47" x="1737.1" y="133.8" width="22.5" height="10.1"/>
          <rect class="cls-41" x="1548.5" y="146.9" width="48" height="38"/>
          <rect class="cls-41" x="1724.1" y="146.9" width="48" height="38"/>
          <rect class="cls-41" x="1798.8" y="146.9" width="48" height="38"/>
          <rect class="cls-41" x="1607.2" y="146.9" width="81.8" height="38"/>
          <rect class="cls-41" x="1603.7" y="193.2" width="102" height="9.5"/>
          <circle class="cls-45" cx="1705.4" cy="160.2" r="2.7"/>
          <circle class="cls-45" cx="1784.2" cy="159.1" r="2.7"/>
          <circle class="cls-45" cx="1784.2" cy="170.9" r="2.7"/>
          <circle class="cls-45" cx="1705.4" cy="178" r="2.7"/>
          <path class="cls-49" d="M1629,197.3c0,.2,0,.4-.1.6,0,.2-.2.3-.4.5-.2.1-.4.2-.6.3-.3,0-.6,0-.9,0h-2.1v1.8h-.4v-4.7h2.5c.4,0,.7,0,.9,0,.3,0,.5.2.6.3.2.1.3.3.4.5,0,.2.1.4.1.6ZM1628.6,197.3c0-.2,0-.4-.1-.5,0-.1-.2-.2-.3-.3-.2,0-.3-.1-.6-.2-.2,0-.5,0-.8,0h-1.8v2.1h1.8c.1,0,.3,0,.4,0,.1,0,.3,0,.4,0,.1,0,.3,0,.4,0,.1,0,.2,0,.3-.2,0,0,.2-.2.2-.3,0-.1,0-.3,0-.5ZM1630.6,198.5v2h-.4v-4.7h2.3c.4,0,.7,0,.9,0,.3,0,.5.1.6.3.2.1.3.3.3.4,0,.2.1.4.1.6,0,.4,0,.6-.3.8-.2.2-.5.4-.9.4l1.6,2.1h-.5l-1.5-2c0,0-.1,0-.2,0,0,0-.1,0-.2,0h-1.9ZM1634.1,197.2c0-.2,0-.4-.1-.5,0-.1-.2-.2-.3-.3-.2,0-.4-.1-.6-.1-.3,0-.6,0-.9,0h-1.5v1.9h1.4c.4,0,.7,0,1,0,.3,0,.5,0,.6-.1.2,0,.3-.2.3-.3,0-.1.1-.3.1-.5ZM1636,200.6v-4.7h3.9v.4h-3.5v1.6h3.3v.4h-3.3v1.9h3.5v.4h-4ZM1645.1,196.6c0,0-.2,0-.3-.1-.1,0-.2,0-.4-.1-.1,0-.3,0-.5,0-.2,0-.4,0-.6,0s-.5,0-.7,0c-.2,0-.4,0-.6.1-.1,0-.3.2-.3.3,0,.1-.1.2-.1.4s0,.2.1.3c0,0,.2.2.3.2.1,0,.3.1.4.2.2,0,.3.1.5.2.2,0,.4,0,.6.1.2,0,.4.1.6.2.2,0,.4.1.5.2.2,0,.3.2.4.2.1,0,.2.2.3.3,0,.1.1.3.1.4s0,.3,0,.5c0,.1-.2.2-.3.3-.1,0-.2.2-.4.2-.1,0-.3.1-.5.1-.2,0-.3,0-.5,0-.2,0-.4,0-.5,0-.4,0-.8,0-1.1,0-.3,0-.7-.1-1-.2v-.5c.3.2.6.3,1,.4.4,0,.7.1,1.1.1s.5,0,.8,0,.4,0,.6-.1c.2,0,.3-.2.4-.3s.1-.2.1-.4,0-.2-.1-.3c0,0-.2-.2-.3-.3-.1,0-.3-.1-.4-.2-.2,0-.4-.1-.5-.2-.2,0-.4,0-.6-.1-.2,0-.4,0-.6-.2-.2,0-.4-.1-.5-.2-.2,0-.3-.1-.4-.2-.1,0-.2-.2-.3-.3,0-.1-.1-.3-.1-.4s0-.3,0-.4c0-.1.2-.2.2-.3,0,0,.2-.2.4-.2.1,0,.3-.1.4-.1.2,0,.3,0,.5,0,.2,0,.3,0,.5,0s.4,0,.5,0c.2,0,.3,0,.5,0,.2,0,.3,0,.4,0,.2,0,.3,0,.4.1v.5ZM1646.8,200.6v-4.7h3.9v.4h-3.4v1.6h3.3v.4h-3.3v1.9h3.5v.4h-4ZM1656.6,200.6l-4.1-4.1v4.1h-.4v-4.7h.5l4.1,4.1v-4.1h.4v4.7h-.5ZM1660.5,196.3v4.3h-.4v-4.3h-2.1v-.4h4.7v.4h-2.1ZM1668.1,196.3v4.3h-.4v-4.3h-2.1v-.4h4.7v.4h-2.1ZM1671.2,200.6v-4.7h.4v4.7h-.4ZM1679.2,200.6v-4l-2.6,4h-.4l-2.6-4v4h-.4v-4.7h.5l2.8,4.3,2.7-4.3h.5v4.7h-.4ZM1681.2,200.6v-4.7h3.9v.4h-3.4v1.6h3.3v.4h-3.3v1.9h3.5v.4h-4Z"/>
          <path class="cls-49" d="M1490,141.8v-3.4l-2.2,3.4h-.3l-2.2-3.4v3.4h-.4v-4h.4l2.4,3.6,2.3-3.6h.4v4h-.4ZM1496.6,139.8c0,.4,0,.7-.2.9-.1.3-.3.5-.5.7-.2.2-.5.3-.8.4-.3,0-.7.1-1,.1s-.7,0-1-.1c-.3,0-.6-.2-.8-.4-.2-.2-.4-.4-.5-.7-.1-.3-.2-.6-.2-.9s0-.5,0-.7c0-.2.1-.4.2-.5.1-.2.2-.3.4-.4.2-.1.3-.2.5-.3.2,0,.4-.1.6-.2.2,0,.5,0,.7,0,.4,0,.7,0,1,.1.3,0,.6.2.8.4.2.2.4.4.5.7.1.3.2.6.2.9ZM1496.2,139.8c0-.3,0-.5-.1-.8,0-.2-.2-.4-.4-.6-.2-.1-.4-.3-.7-.3-.3,0-.6-.1-.9-.1s-.7,0-.9.1c-.3,0-.5.2-.7.3-.2.1-.3.3-.4.6,0,.2-.1.5-.1.8s0,.5.1.8c0,.2.2.4.4.6.2.1.4.3.7.3.3,0,.6.1.9.1s.7,0,.9-.1c.3,0,.5-.2.7-.3.2-.2.3-.3.4-.6.1-.2.1-.5.1-.8ZM1501.5,141.8l-3.5-3.5v3.5h-.4v-4h.4l3.5,3.6v-3.6h.4v4h-.4ZM1504.9,138.2v3.7h-.4v-3.7h-1.8v-.3h4v.3h-1.8ZM1511.5,141.8v-2h-3.6v2h-.4v-4h.4v1.7h3.6v-1.7h.4v4h-.4Z"/>
          <path class="cls-45" d="M1472.2,165.2v-10.8l2.6,2.4v5.9l-2.6,2.5ZM1486.8,154.4v10.8l-2.6-2.4v-5.9l2.6-2.5ZM1472.2,166l2.6,2.5v5.9l-2.6,2.4v-10.8ZM1486.8,176.8l-2.6-2.5v-5.9l2.6-2.4v10.8ZM1476.1,161.5v-4.9l6.8,11.5v4.9l-6.8-11.5ZM1493.3,179l2.5-2.6h5.9l2.3,2.6h-10.7ZM1492.6,167.2l2.6,2.5v5.9l-2.6,2.4v-10.7ZM1504.8,178l-2.6-2.5v-5.9l2.6-2.4v10.7ZM1493.3,154.6h10.7l-2.4,2.6h-5.9l-2.5-2.6ZM1492.6,166.4v-10.7l2.6,2.3v6l-2.6,2.4ZM1504.8,155.7v10.7l-2.6-2.3v-5.9l2.6-2.5ZM1527.3,161l-8.2,16.3v-6.1l8.2-16.2v6ZM1508.5,161v-6l8.2,16.2v6.1l-8.2-16.3Z"/>
          <path class="cls-45" d="M1557.6,179l2.5-2.6h5.9l2.3,2.6h-10.7ZM1556.9,167.2l2.6,2.5v5.9l-2.6,2.4v-10.7ZM1569.1,178l-2.6-2.5v-5.9l2.6-2.4v10.7ZM1557.6,154.6h10.7l-2.4,2.6h-5.9l-2.5-2.6ZM1556.8,166.4v-10.7l2.6,2.3v6l-2.6,2.4ZM1569,155.7v10.7l-2.6-2.3v-5.9l2.6-2.5ZM1576.8,179l2.5-2.6h5.9l2.3,2.6h-10.7ZM1588.3,178l-2.6-2.5v-5.9l2.6-2.4v10.7ZM1578.8,168.1c-.6-.4-1.1-.9-1.7-1.3l1.7-1.3h6.6l1.7,1.3-1.7,1.3h-6.6ZM1576.8,154.6h10.7l-2.4,2.6h-5.9l-2.5-2.6ZM1576,166.4v-10.7l2.6,2.3v6l-2.6,2.4Z"/>
          <path class="cls-45" d="M1733.1,179l2.5-2.6h5.9l2.3,2.6h-10.7ZM1732.4,167.2l2.6,2.5v5.9l-2.6,2.4v-10.7ZM1744.6,178l-2.6-2.5v-5.9l2.6-2.4v10.7ZM1733.1,154.6h10.7l-2.4,2.6h-5.9l-2.5-2.6ZM1732.3,166.4v-10.7l2.6,2.3v6l-2.6,2.4ZM1744.5,155.7v10.7l-2.6-2.3v-5.9l2.6-2.5ZM1752.3,179l2.5-2.6h5.9l2.3,2.6h-10.7ZM1751.6,167.2l2.6,2.5v5.9l-2.6,2.4v-10.7ZM1763.8,178l-2.6-2.5v-5.9l2.6-2.4v10.7ZM1754.4,168.1c-.6-.4-1.1-.9-1.7-1.3l1.7-1.3h6.6l1.7,1.3-1.7,1.3h-6.6ZM1752.3,154.6h10.7l-2.4,2.6h-5.9l-2.5-2.6ZM1751.5,166.4v-10.7l2.6,2.3v6l-2.6,2.4Z"/>
          <path class="cls-45" d="M1807.8,179l2.5-2.6h5.9l2.3,2.6h-10.7ZM1807.1,167.2l2.6,2.5v5.9l-2.6,2.4v-10.7ZM1809.9,168.1c-.6-.4-1.1-.9-1.7-1.3l1.7-1.3h6.5l1.7,1.3-1.7,1.3h-6.5ZM1807.8,154.6h10.7l-2.4,2.6h-5.9l-2.5-2.6ZM1819.3,155.7v10.7l-2.6-2.3v-5.9l2.6-2.5ZM1827,179l2.5-2.6h5.9l2.3,2.6h-10.7ZM1826.3,167.2l2.6,2.5v5.9l-2.6,2.4v-10.7ZM1838.5,178l-2.6-2.5v-5.9l2.6-2.4v10.7ZM1829.1,168.1c-.6-.4-1.1-.9-1.7-1.3l1.7-1.3h6.6l1.7,1.3-1.7,1.3h-6.6ZM1827,154.6h10.7l-2.4,2.6h-5.9l-2.5-2.6ZM1826.2,166.4v-10.7l2.6,2.3v6l-2.6,2.4ZM1838.5,155.7v10.7l-2.6-2.3v-5.9l2.6-2.5Z"/>
          <path class="cls-45" d="M1625.5,178l-2.6-2.5v-5.9l2.6-2.4v10.7ZM1625.4,155.7v10.7l-2.6-2.3v-5.9l2.6-2.5ZM1644.7,178l-2.6-2.5v-5.9l2.6-2.4v10.7ZM1635.3,168.1c-.6-.4-1.1-.9-1.7-1.3l1.7-1.3h6.6l1.7,1.3-1.7,1.3h-6.6ZM1633.2,154.6h10.7l-2.4,2.6h-5.9l-2.5-2.6ZM1632.4,166.4v-10.7l2.6,2.3v6l-2.6,2.4ZM1644.6,155.7v10.7l-2.6-2.3v-5.9l2.6-2.5ZM1652.4,179l2.5-2.6h5.9l2.3,2.6h-10.7ZM1663.9,178l-2.6-2.5v-5.9l2.6-2.4v10.7ZM1654.4,168.1c-.6-.4-1.1-.9-1.7-1.3l1.7-1.3h6.6l1.7,1.3-1.7,1.3h-6.6ZM1652.4,154.6h10.7l-2.4,2.6h-5.9l-2.5-2.6ZM1651.6,166.4v-10.7l2.6,2.3v6l-2.6,2.4ZM1671.6,179l2.5-2.6h5.9l2.3,2.6h-10.7ZM1683.1,178l-2.6-2.5v-5.9l2.6-2.4v10.7ZM1673.7,168.1c-.6-.4-1.1-.9-1.7-1.3l1.7-1.3h6.5l1.7,1.3-1.7,1.3h-6.5ZM1671.6,154.6h10.7l-2.4,2.6h-5.9l-2.5-2.6ZM1670.8,166.4v-10.7l2.6,2.3v6l-2.6,2.4Z"/>
          <path class="cls-49" d="M1570.1,139.8c0,.3,0,.5,0,.7,0,.2-.1.4-.2.5,0,.1-.2.3-.4.4-.1.1-.3.2-.5.2-.2,0-.3.1-.6.1-.2,0-.4,0-.6,0h-2.1v-4h2.1c.3,0,.6,0,.9,0,.3,0,.5.2.7.3.2.2.4.4.5.6.1.3.2.6.2,1ZM1569.8,139.8c0-.2,0-.4,0-.6,0-.2,0-.3-.2-.4,0-.1-.2-.2-.3-.3-.1,0-.2-.2-.4-.2-.1,0-.3,0-.5-.1-.2,0-.3,0-.5,0h-1.7v3.4h1.7c.3,0,.6,0,.8,0,.2,0,.4-.1.6-.3.2-.1.3-.3.4-.5,0-.2.2-.5.2-.8ZM1574.9,141.8l-.6-1.1h-2.7l-.6,1.1h-.4l2.1-4h.4l2.1,4h-.4ZM1573,138.2l-1.2,2.3h2.4l-1.2-2.3ZM1577.3,140.1v1.7h-.4v-1.7l-1.9-2.3h.4l1.6,2,1.6-2h.4l-1.9,2.3Z"/>
          <path class="cls-49" d="M1641.1,140.1v1.7h-.4v-1.7l-1.9-2.3h.4l1.6,2,1.6-2h.4l-1.9,2.3ZM1643.9,141.8v-4h3.4v.3h-3v1.4h2.8v.3h-2.8v1.6h3v.3h-3.4ZM1652.1,141.8l-.6-1.1h-2.7l-.5,1.1h-.4l2.1-4h.4l2.1,4h-.4ZM1650.2,138.2l-1.2,2.3h2.4l-1.2-2.3ZM1653.7,140.1v1.7h-.4v-4h2c.3,0,.6,0,.8,0,.2,0,.4.1.5.2.1,0,.2.2.3.4,0,.1.1.3.1.5,0,.3,0,.5-.2.7-.2.2-.4.3-.8.4l1.4,1.8h-.5l-1.3-1.7c0,0-.1,0-.2,0,0,0-.1,0-.2,0h-1.6ZM1656.7,139c0-.2,0-.3,0-.4,0-.1-.2-.2-.3-.2-.1,0-.3,0-.5-.1-.2,0-.5,0-.8,0h-1.2v1.6h1.2c.3,0,.6,0,.8,0,.2,0,.4,0,.6-.1.1,0,.2-.1.3-.2,0-.1.1-.2.1-.4Z"/>
          <path class="cls-49" d="M1742,140.8v-2h-3.6v2h-.4v-4h.4v1.7h3.6v-1.7h.4v4h-.4ZM1748.6,138.8c0,.4,0,.7-.2.9-.1.3-.3.5-.5.7-.2.2-.5.3-.8.4-.3,0-.7.1-1,.1s-.7,0-1-.1c-.3,0-.6-.2-.8-.4-.2-.2-.4-.4-.5-.7-.1-.3-.2-.6-.2-.9s0-.5,0-.7c0-.2.1-.4.2-.5.1-.2.2-.3.4-.4.2-.1.3-.2.5-.3.2,0,.4-.1.6-.2.2,0,.5,0,.7,0,.4,0,.7,0,1,.1.3,0,.6.2.8.4.2.2.4.4.5.7.1.3.2.6.2.9ZM1748.2,138.8c0-.3,0-.5-.1-.8,0-.2-.2-.4-.4-.6-.2-.1-.4-.3-.7-.3-.3,0-.6-.1-.9-.1s-.7,0-1,.1c-.3,0-.5.2-.7.3-.2.1-.3.3-.4.6,0,.2-.2.5-.2.8s0,.5.2.8c0,.2.2.4.4.6.2.1.4.3.7.3.3,0,.6.1,1,.1s.7,0,.9-.1c.3,0,.5-.2.7-.3.2-.2.3-.3.4-.6,0-.2.1-.5.1-.8ZM1753.7,139.6c0,.2,0,.4-.1.6,0,.2-.2.3-.4.4-.2.1-.4.2-.6.3-.2,0-.6,0-.9,0s-.6,0-.9,0c-.2,0-.5-.2-.6-.3-.2-.1-.3-.3-.4-.4,0-.2-.1-.4-.1-.6v-2.8h.4v2.8c0,.1,0,.3,0,.4,0,.1.2.2.3.3s.3.2.5.2c.2,0,.5,0,.7,0s.5,0,.7,0c.2,0,.4-.1.5-.2s.2-.2.3-.3c0-.1.1-.2.1-.4v-2.8h.4v2.8ZM1755.4,139.1v1.7h-.4v-4h2c.3,0,.6,0,.8,0,.2,0,.4.1.5.2.1,0,.2.2.3.4,0,.1,0,.3,0,.5,0,.3,0,.5-.2.7-.2.2-.4.3-.8.4l1.4,1.8h-.5l-1.3-1.7s-.1,0-.2,0c0,0-.1,0-.2,0h-1.6ZM1758.4,138c0-.2,0-.3,0-.4,0-.1-.2-.2-.3-.2-.1,0-.3,0-.5-.1-.2,0-.5,0-.8,0h-1.2v1.6h1.2c.3,0,.6,0,.8,0,.2,0,.4,0,.5-.1.1,0,.2-.1.3-.2,0-.1,0-.2,0-.4Z"/>
          <path class="cls-49" d="M1821.8,141.8v-3.4l-2.2,3.4h-.3l-2.2-3.4v3.4h-.4v-4h.4l2.4,3.6,2.3-3.6h.4v4h-.4ZM1823.5,141.8v-4h.4v4h-.4ZM1829.1,141.8l-3.5-3.5v3.5h-.4v-4h.4l3.5,3.6v-3.6h.4v4h-.4Z"/>
          <path class="cls-49" d="M1703.9,154.3l-.6-1.1h-2.7l-.5,1.1h-.4l2.1-4h.4l2.1,4h-.4ZM1701.9,150.6l-1.2,2.3h2.4l-1.2-2.3ZM1710.2,154.3v-3.4l-2.2,3.4h-.3l-2.2-3.4v3.4h-.4v-4h.4l2.4,3.6,2.3-3.6h.4v4h-.4Z"/>
          <path class="cls-49" d="M1704.1,168.7c0,.2,0,.4,0,.5,0,.2-.2.3-.3.4-.1.1-.3.2-.5.2-.2,0-.5,0-.8,0h-1.8v1.5h-.4v-4h2.2c.3,0,.6,0,.8,0,.2,0,.4.1.5.2.1.1.2.2.3.4,0,.2,0,.3,0,.5ZM1703.7,168.7c0-.2,0-.3,0-.5,0-.1-.2-.2-.3-.3-.1,0-.3-.1-.5-.1-.2,0-.4,0-.7,0h-1.6v1.8h1.6c0,0,.2,0,.3,0,.1,0,.2,0,.4,0,.1,0,.2,0,.3,0,.1,0,.2,0,.3-.1,0,0,.2-.2.2-.3,0-.1,0-.2,0-.4ZM1710.2,171.5v-3.4l-2.2,3.4h-.3l-2.2-3.4v3.4h-.4v-4h.4l2.4,3.6,2.3-3.6h.4v4h-.4Z"/>
          <g>
            <path class="cls-1" d="M1878.5,10.7c1.9-1.1,4.1-1.1,6,0l18.7,10.8c1.9,1.1,3,3.1,3,5.2v21.6c0,2.1-1.1,4.1-3,5.2l-18.7,10.8c-1.9,1.1-4.1,1.1-6,0l-18.7-10.8c-1.9-1.1-3-3.1-3-5.2v-21.6c0-2.1,1.1-4.1,3-5.2l18.7-10.8Z"/>
            <path class="cls-42" d="M1880,27.1c.9-.5,2.1-.5,3,0l6.7,3.9c.9.5,1.5,1.5,1.5,2.6v7.8c0,1.1-.6,2.1-1.5,2.6l-6.7,3.9c-.9.5-2.1.5-3,0l-6.7-3.9c-.9-.5-1.5-1.5-1.5-2.6v-7.8c0-1.1.6-2.1,1.5-2.6l6.7-3.9Z"/>
          </g>
          <g>
            <path class="cls-1" d="M1866.3,1133.4c1.1-1.8,3.1-2.9,5.3-2.8l21.6.6c2.1,0,4.1,1.3,5.1,3.2l10.2,19c1,1.9,1,4.2-.2,6l-11.3,18.4c-1.1,1.8-3.1,2.9-5.3,2.8l-21.6-.6c-2.1,0-4.1-1.3-5.1-3.2l-10.2-19c-1-1.9-1-4.2.2-6l11.3-18.4Z"/>
            <path class="cls-29" d="M1875.4,1147.1c.6-.9,1.6-1.5,2.6-1.4l7.8.2c1.1,0,2,.6,2.5,1.6l3.7,6.8c.5.9.5,2.1,0,3l-4.1,6.6c-.6.9-1.6,1.5-2.6,1.4l-7.8-.2c-1.1,0-2-.6-2.5-1.6l-3.7-6.8c-.5-.9-.5-2.1,0-3l4.1-6.6Z"/>
          </g>
          <rect class="cls-48" x="1812" y="995" width="9" height="97"/>
          <rect class="cls-48" x="1806" y="951" width="97" height="9" transform="translate(-132.5 1591.2) rotate(-45)"/>
          <rect class="cls-48" x="1775" y="904" width="9" height="97" transform="translate(-152.3 1537.3) rotate(-45)"/>
          <rect class="cls-47" x="1743" y="1028" width="148" height="10"/>
          <path class="cls-49" d="M1773.6,1031.6c0,0-.2,0-.3-.1,0,0-.2,0-.3-.1-.1,0-.3,0-.4,0-.2,0-.3,0-.5,0s-.5,0-.6,0c-.2,0-.3,0-.5.1-.1,0-.2.1-.3.2,0,0,0,.2,0,.3s0,.2,0,.3c0,0,.2.1.2.2.1,0,.2.1.4.2.1,0,.3,0,.5.1.2,0,.3,0,.5.1.2,0,.3,0,.5.1.2,0,.3.1.5.2.2,0,.3.1.4.2.1,0,.2.2.3.3,0,.1,0,.2,0,.4s0,.3,0,.4c0,.1-.1.2-.2.3,0,0-.2.1-.3.2-.1,0-.3,0-.4.1-.1,0-.3,0-.5,0-.2,0-.3,0-.5,0-.3,0-.7,0-.9,0s-.6-.1-.8-.2v-.4c.3.2.5.3.8.3.3,0,.6,0,.9,0s.5,0,.6,0c.2,0,.4,0,.5-.1.1,0,.2-.1.3-.2,0,0,.1-.2.1-.4s0-.2,0-.3c0,0-.1-.2-.2-.2-.1,0-.2-.1-.4-.2-.1,0-.3,0-.4-.1-.2,0-.3,0-.5-.1-.2,0-.3,0-.5-.1-.2,0-.3-.1-.5-.2-.2,0-.3-.1-.4-.2-.1,0-.2-.2-.3-.3,0-.1,0-.2,0-.4s0-.2,0-.4c0-.1.1-.2.2-.3,0,0,.2-.1.3-.2.1,0,.2,0,.4-.1.1,0,.3,0,.4,0,.1,0,.3,0,.4,0s.3,0,.4,0c.1,0,.3,0,.4,0,.1,0,.3,0,.4,0,.1,0,.2,0,.4,0v.4ZM1779.1,1035v-1.9h-3.6v1.9h-.4v-4h.4v1.7h3.6v-1.7h.4v4h-.4ZM1780.8,1035v-4h.4v4h-.4ZM1782.5,1035v-4h3.3v.3h-3v1.4h2.8v.3h-2.8v1.6h3v.3h-3.4ZM1787,1035v-4h.4v3.7h2.9v.3h-3.3ZM1795.6,1033c0,.3,0,.5,0,.7,0,.2-.1.4-.2.5,0,.2-.2.3-.4.4-.1.1-.3.2-.5.2-.2,0-.4.1-.6.1-.2,0-.4,0-.6,0h-2.1v-4h2.1c.3,0,.6,0,.9,0,.3,0,.5.2.7.3.2.2.4.4.5.6s.2.6.2,1ZM1795.3,1033c0-.2,0-.4,0-.6,0-.2,0-.3-.2-.4,0-.1-.2-.2-.3-.3-.1,0-.2-.2-.4-.2-.1,0-.3,0-.5-.1s-.4,0-.5,0h-1.7v3.3h1.7c.3,0,.5,0,.8,0,.2,0,.4-.2.6-.3.2-.1.3-.3.4-.5,0-.2.1-.5.1-.8ZM1799,1035v-4h3.4v.3h-3v1.4h2.8v.3h-2.8v1.6h3v.3h-3.4ZM1805.3,1033.3v1.7h-.4v-1.7l-1.9-2.3h.4l1.6,2,1.6-2h.4l-1.9,2.3ZM1808.1,1035v-4h3.4v.3h-3v1.4h2.8v.3h-2.8v1.6h3v.3h-3.4ZM1815.8,1031.6c0,0-.2,0-.3-.1,0,0-.2,0-.3-.1-.1,0-.3,0-.4,0-.2,0-.3,0-.5,0s-.5,0-.6,0c-.2,0-.3,0-.5.1-.1,0-.2.1-.3.2,0,0,0,.2,0,.3s0,.2,0,.3c0,0,.2.1.3.2.1,0,.2.1.4.2.2,0,.3,0,.5.1.2,0,.3,0,.5.1.2,0,.3,0,.5.1.2,0,.3.1.5.2.2,0,.3.1.4.2.1,0,.2.2.3.3,0,.1,0,.2,0,.4s0,.3,0,.4c0,.1-.1.2-.2.3,0,0-.2.1-.3.2-.1,0-.3,0-.4.1-.2,0-.3,0-.5,0-.2,0-.3,0-.5,0-.3,0-.7,0-1,0-.3,0-.6-.1-.8-.2v-.4c.3.2.5.3.8.3.3,0,.6,0,.9,0s.4,0,.6,0c.2,0,.4,0,.5-.1.2,0,.3-.1.3-.2,0,0,.1-.2.1-.4s0-.2,0-.3c0,0-.1-.2-.3-.2-.1,0-.2-.1-.4-.2-.1,0-.3,0-.5-.1-.2,0-.3,0-.5-.1-.2,0-.3,0-.5-.1-.2,0-.3-.1-.5-.2-.1,0-.3-.1-.4-.2-.1,0-.2-.2-.3-.3,0-.1,0-.2,0-.4s0-.2,0-.4c0-.1.1-.2.2-.3,0,0,.2-.1.3-.2.1,0,.2,0,.4-.1.1,0,.3,0,.4,0,.1,0,.3,0,.4,0s.3,0,.4,0c.1,0,.3,0,.4,0,.1,0,.3,0,.4,0,.1,0,.2,0,.4,0v.4ZM1819.9,1031.3v1.4h2.7v.3h-2.7v2h-.4v-4h3.2v.3h-2.8ZM1824.1,1033.3v1.7h-.4v-4h2c.3,0,.6,0,.8,0,.2,0,.4.1.5.2.1,0,.2.2.3.4,0,.2,0,.3,0,.5,0,.3,0,.5-.2.7-.1.2-.4.3-.8.4l1.4,1.8h-.5l-1.3-1.7h-.2c0,0-.1,0-.2,0h-1.6ZM1827.1,1032.1c0-.2,0-.3,0-.4,0-.1-.2-.2-.3-.2-.1,0-.3,0-.5-.1s-.5,0-.8,0h-1.2v1.6h1.2c.3,0,.6,0,.8,0s.4,0,.5-.1c.1,0,.2-.1.3-.2,0-.1,0-.2,0-.4ZM1833.5,1033c0,.4,0,.7-.2.9-.1.3-.3.5-.5.6-.2.2-.5.3-.8.4-.3,0-.6.1-1,.1s-.7,0-1-.1c-.3,0-.6-.2-.8-.4-.2-.2-.4-.4-.5-.6-.1-.3-.2-.6-.2-.9s0-.5,0-.7c0-.2.1-.4.2-.5.1-.2.2-.3.4-.4.2-.1.3-.2.5-.3.2,0,.4-.1.6-.2.2,0,.4,0,.7,0,.4,0,.7,0,1,.1.3,0,.6.2.8.4.2.2.4.4.5.7.1.3.2.6.2.9ZM1833.1,1033c0-.3,0-.5-.1-.8,0-.2-.2-.4-.4-.5-.2-.2-.4-.3-.7-.3-.3,0-.6-.1-.9-.1s-.7,0-1,.1c-.3,0-.5.2-.7.3-.2.1-.3.3-.4.6,0,.2-.1.5-.1.8s0,.5.1.8c0,.2.2.4.4.6.2.1.4.3.7.3.3,0,.6.1,1,.1s.7,0,.9-.1.5-.2.7-.3c.2-.2.3-.3.4-.6,0-.2.1-.5.1-.8ZM1839.7,1035v-3.4l-2.2,3.4h-.3l-2.2-3.4v3.4h-.4v-4h.4l2.4,3.7,2.3-3.7h.4v4h-.4ZM1843.7,1035v-4h.4v3.7h2.9v.3h-3.3ZM1847.9,1035v-4h.4v4h-.4ZM1851.9,1030.9c.2,0,.4,0,.5,0,.2,0,.3,0,.5,0,.1,0,.3,0,.4.1.1,0,.3,0,.4.2v.4c-.1,0-.2-.1-.3-.2-.1,0-.3-.1-.4-.2-.2,0-.3,0-.5-.1-.2,0-.3,0-.5,0-.4,0-.7,0-1,.1-.3,0-.5.2-.7.4-.2.2-.3.3-.4.6,0,.2-.1.5-.1.7s0,.5.1.7c0,.2.2.4.4.6.2.2.4.3.7.4.3,0,.6.1,1,.1s.3,0,.4,0c.2,0,.3,0,.4,0,.1,0,.3,0,.4,0,0,0,.2,0,.3,0v-1.2h-1.6v-.3h2v1.8c-.1,0-.3,0-.4.1-.2,0-.3,0-.5,0-.2,0-.3,0-.5,0-.2,0-.3,0-.5,0-.4,0-.7,0-1-.1-.3,0-.6-.2-.8-.4-.2-.2-.4-.4-.6-.7-.1-.3-.2-.6-.2-.9s0-.4,0-.6c0-.2.2-.4.3-.5.1-.1.3-.3.4-.4.2-.1.3-.2.5-.3.2,0,.4-.1.6-.2.2,0,.5,0,.7,0ZM1859,1035v-1.9h-3.6v1.9h-.4v-4h.4v1.7h3.6v-1.7h.4v4h-.4ZM1862.4,1031.3v3.7h-.4v-3.7h-1.8v-.3h4v.3h-1.8Z"/>
          <g>
            <path class="cls-1" d="M21.5,57.4c-2-.7-3.5-2.4-4-4.5l-4.2-21.2c-.4-2.1.3-4.3,1.9-5.7l16.2-14.2c1.6-1.4,3.9-1.9,5.9-1.2l20.4,6.9c2,.7,3.5,2.4,4,4.5l4.2,21.2c.4,2.1-.3,4.3-1.9,5.7l-16.2,14.2c-1.6,1.4-3.9,1.9-5.9,1.2l-20.4-6.9Z"/>
            <path class="cls-28" d="M32.8,45.5c-1-.3-1.8-1.2-2-2.3l-1.5-7.6c-.2-1.1.2-2.1,1-2.8l5.8-5.1c.8-.7,1.9-.9,2.9-.6l7.4,2.5c1,.3,1.8,1.2,2,2.3l1.5,7.6c.2,1.1-.2,2.1-1,2.8l-5.8,5.1c-.8.7-1.9.9-2.9.6l-7.4-2.5Z"/>
          </g>
          <g>
            <path class="cls-1" d="M55.3,1134c2.1.5,3.7,2.1,4.3,4.1l6.1,20.7c.6,2.1,0,4.3-1.4,5.8l-14.9,15.6c-1.5,1.6-3.7,2.2-5.8,1.7l-21-5.1c-2.1-.5-3.7-2.1-4.3-4.1l-6.1-20.7c-.6-2.1,0-4.3,1.4-5.8l14.9-15.6c1.5-1.6,3.7-2.2,5.8-1.7l21,5.1Z"/>
            <path class="cls-27" d="M45.1,1147c1,.2,1.9,1,2.2,2.1l2.2,7.4c.3,1,0,2.1-.7,2.9l-5.3,5.6c-.7.8-1.8,1.1-2.9.8l-7.5-1.8c-1-.2-1.9-1-2.2-2.1l-2.2-7.4c-.3-1,0-2.1.7-2.9l5.3-5.6c.7-.8,1.8-1.1,2.9-.8l7.5,1.8Z"/>
          </g>
          <g>
            <circle cx="28" cy="283" r="11"/>
            <circle class="cls-7" cx="28" cy="283" r="15"/>
          </g>
          <g>
            <circle cx="66" cy="364" r="11"/>
            <circle class="cls-8" cx="66" cy="364" r="15"/>
          </g>
          <g>
            <circle cx="28" cy="953" r="11"/>
            <circle class="cls-16" cx="28" cy="953" r="15"/>
          </g>
          <g>
            <circle cx="488" cy="38" r="11"/>
            <circle class="cls-9" cx="488" cy="38" r="15"/>
          </g>
          <g>
            <circle cx="915" cy="60" r="11"/>
            <circle class="cls-15" cx="915" cy="60" r="15"/>
          </g>
          <g>
            <circle cx="699" cy="33" r="11"/>
            <circle class="cls-5" cx="699" cy="33" r="15"/>
          </g>
          <g>
            <circle cx="1347" cy="57" r="11"/>
            <circle class="cls-4" cx="1347" cy="57" r="15"/>
          </g>
          <g>
            <circle cx="1114" cy="50" r="11"/>
            <circle class="cls-6" cx="1114" cy="50" r="15"/>
          </g>
          <g>
            <circle cx="1753" cy="28" r="11"/>
            <circle class="cls-10" cx="1753" cy="28" r="15"/>
          </g>
          <g>
            <circle cx="1140" cy="1155" r="11"/>
            <circle class="cls-18" cx="1140" cy="1155" r="15"/>
          </g>
          <g>
            <circle cx="788" cy="1155" r="11"/>
            <circle class="cls-14" cx="788" cy="1155" r="15"/>
          </g>
          <g>
            <circle cx="134" cy="1166" r="11"/>
            <circle class="cls-11" cx="134" cy="1166" r="15"/>
          </g>
          <g>
            <circle cx="1810" cy="1173" r="11"/>
            <circle class="cls-12" cx="1810" cy="1173" r="15"/>
          </g>
          <g>
            <circle cx="61" cy="1009" r="11"/>
            <circle class="cls-13" cx="61" cy="1009" r="15"/>
          </g>
          <g>
            <circle cx="1310" cy="1173" r="11"/>
            <circle class="cls-19" cx="1310" cy="1173" r="15"/>
          </g>
          <g>
            <circle cx="1608" cy="1134" r="11"/>
            <circle class="cls-17" cx="1608" cy="1134" r="15"/>
          </g>
          <path class="cls-2" d="M28,283c-7,59.5-1.5,220.5,13.5,345.5,13.2,110,19.5,256.5,19.5,380.5"/>
          <path class="cls-3" d="M915,60c-27.5,0-61.9-9.7-104-21.5-50-14-94.5-14.5-112-5.5"/>
          <path class="cls-22" d="M66,364c-7,59.5,8,114-7.5,235-14.1,109.9-43.5,153-30.5,354"/>
          <path class="cls-23" d="M1810,1173c-122.5,10.8-222.5,9-307-11-133.8-31.7-156-53.5-363-7"/>
          <path class="cls-24" d="M1347,57c-92-18.8-264.5-46.5-429.5-31-106.9,10-272,58.5-429.5,12.2"/>
          <path class="cls-21" d="M1753,28c-122.5,9-199,0-316-6-137.3-7-122,16-323,28"/>
          <path class="cls-20" d="M788,1155c-116.5-13-185.5-10-315,0-107.1,8.3-236,17-339,10.9"/>
          <path class="cls-25" d="M1608,1134c-27.5,0-68-2-139.5,15.5-50.4,12.4-141,14.5-158.5,23.5"/>
        </g>
      </g>
      <image width="388" height="203" transform="translate(26.9 40.7)" xlink:href="../../../../../../../../Downloads/Mask group.png"/>
    </g>
  </g>
</svg>