<?xml version="1.0" encoding="UTF-8"?>
<svg xmlns="http://www.w3.org/2000/svg" xmlns:xlink="http://www.w3.org/1999/xlink" version="1.1" viewBox="0 0 166 276">
  <defs>
    <style>
      .cls-1 {
        fill: url(#linear-gradient-8);
      }

      .cls-2 {
        fill: url(#linear-gradient-7);
      }

      .cls-3 {
        fill: url(#linear-gradient-5);
      }

      .cls-4 {
        fill: url(#linear-gradient-6);
      }

      .cls-5 {
        fill: url(#linear-gradient-9);
      }

      .cls-6 {
        fill: url(#linear-gradient-4);
      }

      .cls-7 {
        fill: url(#linear-gradient-3);
      }

      .cls-8 {
        fill: url(#linear-gradient-2);
      }

      .cls-9 {
        fill: #d9d9d9;
      }

      .cls-10 {
        fill: url(#linear-gradient);
      }

      .cls-11 {
        fill: url(#linear-gradient-43);
      }

      .cls-12 {
        fill: url(#linear-gradient-40);
      }

      .cls-13 {
        fill: url(#linear-gradient-41);
      }

      .cls-14 {
        fill: url(#linear-gradient-42);
      }

      .cls-15 {
        fill: url(#linear-gradient-49);
      }

      .cls-16 {
        fill: url(#linear-gradient-48);
      }

      .cls-17 {
        fill: url(#linear-gradient-45);
      }

      .cls-18 {
        fill: url(#linear-gradient-47);
      }

      .cls-19 {
        fill: url(#linear-gradient-44);
      }

      .cls-20 {
        fill: url(#linear-gradient-46);
      }

      .cls-21 {
        fill: url(#linear-gradient-10);
      }

      .cls-22 {
        fill: url(#linear-gradient-11);
      }

      .cls-23 {
        fill: url(#linear-gradient-12);
      }

      .cls-24 {
        fill: url(#linear-gradient-13);
      }

      .cls-25 {
        fill: url(#linear-gradient-19);
      }

      .cls-26 {
        fill: url(#linear-gradient-14);
      }

      .cls-27 {
        fill: url(#linear-gradient-21);
      }

      .cls-28 {
        fill: url(#linear-gradient-20);
      }

      .cls-29 {
        fill: url(#linear-gradient-22);
      }

      .cls-30 {
        fill: url(#linear-gradient-23);
      }

      .cls-31 {
        fill: url(#linear-gradient-28);
      }

      .cls-32 {
        fill: url(#linear-gradient-25);
      }

      .cls-33 {
        fill: url(#linear-gradient-32);
      }

      .cls-34 {
        fill: url(#linear-gradient-31);
      }

      .cls-35 {
        fill: url(#linear-gradient-33);
      }

      .cls-36 {
        fill: url(#linear-gradient-30);
      }

      .cls-37 {
        fill: url(#linear-gradient-15);
      }

      .cls-38 {
        fill: url(#linear-gradient-16);
      }

      .cls-39 {
        fill: url(#linear-gradient-17);
      }

      .cls-40 {
        fill: url(#linear-gradient-18);
      }

      .cls-41 {
        fill: url(#linear-gradient-35);
      }

      .cls-42 {
        fill: url(#linear-gradient-34);
      }

      .cls-43 {
        fill: url(#linear-gradient-36);
      }

      .cls-44 {
        fill: url(#linear-gradient-38);
      }

      .cls-45 {
        fill: url(#linear-gradient-27);
      }

      .cls-46 {
        fill: url(#linear-gradient-24);
      }

      .cls-47 {
        fill: url(#linear-gradient-26);
      }

      .cls-48 {
        fill: url(#linear-gradient-29);
      }

      .cls-49 {
        fill: url(#linear-gradient-37);
      }

      .cls-50 {
        fill: url(#linear-gradient-39);
      }

      .cls-51 {
        fill: url(#linear-gradient-57);
      }

      .cls-52 {
        fill: url(#linear-gradient-58);
      }

      .cls-53 {
        fill: url(#linear-gradient-59);
      }

      .cls-54 {
        fill: url(#linear-gradient-53);
      }

      .cls-55 {
        fill: url(#linear-gradient-54);
      }

      .cls-56 {
        fill: url(#linear-gradient-55);
      }

      .cls-57 {
        fill: url(#linear-gradient-56);
      }

      .cls-58 {
        fill: url(#linear-gradient-50);
      }

      .cls-59 {
        fill: url(#linear-gradient-51);
      }

      .cls-60 {
        fill: url(#linear-gradient-52);
      }

      .cls-61 {
        fill: url(#linear-gradient-67);
      }

      .cls-62 {
        fill: url(#linear-gradient-68);
      }

      .cls-63 {
        fill: url(#linear-gradient-69);
      }

      .cls-64 {
        fill: url(#linear-gradient-63);
      }

      .cls-65 {
        fill: url(#linear-gradient-64);
      }

      .cls-66 {
        fill: url(#linear-gradient-65);
      }

      .cls-67 {
        fill: url(#linear-gradient-66);
      }

      .cls-68 {
        fill: url(#linear-gradient-60);
      }

      .cls-69 {
        fill: url(#linear-gradient-61);
      }

      .cls-70 {
        fill: url(#linear-gradient-62);
      }

      .cls-71 {
        fill: url(#linear-gradient-72);
      }

      .cls-72 {
        fill: url(#linear-gradient-74);
      }

      .cls-73 {
        fill: url(#linear-gradient-71);
      }

      .cls-74 {
        fill: url(#linear-gradient-73);
      }

      .cls-75 {
        fill: url(#linear-gradient-70);
      }
    </style>
    <linearGradient id="linear-gradient" x1="14.2" y1="1645.8" x2="14.2" y2="1660.8" gradientTransform="translate(0 -1390)" gradientUnits="userSpaceOnUse">
      <stop offset="0" stop-color="#757575"/>
      <stop offset=".4" stop-color="#8f8585"/>
      <stop offset="1" stop-color="#bababa"/>
    </linearGradient>
    <linearGradient id="linear-gradient-2" x1="8.7" y1="1652.8" x2="19.7" y2="1652.8" gradientTransform="translate(0 -1390)" gradientUnits="userSpaceOnUse">
      <stop offset="0" stop-color="#969696"/>
      <stop offset="1" stop-color="#fff"/>
    </linearGradient>
    <linearGradient id="linear-gradient-3" x1="1375.8" y1="-407.9" x2="1375.8" y2="-392.9" gradientTransform="translate(409.6 -1362.4) rotate(122.2)" xlink:href="#linear-gradient"/>
    <linearGradient id="linear-gradient-4" x1="1378.7" y1="-403.3" x2="1389.7" y2="-403.3" gradientTransform="translate(1398.1 -389.5) rotate(-180)" xlink:href="#linear-gradient-2"/>
    <linearGradient id="linear-gradient-5" x1="-684" y1="1159" x2="-684" y2="1174" gradientTransform="translate(-167.8 -1050.9) rotate(-44.1)" xlink:href="#linear-gradient"/>
    <linearGradient id="linear-gradient-6" x1="-689.2" y1="1170.2" x2="-678.2" y2="1170.2" gradientTransform="translate(836.1 -908.3)" xlink:href="#linear-gradient-2"/>
    <linearGradient id="linear-gradient-7" x1="-478.4" y1="-882.9" x2="-478.4" y2="-867.9" gradientTransform="translate(470.6 -931.5) rotate(-132.8)" xlink:href="#linear-gradient"/>
    <linearGradient id="linear-gradient-8" x1="-475.6" y1="-869.4" x2="-464.6" y2="-869.4" gradientTransform="translate(1022.3 -455) rotate(-90)" xlink:href="#linear-gradient-2"/>
    <linearGradient id="linear-gradient-9" x1="21.7" y1="1639.8" x2="21.7" y2="1625.8" gradientTransform="translate(0 -1390)" gradientUnits="userSpaceOnUse">
      <stop offset="0" stop-color="#043d00"/>
      <stop offset=".4" stop-color="#15b700"/>
      <stop offset="1" stop-color="#3cff00"/>
    </linearGradient>
    <linearGradient id="linear-gradient-10" y1="1618.8" y2="1604.8" xlink:href="#linear-gradient-9"/>
    <linearGradient id="linear-gradient-11" y1="1597.8" y2="1583.8" xlink:href="#linear-gradient-9"/>
    <linearGradient id="linear-gradient-12" y1="1576.8" y2="1562.8" xlink:href="#linear-gradient-9"/>
    <linearGradient id="linear-gradient-13" y1="1555.8" y2="1541.8" xlink:href="#linear-gradient-9"/>
    <linearGradient id="linear-gradient-14" x1="21.7" y1="1534.8" x2="21.7" y2="1520.8" gradientTransform="translate(0 -1390)" gradientUnits="userSpaceOnUse">
      <stop offset="0" stop-color="#7f7f7f"/>
      <stop offset=".8" stop-color="#fafafa"/>
    </linearGradient>
    <linearGradient id="linear-gradient-15" y1="1513.8" y2="1499.8" xlink:href="#linear-gradient-14"/>
    <linearGradient id="linear-gradient-16" y1="1492.8" y2="1478.8" xlink:href="#linear-gradient-14"/>
    <linearGradient id="linear-gradient-17" y1="1471.8" y2="1457.8" xlink:href="#linear-gradient-14"/>
    <linearGradient id="linear-gradient-18" y1="1450.8" y2="1436.8" xlink:href="#linear-gradient-14"/>
    <linearGradient id="linear-gradient-19" y1="1429.8" y2="1415.8" xlink:href="#linear-gradient-14"/>
    <linearGradient id="linear-gradient-20" x1="96.7" x2="96.7" xlink:href="#linear-gradient-9"/>
    <linearGradient id="linear-gradient-21" x1="96.7" y1="1618.8" x2="96.7" y2="1604.8" xlink:href="#linear-gradient-9"/>
    <linearGradient id="linear-gradient-22" x1="96.7" y1="1597.8" x2="96.7" y2="1583.8" xlink:href="#linear-gradient-9"/>
    <linearGradient id="linear-gradient-23" x1="96.7" y1="1576.8" x2="96.7" y2="1562.8" xlink:href="#linear-gradient-9"/>
    <linearGradient id="linear-gradient-24" x1="96.7" y1="1555.8" x2="96.7" y2="1541.8" xlink:href="#linear-gradient-9"/>
    <linearGradient id="linear-gradient-25" x1="96.7" x2="96.7" xlink:href="#linear-gradient-14"/>
    <linearGradient id="linear-gradient-26" x1="96.7" y1="1513.8" x2="96.7" y2="1499.8" xlink:href="#linear-gradient-14"/>
    <linearGradient id="linear-gradient-27" x1="96.7" y1="1492.8" x2="96.7" y2="1478.8" xlink:href="#linear-gradient-14"/>
    <linearGradient id="linear-gradient-28" x1="96.7" y1="1471.8" x2="96.7" y2="1457.8" xlink:href="#linear-gradient-14"/>
    <linearGradient id="linear-gradient-29" x1="96.7" y1="1450.8" x2="96.7" y2="1436.8" xlink:href="#linear-gradient-14"/>
    <linearGradient id="linear-gradient-30" x1="96.7" y1="1429.8" x2="96.7" y2="1415.8" xlink:href="#linear-gradient-14"/>
    <linearGradient id="linear-gradient-31" x1="71.7" x2="71.7" xlink:href="#linear-gradient-9"/>
    <linearGradient id="linear-gradient-32" x1="71.7" y1="1618.8" x2="71.7" y2="1604.8" xlink:href="#linear-gradient-9"/>
    <linearGradient id="linear-gradient-33" x1="71.7" y1="1597.8" x2="71.7" y2="1583.8" xlink:href="#linear-gradient-9"/>
    <linearGradient id="linear-gradient-34" x1="71.7" y1="1576.8" x2="71.7" y2="1562.8" xlink:href="#linear-gradient-9"/>
    <linearGradient id="linear-gradient-35" x1="71.7" y1="1555.8" x2="71.7" y2="1541.8" xlink:href="#linear-gradient-9"/>
    <linearGradient id="linear-gradient-36" x1="71.7" y1="1534.8" x2="71.7" y2="1520.8" xlink:href="#linear-gradient-9"/>
    <linearGradient id="linear-gradient-37" x1="71.7" y1="1513.8" x2="71.7" y2="1499.8" xlink:href="#linear-gradient-14"/>
    <linearGradient id="linear-gradient-38" x1="71.7" y1="1492.8" x2="71.7" y2="1478.8" xlink:href="#linear-gradient-14"/>
    <linearGradient id="linear-gradient-39" x1="71.7" y1="1471.8" x2="71.7" y2="1457.8" xlink:href="#linear-gradient-14"/>
    <linearGradient id="linear-gradient-40" x1="71.7" y1="1450.8" x2="71.7" y2="1436.8" xlink:href="#linear-gradient-14"/>
    <linearGradient id="linear-gradient-41" x1="71.7" y1="1429.8" x2="71.7" y2="1415.8" xlink:href="#linear-gradient-14"/>
    <linearGradient id="linear-gradient-42" x1="146.7" x2="146.7" xlink:href="#linear-gradient-9"/>
    <linearGradient id="linear-gradient-43" x1="146.7" y1="1618.8" x2="146.7" y2="1604.8" xlink:href="#linear-gradient-9"/>
    <linearGradient id="linear-gradient-44" x1="146.7" y1="1597.8" x2="146.7" y2="1583.8" xlink:href="#linear-gradient-9"/>
    <linearGradient id="linear-gradient-45" x1="146.7" y1="1576.8" x2="146.7" y2="1562.8" xlink:href="#linear-gradient-9"/>
    <linearGradient id="linear-gradient-46" x1="146.7" y1="1555.8" x2="146.7" y2="1541.8" xlink:href="#linear-gradient-9"/>
    <linearGradient id="linear-gradient-47" x1="146.7" y1="1534.8" x2="146.7" y2="1520.8" xlink:href="#linear-gradient-9"/>
    <linearGradient id="linear-gradient-48" x1="146.7" y1="1513.8" x2="146.7" y2="1499.8" xlink:href="#linear-gradient-14"/>
    <linearGradient id="linear-gradient-49" x1="146.7" y1="1492.8" x2="146.7" y2="1478.8" xlink:href="#linear-gradient-14"/>
    <linearGradient id="linear-gradient-50" x1="146.7" y1="1471.8" x2="146.7" y2="1457.8" xlink:href="#linear-gradient-14"/>
    <linearGradient id="linear-gradient-51" x1="146.7" y1="1450.8" x2="146.7" y2="1436.8" xlink:href="#linear-gradient-14"/>
    <linearGradient id="linear-gradient-52" x1="146.7" y1="1429.8" x2="146.7" y2="1415.8" xlink:href="#linear-gradient-14"/>
    <linearGradient id="linear-gradient-53" x1="46.7" x2="46.7" xlink:href="#linear-gradient-9"/>
    <linearGradient id="linear-gradient-54" x1="46.7" y1="1618.8" x2="46.7" y2="1604.8" xlink:href="#linear-gradient-9"/>
    <linearGradient id="linear-gradient-55" x1="46.7" y1="1597.8" x2="46.7" y2="1583.8" xlink:href="#linear-gradient-9"/>
    <linearGradient id="linear-gradient-56" x1="46.7" y1="1576.8" x2="46.7" y2="1562.8" xlink:href="#linear-gradient-9"/>
    <linearGradient id="linear-gradient-57" x1="46.7" y1="1555.8" x2="46.7" y2="1541.8" xlink:href="#linear-gradient-9"/>
    <linearGradient id="linear-gradient-58" x1="46.7" y1="1534.8" x2="46.7" y2="1520.8" xlink:href="#linear-gradient-9"/>
    <linearGradient id="linear-gradient-59" x1="46.7" y1="1513.8" x2="46.7" y2="1499.8" xlink:href="#linear-gradient-9"/>
    <linearGradient id="linear-gradient-60" x1="46.7" y1="1492.8" x2="46.7" y2="1478.8" xlink:href="#linear-gradient-9"/>
    <linearGradient id="linear-gradient-61" x1="46.7" y1="1471.8" x2="46.7" y2="1457.8" xlink:href="#linear-gradient-14"/>
    <linearGradient id="linear-gradient-62" x1="46.7" y1="1450.8" x2="46.7" y2="1436.8" xlink:href="#linear-gradient-14"/>
    <linearGradient id="linear-gradient-63" x1="46.7" y1="1429.8" x2="46.7" y2="1415.8" xlink:href="#linear-gradient-14"/>
    <linearGradient id="linear-gradient-64" x1="121.7" x2="121.7" xlink:href="#linear-gradient-9"/>
    <linearGradient id="linear-gradient-65" x1="121.7" y1="1618.8" x2="121.7" y2="1604.8" xlink:href="#linear-gradient-9"/>
    <linearGradient id="linear-gradient-66" x1="121.7" y1="1597.8" x2="121.7" y2="1583.8" xlink:href="#linear-gradient-9"/>
    <linearGradient id="linear-gradient-67" x1="121.7" y1="1576.8" x2="121.7" y2="1562.8" xlink:href="#linear-gradient-9"/>
    <linearGradient id="linear-gradient-68" x1="121.7" y1="1555.8" x2="121.7" y2="1541.8" xlink:href="#linear-gradient-9"/>
    <linearGradient id="linear-gradient-69" x1="121.7" y1="1534.8" x2="121.7" y2="1520.8" xlink:href="#linear-gradient-9"/>
    <linearGradient id="linear-gradient-70" x1="121.7" y1="1513.8" x2="121.7" y2="1499.8" xlink:href="#linear-gradient-9"/>
    <linearGradient id="linear-gradient-71" x1="121.7" y1="1492.8" x2="121.7" y2="1478.8" xlink:href="#linear-gradient-9"/>
    <linearGradient id="linear-gradient-72" x1="121.7" y1="1471.8" x2="121.7" y2="1457.8" xlink:href="#linear-gradient-14"/>
    <linearGradient id="linear-gradient-73" x1="121.7" y1="1450.8" x2="121.7" y2="1436.8" xlink:href="#linear-gradient-14"/>
    <linearGradient id="linear-gradient-74" x1="121.7" y1="1429.8" x2="121.7" y2="1415.8" xlink:href="#linear-gradient-14"/>
  </defs>
  <!-- Generator: Adobe Illustrator 28.7.1, SVG Export Plug-In . SVG Version: 1.2.0 Build 142)  -->
  <g>
    <g id="Layer_1">
      <rect class="cls-9" x=".7" y="-.2" width="165" height="277"/>
      <g>
        <circle class="cls-10" cx="14.2" cy="263.3" r="7.5"/>
        <rect class="cls-8" x="8.7" y="261.8" width="11" height="2"/>
      </g>
      <g>
        <circle class="cls-7" cx="14.2" cy="14.4" r="7.5"/>
        <rect class="cls-6" x="8.4" y="12.7" width="11" height="2" transform="translate(-5.1 18.2) rotate(-57.8)"/>
      </g>
      <g>
        <circle class="cls-3" cx="153.2" cy="263.3" r="7.5"/>
        <rect class="cls-4" x="146.9" y="260.9" width="11" height="2" transform="translate(-139.3 179.9) rotate(-44.1)"/>
      </g>
      <g>
        <circle class="cls-2" cx="153.2" cy="14.4" r="7.5"/>
        <rect class="cls-1" x="151.9" y="9.5" width="2" height="11" transform="translate(30.5 107.9) rotate(-42.8)"/>
      </g>
      <circle class="cls-5" cx="21.7" cy="242.8" r="7"/>
      <circle class="cls-21" cx="21.7" cy="221.8" r="7"/>
      <circle class="cls-22" cx="21.7" cy="200.8" r="7"/>
      <circle class="cls-23" cx="21.7" cy="179.8" r="7"/>
      <circle class="cls-24" cx="21.7" cy="158.8" r="7"/>
      <circle class="cls-26" cx="21.7" cy="137.8" r="7"/>
      <circle class="cls-37" cx="21.7" cy="116.8" r="7"/>
      <circle class="cls-38" cx="21.7" cy="95.8" r="7"/>
      <circle class="cls-39" cx="21.7" cy="74.8" r="7"/>
      <circle class="cls-40" cx="21.7" cy="53.8" r="7"/>
      <circle class="cls-25" cx="21.7" cy="32.8" r="7"/>
      <circle class="cls-28" cx="96.7" cy="242.8" r="7"/>
      <circle class="cls-27" cx="96.7" cy="221.8" r="7"/>
      <circle class="cls-29" cx="96.7" cy="200.8" r="7"/>
      <circle class="cls-30" cx="96.7" cy="179.8" r="7"/>
      <circle class="cls-46" cx="96.7" cy="158.8" r="7"/>
      <circle class="cls-32" cx="96.7" cy="137.8" r="7"/>
      <circle class="cls-47" cx="96.7" cy="116.8" r="7"/>
      <circle class="cls-45" cx="96.7" cy="95.8" r="7"/>
      <circle class="cls-31" cx="96.7" cy="74.8" r="7"/>
      <circle class="cls-48" cx="96.7" cy="53.8" r="7"/>
      <circle class="cls-36" cx="96.7" cy="32.8" r="7"/>
      <circle class="cls-34" cx="71.7" cy="242.8" r="7"/>
      <circle class="cls-33" cx="71.7" cy="221.8" r="7"/>
      <circle class="cls-35" cx="71.7" cy="200.8" r="7"/>
      <circle class="cls-42" cx="71.7" cy="179.8" r="7"/>
      <circle class="cls-41" cx="71.7" cy="158.8" r="7"/>
      <circle class="cls-43" cx="71.7" cy="137.8" r="7"/>
      <circle class="cls-49" cx="71.7" cy="116.8" r="7"/>
      <circle class="cls-44" cx="71.7" cy="95.8" r="7"/>
      <circle class="cls-50" cx="71.7" cy="74.8" r="7"/>
      <circle class="cls-12" cx="71.7" cy="53.8" r="7"/>
      <circle class="cls-13" cx="71.7" cy="32.8" r="7"/>
      <circle class="cls-14" cx="146.7" cy="242.8" r="7"/>
      <circle class="cls-11" cx="146.7" cy="221.8" r="7"/>
      <circle class="cls-19" cx="146.7" cy="200.8" r="7"/>
      <circle class="cls-17" cx="146.7" cy="179.8" r="7"/>
      <circle class="cls-20" cx="146.7" cy="158.8" r="7"/>
      <circle class="cls-18" cx="146.7" cy="137.8" r="7"/>
      <circle class="cls-16" cx="146.7" cy="116.8" r="7"/>
      <circle class="cls-15" cx="146.7" cy="95.8" r="7"/>
      <circle class="cls-58" cx="146.7" cy="74.8" r="7"/>
      <circle class="cls-59" cx="146.7" cy="53.8" r="7"/>
      <circle class="cls-60" cx="146.7" cy="32.8" r="7"/>
      <circle class="cls-54" cx="46.7" cy="242.8" r="7"/>
      <circle class="cls-55" cx="46.7" cy="221.8" r="7"/>
      <circle class="cls-56" cx="46.7" cy="200.8" r="7"/>
      <circle class="cls-57" cx="46.7" cy="179.8" r="7"/>
      <circle class="cls-51" cx="46.7" cy="158.8" r="7"/>
      <circle class="cls-52" cx="46.7" cy="137.8" r="7"/>
      <circle class="cls-53" cx="46.7" cy="116.8" r="7"/>
      <circle class="cls-68" cx="46.7" cy="95.8" r="7"/>
      <circle class="cls-69" cx="46.7" cy="74.8" r="7"/>
      <circle class="cls-70" cx="46.7" cy="53.8" r="7"/>
      <circle class="cls-64" cx="46.7" cy="32.8" r="7"/>
      <circle class="cls-65" cx="121.7" cy="242.8" r="7"/>
      <circle class="cls-66" cx="121.7" cy="221.8" r="7"/>
      <circle class="cls-67" cx="121.7" cy="200.8" r="7"/>
      <circle class="cls-61" cx="121.7" cy="179.8" r="7"/>
      <circle class="cls-62" cx="121.7" cy="158.8" r="7"/>
      <circle class="cls-63" cx="121.7" cy="137.8" r="7"/>
      <circle class="cls-75" cx="121.7" cy="116.8" r="7"/>
      <circle class="cls-73" cx="121.7" cy="95.8" r="7"/>
      <circle class="cls-71" cx="121.7" cy="74.8" r="7"/>
      <circle class="cls-74" cx="121.7" cy="53.8" r="7"/>
      <circle class="cls-72" cx="121.7" cy="32.8" r="7"/>
    </g>
  </g>
</svg>