<?xml version="1.0" encoding="UTF-8"?>
<svg xmlns="http://www.w3.org/2000/svg" version="1.1" viewBox="0 0 400 72">
  <defs>
    <style>
      .cls-1 {
        fill: #030303;
      }

      .cls-2 {
        fill: #b20000;
      }

      .cls-3 {
        fill: #fff;
      }

      .cls-4 {
        fill: #4a4a4a;
      }
    </style>
  </defs>
  <!-- Generator: Adobe Illustrator 28.7.1, SVG Export Plug-In . SVG Version: 1.2.0 Build 142)  -->
  <g>
    <g id="Layer_1">
      <rect class="cls-4" x="-.3" y="-.3" width="401.1" height="72.6"/>
      <rect class="cls-1" x="6.9" y="15.9" width="73.5" height="38"/>
      <rect class="cls-2" x="28.3" y="4" width="30.2" height="9.5"/>
      <rect class="cls-2" x="178.9" y="4" width="28.5" height="9.5"/>
      <rect class="cls-2" x="107.2" y="4" width="20.2" height="9.5"/>
      <rect class="cls-2" x="243.5" y="17.1" width="13.6" height="7.7"/>
      <rect class="cls-2" x="243.5" y="34.3" width="13.6" height="7.7"/>
      <rect class="cls-2" x="356.8" y="4" width="22.5" height="9.5"/>
      <rect class="cls-2" x="282.1" y="2.8" width="22.5" height="10.1"/>
      <rect class="cls-1" x="93.5" y="15.9" width="48" height="38"/>
      <rect class="cls-1" x="269" y="15.9" width="48" height="38"/>
      <rect class="cls-1" x="343.8" y="15.9" width="48" height="38"/>
      <rect class="cls-1" x="152.2" y="15.9" width="81.8" height="38"/>
      <rect class="cls-1" x="148.7" y="62.1" width="102" height="9.5"/>
      <circle class="cls-2" cx="250.4" cy="29.2" r="2.7"/>
      <circle class="cls-2" cx="329.2" cy="28" r="2.7"/>
      <circle class="cls-2" cx="329.2" cy="39.9" r="2.7"/>
      <circle class="cls-2" cx="250.4" cy="47" r="2.7"/>
      <path class="cls-3" d="M166.1,67.2c0,.3,0,.6,0,.8,0,.2-.1.4-.3.6-.1.2-.3.3-.4.4-.2.1-.3.2-.5.3-.2,0-.4.1-.6.2-.2,0-.5,0-.7,0h-2.4v-4.7h2.4c.4,0,.7,0,1.1.1.3,0,.6.2.9.4.2.2.4.4.6.7.1.3.2.7.2,1.1ZM165.7,67.2c0-.3,0-.5,0-.7,0-.2-.1-.4-.2-.5,0-.1-.2-.3-.3-.4-.1,0-.3-.2-.5-.2-.2,0-.4-.1-.6-.1-.2,0-.4,0-.6,0h-2v3.9h2c.3,0,.6,0,.9,0,.3,0,.5-.2.7-.3.2-.2.4-.4.5-.6.1-.3.2-.6.2-1ZM167.3,69.5v-4.7h3.9v.4h-3.4v1.6h3.3v.4h-3.3v1.9h3.5v.4h-4ZM176.4,65.5c0,0-.2,0-.3-.1-.1,0-.2,0-.4-.1-.1,0-.3,0-.5,0-.2,0-.4,0-.6,0s-.5,0-.7,0c-.2,0-.4,0-.5.2-.1,0-.3.2-.3.3,0,.1-.1.2-.1.4s0,.2.1.3c0,0,.2.2.3.2.1,0,.3.1.4.2.2,0,.4.1.5.2.2,0,.4,0,.6.1.2,0,.4.1.6.2.2,0,.4.1.5.2.2,0,.3.2.4.2.1,0,.2.2.3.3,0,.1.1.3.1.4s0,.3,0,.5c0,.1-.2.2-.3.3-.1,0-.2.2-.4.2-.2,0-.3.1-.5.1-.2,0-.3,0-.5,0-.2,0-.4,0-.5,0-.4,0-.8,0-1.1,0-.3,0-.6-.1-.9-.2v-.5c.3.2.6.3,1,.4.3,0,.7.1,1.1.1s.5,0,.7,0c.2,0,.4,0,.6-.2.2,0,.3-.2.4-.3,0-.1.1-.2.1-.4s0-.2-.1-.3c0,0-.2-.2-.3-.3-.1,0-.3-.1-.4-.2-.2,0-.3-.1-.5-.2-.2,0-.4,0-.6-.1-.2,0-.4,0-.6-.2-.2,0-.4-.1-.5-.2-.2,0-.3-.1-.4-.2-.1,0-.2-.2-.3-.3,0-.1-.1-.3-.1-.4s0-.3,0-.4c0-.1.1-.2.2-.3.1,0,.2-.2.4-.2.1,0,.3-.1.4-.1.2,0,.3,0,.5,0,.2,0,.3,0,.5,0s.4,0,.5,0c.2,0,.3,0,.5,0,.2,0,.3,0,.4,0,.1,0,.3,0,.4.1v.5ZM180,65.2v4.3h-.4v-4.3h-2.1v-.4h4.7v.4h-2.1ZM183.1,69.5v-4.7h.4v4.7h-.4ZM189.6,69.5l-4.1-4.1v4.1h-.4v-4.7h.5l4.1,4.1v-4.1h.4v4.7h-.5ZM196,69.5l-.6-1.2h-3.2l-.6,1.2h-.5l2.5-4.7h.5l2.5,4.7h-.5ZM193.7,65.2l-1.4,2.7h2.8l-1.4-2.7ZM198.6,65.2v4.3h-.4v-4.3h-2.1v-.4h4.7v.4h-2.1ZM201.6,69.5v-4.7h.4v4.7h-.4ZM209.3,67.2c0,.4,0,.8-.2,1.1-.2.3-.4.6-.6.8-.3.2-.6.3-.9.4-.4,0-.8.1-1.2.1s-.8,0-1.2-.1c-.4,0-.7-.2-.9-.4-.3-.2-.5-.5-.6-.8-.2-.3-.2-.7-.2-1.1s0-.5.1-.8c0-.2.2-.4.3-.6.1-.2.3-.3.5-.5.2-.1.4-.2.6-.3.2,0,.5-.2.7-.2.3,0,.5,0,.8,0,.4,0,.8,0,1.2.1.4,0,.7.2.9.4.3.2.5.5.6.8.2.3.2.7.2,1.1ZM208.8,67.2c0-.3,0-.6-.2-.9-.1-.3-.3-.5-.5-.6-.2-.2-.5-.3-.8-.4-.3,0-.7-.1-1.1-.1s-.8,0-1.1.1c-.3,0-.6.2-.8.4-.2.2-.4.4-.5.6-.1.3-.2.5-.2.9s0,.6.2.9c.1.3.3.5.5.6.2.2.5.3.8.4.3,0,.7.1,1.1.1s.8,0,1.1-.1c.3,0,.6-.2.8-.4.2-.2.4-.4.5-.6.1-.3.2-.5.2-.9ZM215,69.5l-4.1-4.1v4.1h-.4v-4.7h.5l4.1,4.1v-4.1h.4v4.7h-.5ZM221.6,65.2v4.3h-.4v-4.3h-2.1v-.4h4.7v.4h-2.1ZM224.7,69.5v-4.7h.4v4.7h-.4ZM232.6,69.5v-4l-2.6,4h-.4l-2.6-4v4h-.4v-4.7h.5l2.8,4.3,2.7-4.3h.5v4.7h-.4ZM234.7,69.5v-4.7h3.9v.4h-3.4v1.6h3.3v.4h-3.3v1.9h3.5v.4h-4Z"/>
      <path class="cls-3" d="M35,10.8v-3.4l-2.2,3.4h-.3l-2.2-3.4v3.4h-.4v-4h.4l2.4,3.6,2.3-3.6h.4v4h-.4ZM41.6,8.8c0,.4,0,.7-.2.9-.1.3-.3.5-.5.7-.2.2-.5.3-.8.4-.3,0-.6.1-1,.1s-.7,0-1-.1c-.3,0-.6-.2-.8-.4-.2-.2-.4-.4-.5-.7-.1-.3-.2-.6-.2-.9s0-.5,0-.7c0-.2.1-.4.3-.5.1-.2.2-.3.4-.4.2-.1.3-.2.5-.3.2,0,.4-.1.6-.2.2,0,.4,0,.7,0,.4,0,.7,0,1,.1.3,0,.6.2.8.4.2.2.4.4.5.7.1.3.2.6.2.9ZM41.2,8.8c0-.3,0-.5-.1-.8,0-.2-.2-.4-.4-.6-.2-.2-.4-.3-.7-.3-.3,0-.6-.1-.9-.1s-.7,0-.9.1c-.3,0-.5.2-.7.3-.2.1-.3.3-.4.6,0,.2-.1.5-.1.8s0,.5.1.8c0,.2.2.4.4.6.2.1.4.3.7.3.3,0,.6.1.9.1s.7,0,.9-.1c.3,0,.5-.2.7-.3.2-.2.3-.3.4-.6,0-.2.1-.5.1-.8ZM46.5,10.8l-3.5-3.5v3.5h-.4v-4h.4l3.5,3.6v-3.6h.4v4h-.4ZM49.9,7.1v3.7h-.4v-3.7h-1.8v-.3h4v.3h-1.8ZM56.5,10.8v-2h-3.6v2h-.4v-4h.4v1.7h3.6v-1.7h.4v4h-.4Z"/>
      <path class="cls-3" d="M115.1,8.8c0,.3,0,.5,0,.7,0,.2-.1.4-.2.5,0,.1-.2.3-.4.4-.1.1-.3.2-.5.2-.2,0-.4.1-.6.1-.2,0-.4,0-.6,0h-2.1v-4h2.1c.3,0,.6,0,.9,0,.3,0,.5.2.7.3.2.2.4.4.5.6.1.3.2.6.2,1ZM114.8,8.8c0-.2,0-.4,0-.6,0-.2-.1-.3-.2-.4,0-.1-.2-.2-.3-.3-.1,0-.2-.2-.4-.2-.1,0-.3,0-.5-.1-.2,0-.4,0-.5,0h-1.7v3.4h1.7c.3,0,.5,0,.8,0,.2,0,.4-.1.6-.3.2-.1.3-.3.4-.5,0-.2.1-.5.1-.8ZM119.9,10.8l-.6-1.1h-2.7l-.6,1.1h-.4l2.1-4h.4l2.1,4h-.4ZM118,7.2l-1.2,2.3h2.4l-1.2-2.3ZM122.3,9.1v1.7h-.4v-1.7l-1.9-2.3h.4l1.6,2,1.6-2h.4l-1.9,2.3Z"/>
      <path class="cls-3" d="M186.1,9.1v1.7h-.4v-1.7l-1.9-2.3h.4l1.6,2,1.6-2h.4l-1.9,2.3ZM188.9,10.8v-4h3.4v.3h-3v1.4h2.8v.3h-2.8v1.6h3v.3h-3.4ZM197.1,10.8l-.6-1.1h-2.7l-.6,1.1h-.4l2.1-4h.4l2.1,4h-.4ZM195.2,7.2l-1.2,2.3h2.4l-1.2-2.3ZM198.7,9.1v1.7h-.4v-4h2c.3,0,.6,0,.8,0,.2,0,.4.1.5.2.1,0,.2.2.3.4,0,.1,0,.3,0,.5,0,.3,0,.5-.2.7-.2.2-.4.3-.8.4l1.4,1.8h-.5l-1.3-1.7c0,0-.1,0-.2,0,0,0-.1,0-.2,0h-1.6ZM201.7,8c0-.2,0-.3,0-.4,0-.1-.2-.2-.3-.2-.1,0-.3,0-.5-.1-.2,0-.5,0-.8,0h-1.2v1.6h1.2c.3,0,.6,0,.8,0,.2,0,.4,0,.5-.1.1,0,.2-.1.3-.2,0-.1,0-.2,0-.4Z"/>
      <path class="cls-3" d="M287,9.8v-2h-3.6v2h-.4v-4h.4v1.7h3.6v-1.7h.4v4h-.4ZM293.6,7.8c0,.4,0,.7-.2.9-.1.3-.3.5-.5.7-.2.2-.5.3-.8.4-.3,0-.6.1-1,.1s-.7,0-1-.1c-.3,0-.6-.2-.8-.4-.2-.2-.4-.4-.5-.7-.1-.3-.2-.6-.2-.9s0-.5,0-.7c0-.2.1-.4.3-.5.1-.2.2-.3.4-.4.2-.1.3-.2.5-.3.2,0,.4-.1.6-.2.2,0,.4,0,.7,0,.4,0,.7,0,1,.1.3,0,.6.2.8.4.2.2.4.4.5.7.1.3.2.6.2.9ZM293.2,7.8c0-.3,0-.5-.1-.8,0-.2-.2-.4-.4-.6-.2-.2-.4-.3-.7-.3-.3,0-.6-.1-.9-.1s-.7,0-.9.1c-.3,0-.5.2-.7.3-.2.1-.3.3-.4.6,0,.2-.1.5-.1.8s0,.5.1.8c0,.2.2.4.4.6.2.1.4.3.7.3.3,0,.6.1.9.1s.7,0,.9-.1c.3,0,.5-.2.7-.3.2-.2.3-.3.4-.6,0-.2.1-.5.1-.8ZM298.7,8.6c0,.2,0,.4-.1.6,0,.2-.2.3-.4.4-.2.1-.4.2-.6.3-.3,0-.5,0-.9,0s-.6,0-.9,0c-.3,0-.5-.2-.6-.3-.2-.1-.3-.3-.4-.4,0-.2-.1-.3-.1-.6v-2.8h.4v2.8c0,.1,0,.3.1.4,0,.1.2.2.3.3.1,0,.3.2.5.2.2,0,.4,0,.7,0s.5,0,.7,0c.2,0,.4-.1.5-.2.1,0,.2-.2.3-.3,0-.1.1-.2.1-.4v-2.8h.4v2.8ZM300.4,8.1v1.7h-.4v-4h2c.3,0,.6,0,.8,0,.2,0,.4.1.5.2.1,0,.2.2.3.4,0,.1,0,.3,0,.5,0,.3,0,.5-.2.7-.2.2-.4.3-.8.4l1.4,1.8h-.5l-1.3-1.7c0,0-.1,0-.2,0,0,0-.1,0-.2,0h-1.6ZM303.4,7c0-.2,0-.3,0-.4,0-.1-.2-.2-.3-.2-.1,0-.3,0-.5-.1-.2,0-.5,0-.8,0h-1.2v1.6h1.2c.3,0,.6,0,.8,0,.2,0,.4,0,.5-.1.1,0,.2-.1.3-.2,0-.1,0-.2,0-.4Z"/>
      <path class="cls-3" d="M366.8,10.8v-3.4l-2.2,3.4h-.3l-2.2-3.4v3.4h-.4v-4h.4l2.4,3.6,2.3-3.6h.4v4h-.4ZM368.5,10.8v-4h.4v4h-.4ZM374.1,10.8l-3.5-3.5v3.5h-.4v-4h.4l3.5,3.6v-3.6h.4v4h-.4Z"/>
      <path class="cls-3" d="M248.9,23.3l-.6-1.1h-2.7l-.6,1.1h-.4l2.1-4h.4l2.1,4h-.4ZM247,19.6l-1.2,2.3h2.4l-1.2-2.3ZM255.2,23.3v-3.4l-2.2,3.4h-.3l-2.2-3.4v3.4h-.4v-4h.4l2.4,3.6,2.3-3.6h.4v4h-.4Z"/>
      <path class="cls-3" d="M249.1,37.7c0,.2,0,.4,0,.5,0,.2-.2.3-.3.4-.1.1-.3.2-.5.2-.2,0-.5,0-.8,0h-1.8v1.5h-.4v-4h2.2c.3,0,.6,0,.8,0,.2,0,.4.1.5.2.1.1.2.2.3.4,0,.2,0,.3,0,.5ZM248.7,37.7c0-.2,0-.3,0-.5,0-.1-.2-.2-.3-.3-.1,0-.3-.1-.5-.1-.2,0-.4,0-.7,0h-1.6v1.8h1.6c.1,0,.2,0,.3,0,.1,0,.2,0,.4,0,.1,0,.2,0,.3,0,.1,0,.2,0,.3-.1,0,0,.2-.2.2-.3,0-.1,0-.2,0-.4ZM255.2,40.5v-3.4l-2.2,3.4h-.3l-2.2-3.4v3.4h-.4v-4h.4l2.4,3.6,2.3-3.6h.4v4h-.4Z"/>
    </g>
  </g>
</svg>